<?xml version="1.0" encoding="UTF-8" standalone="no"?>
<!-- Created with Inkscape (http://www.inkscape.org/) -->

<svg
   width="878.50769"
   height="518.83466"
   viewBox="0 0 232.43849 137.275"
   version="1.1"
   id="svg1"
   inkscape:version="1.3.2 (091e20e, 2023-11-25, custom)"
   sodipodi:docname="button_random.svg"
   inkscape:export-filename="button_random.png"
   inkscape:export-xdpi="96"
   inkscape:export-ydpi="96"
   xml:space="preserve"
   xmlns:inkscape="http://www.inkscape.org/namespaces/inkscape"
   xmlns:sodipodi="http://sodipodi.sourceforge.net/DTD/sodipodi-0.dtd"
   xmlns="http://www.w3.org/2000/svg"
   xmlns:svg="http://www.w3.org/2000/svg"><sodipodi:namedview
     id="namedview1"
     pagecolor="#ffffff"
     bordercolor="#000000"
     borderopacity="0.25"
     inkscape:showpageshadow="2"
     inkscape:pageopacity="0.0"
     inkscape:pagecheckerboard="0"
     inkscape:deskcolor="#d1d1d1"
     inkscape:document-units="mm"
     showgrid="true"
     inkscape:zoom="2.0485264"
     inkscape:cx="373.92733"
     inkscape:cy="220.64641"
     inkscape:window-width="2880"
     inkscape:window-height="1514"
     inkscape:window-x="2869"
     inkscape:window-y="-11"
     inkscape:window-maximized="1"
     inkscape:current-layer="layer1" /><defs
     id="defs1" /><g
     inkscape:label="Ebene 1"
     inkscape:groupmode="layer"
     id="layer1"
     transform="translate(-74.563081,-31.848425)"><rect
       style="fill:#27273c;fill-opacity:1;fill-rule:nonzero;stroke:none;stroke-width:4.05438;stroke-linejoin:round;stroke-dasharray:none"
       id="rect6"
       width="227.98047"
       height="110.30082"
       x="75.887909"
       y="58.185417"
       ry="19.103872" /><rect
       style="fill:none;fill-opacity:1;fill-rule:nonzero;stroke:#202037;stroke-width:2.82537;stroke-linejoin:round;stroke-dasharray:none;stroke-opacity:1"
       id="rect7"
       width="225.18129"
       height="90.236053"
       x="78.502853"
       y="63.676987"
       ry="15.530262" /><rect
       style="fill:#ab6120;fill-opacity:1;fill-rule:nonzero;stroke:#000000;stroke-width:3.303;stroke-linejoin:round;stroke-dasharray:none"
       id="rect1"
       width="213.90948"
       height="111.09981"
       x="84.217598"
       y="33.891712"
       rx="0"
       ry="23.672274" /><rect
       style="fill:#e99905;fill-opacity:1;fill-rule:nonzero;stroke:#000000;stroke-width:1.983;stroke-linejoin:round;stroke-dasharray:none"
       id="rect1-7"
       width="213.90948"
       height="96.344635"
       x="84.217598"
       y="33.891712"
       rx="0"
       ry="20.528358" /><rect
       style="fill:none;fill-opacity:1;fill-rule:nonzero;stroke:#000000;stroke-width:2.14237;stroke-linejoin:round;stroke-dasharray:none;stroke-opacity:1"
       id="rect8"
       width="229.93677"
       height="97.350815"
       x="75.769554"
       y="59.16848"
       ry="19.642889" /><rect
       style="fill:none;fill-opacity:1;fill-rule:nonzero;stroke:#000000;stroke-width:3.81416;stroke-linejoin:round;stroke-dasharray:none;stroke-opacity:1"
       id="rect11"
       width="228.62433"
       height="106.80346"
       x="76.470161"
       y="60.412888"
       rx="0"
       ry="16.908707" /><rect
       style="fill:#f9bf06;fill-opacity:1;fill-rule:nonzero;stroke:none;stroke-width:2.69103;stroke-linejoin:round;stroke-dasharray:none"
       id="rect1-7-2"
       width="211.2271"
       height="91.226456"
       x="85.456367"
       y="33.891712"
       rx="0"
       ry="21.264378" /><path
       style="fill:#f7d665;fill-opacity:1;fill-rule:nonzero;stroke:none;stroke-width:1.70877;stroke-linejoin:round;stroke-dasharray:none;stroke-opacity:1"
       d="m 96.153141,38.760349 2e-5,-0.87331 -1.12595,0.87331 z"
       id="path12-5" /><rect
       style="fill:#f7d665;fill-opacity:1;fill-rule:nonzero;stroke:none;stroke-width:3.29144;stroke-linejoin:round;stroke-dasharray:none"
       id="rect2"
       width="190.20285"
       height="4.931735"
       x="95.894829"
       y="33.828617"
       ry="0" /><rect
       style="fill:none;fill-opacity:1;fill-rule:nonzero;stroke:#000000;stroke-width:0;stroke-linejoin:round;stroke-dasharray:none"
       id="rect3"
       width="48.04673"
       height="25.314943"
       x="69.745255"
       y="27.38147" /><path
       style="fill:#f7d665;fill-opacity:1;fill-rule:nonzero;stroke:none;stroke-width:1.59503;stroke-linejoin:round;stroke-dasharray:none;stroke-opacity:1"
       d="m 285.98353,38.760347 0.98747,5e-6 -0.98747,-0.867627 z"
       id="path12" /><rect
       style="fill:none;fill-opacity:1;fill-rule:nonzero;stroke:#000000;stroke-width:4.01633;stroke-linejoin:round;stroke-dasharray:none"
       id="rect4"
       width="213.74422"
       height="110.98832"
       x="84.117653"
       y="33.85659"
       ry="21.201218" /><rect
       style="fill:#f4f0f0;fill-opacity:1;fill-rule:nonzero;stroke:none;stroke-width:3.58357;stroke-linejoin:round;stroke-dasharray:none"
       id="rect5"
       width="69.150352"
       height="5.1143909"
       x="189.08049"
       y="37.481747"
       ry="2.5571954" /><rect
       style="fill:#f4f0f0;fill-opacity:1;fill-rule:nonzero;stroke:none;stroke-width:1.3552;stroke-linejoin:round;stroke-dasharray:none"
       id="rect5-6"
       width="9.8894262"
       height="5.1143909"
       x="266.06323"
       y="37.423885"
       ry="2.5571954" /><path
       id="path9"
       style="fill:#27273c;stroke:#000000;stroke-width:1;stroke-linecap:round;stroke-linejoin:round;stroke-dasharray:none;fill-opacity:1"
       d="m 217.19074,48.244337 c -12.45001,-0.137756 -16.66917,11.448841 -16.66917,11.448841 l -0.0914,0.107406 -0.0991,0.544788 c 8.31385,-8.005663 15.11609,-12.263072 15.30277,-4.980043 0.26353,10.280905 -2.0533,16.962535 -4.23706,20.953275 -0.0392,-0.05974 -0.0892,-0.130076 -0.12734,-0.188793 -2.66286,-4.096238 -8.95491,-9.528681 -9.86098,-2.410574 -0.90607,7.118105 0.33606,25.46272 0.33606,25.46272 8.56047,0.16768 21.93578,-6.563457 27.04338,-10.271788 5.10762,-3.708339 1.64755,-5.773413 -0.32056,-5.442892 -1.96812,0.330512 -2.60295,3.443175 -5.98159,3.4852 -1.22479,0.01525 -2.68627,-0.871098 -4.17781,-2.194098 4.87111,-9.702612 15.47274,-33.600408 3.01516,-36.06891 -1.46855,-0.290998 -2.84449,-0.43088 -4.13241,-0.445132 z m -32.70718,20.34039 c -8.56155,0.09785 -21.72157,7.24065 -26.71174,11.105579 -4.99015,3.864929 -1.46806,5.821545 0.48886,5.430157 1.95694,-0.391384 2.49517,-3.52224 5.87086,-3.669009 1.22373,-0.05321 2.71186,0.78732 4.2437,2.063436 -4.56789,9.84899 -14.42326,34.06429 -1.89512,36.14531 15.75322,2.61676 20.45,-11.64372 20.45,-11.64372 l 0.088,-0.11017 0.0825,-0.54756 c -8.06161,8.25961 -14.72868,12.72605 -15.1411,5.4523 -0.58219,-10.26779 1.52646,-17.017986 3.58541,-21.074521 0.041,0.05854 0.0929,0.126864 0.13288,0.184364 2.78861,4.011698 9.24639,9.246637 9.93129,2.103854 0.68493,-7.142778 -1.12556,-25.44002 -1.12556,-25.44002 z" /></g></svg>
