<?xml version="1.0" encoding="UTF-8" standalone="no"?>
<!-- Created with Inkscape (http://www.inkscape.org/) -->

<svg
   width="878.50769"
   height="457.84579"
   viewBox="0 0 232.43849 121.13836"
   version="1.1"
   id="svg1"
   inkscape:version="1.3.2 (091e20e, 2023-11-25, custom)"
   sodipodi:docname="button_random_down.svg"
   inkscape:export-filename="button_random_down.png"
   inkscape:export-xdpi="96"
   inkscape:export-ydpi="96"
   xmlns:inkscape="http://www.inkscape.org/namespaces/inkscape"
   xmlns:sodipodi="http://sodipodi.sourceforge.net/DTD/sodipodi-0.dtd"
   xmlns="http://www.w3.org/2000/svg"
   xmlns:svg="http://www.w3.org/2000/svg">
  <sodipodi:namedview
     id="namedview1"
     pagecolor="#ffffff"
     bordercolor="#000000"
     borderopacity="0.25"
     inkscape:showpageshadow="2"
     inkscape:pageopacity="0.0"
     inkscape:pagecheckerboard="0"
     inkscape:deskcolor="#d1d1d1"
     inkscape:document-units="mm"
     showgrid="true"
     inkscape:zoom="2.0485264"
     inkscape:cx="437.38758"
     inkscape:cy="296.31056"
     inkscape:window-width="2880"
     inkscape:window-height="1514"
     inkscape:window-x="2869"
     inkscape:window-y="-11"
     inkscape:window-maximized="1"
     inkscape:current-layer="layer1" />
  <defs
     id="defs1" />
  <g
     inkscape:label="Ebene 1"
     inkscape:groupmode="layer"
     id="layer1"
     transform="translate(-91.410524,-59.544894)">
    <rect
       style="fill:#27273c;fill-opacity:1;fill-rule:nonzero;stroke:none;stroke-width:4.05438;stroke-linejoin:round;stroke-dasharray:none"
       id="rect6"
       width="227.98047"
       height="110.30082"
       x="92.735352"
       y="69.745255"
       ry="19.103872" />
    <rect
       style="fill:none;fill-opacity:1;fill-rule:nonzero;stroke:#202037;stroke-width:2.82537;stroke-linejoin:round;stroke-dasharray:none;stroke-opacity:1"
       id="rect7"
       width="225.18129"
       height="90.236053"
       x="95.350296"
       y="75.236824"
       ry="15.530262" />
    <rect
       style="fill:#ab6120;fill-opacity:1;fill-rule:nonzero;stroke:#000000;stroke-width:3.04909;stroke-linejoin:round;stroke-dasharray:none"
       id="rect1"
       width="214.16339"
       height="94.563194"
       x="100.93808"
       y="62.115131"
       rx="0"
       ry="20.148781" />
    <rect
       style="fill:#e99905;fill-opacity:1;fill-rule:nonzero;stroke:#000000;stroke-width:1.983;stroke-linejoin:round;stroke-dasharray:none"
       id="rect1-7"
       width="213.90948"
       height="96.344635"
       x="101.86269"
       y="61.040836"
       rx="0"
       ry="20.528358" />
    <rect
       style="fill:none;fill-opacity:1;fill-rule:nonzero;stroke:#000000;stroke-width:2.14237;stroke-linejoin:round;stroke-dasharray:none;stroke-opacity:1"
       id="rect8"
       width="229.93677"
       height="97.350815"
       x="92.616997"
       y="70.728317"
       ry="19.642889" />
    <rect
       style="fill:none;fill-opacity:1;fill-rule:nonzero;stroke:#000000;stroke-width:3.81416;stroke-linejoin:round;stroke-dasharray:none;stroke-opacity:1"
       id="rect11"
       width="228.62433"
       height="106.80346"
       x="93.317604"
       y="71.972725"
       rx="0"
       ry="16.908707" />
    <rect
       style="fill:#f9bf06;fill-opacity:1;fill-rule:nonzero;stroke:none;stroke-width:2.69596;stroke-linejoin:round;stroke-dasharray:none"
       id="rect1-7-2"
       width="212.00204"
       height="91.226456"
       x="102.32652"
       y="61.040836"
       rx="0"
       ry="21.264378" />
    <path
       style="fill:#f7d665;fill-opacity:1;fill-rule:nonzero;stroke:none;stroke-width:6.0115;stroke-linejoin:round;stroke-dasharray:none;stroke-opacity:1"
       d="m 114.41465,65.909472 9e-5,-2.334565 -5.2129,2.334565 z"
       id="path12-5" />
    <rect
       style="fill:#f7d665;fill-opacity:1;fill-rule:nonzero;stroke:none;stroke-width:3.29144;stroke-linejoin:round;stroke-dasharray:none"
       id="rect2"
       width="190.20285"
       height="4.931735"
       x="113.53992"
       y="60.977741"
       ry="0" />
    <rect
       style="fill:none;fill-opacity:1;fill-rule:nonzero;stroke:#000000;stroke-width:0;stroke-linejoin:round;stroke-dasharray:none"
       id="rect3"
       width="48.04673"
       height="25.314943"
       x="69.745255"
       y="27.38147" />
    <path
       style="fill:#f7d665;fill-opacity:1;fill-rule:nonzero;stroke:none;stroke-width:3.85588;stroke-linejoin:round;stroke-dasharray:none;stroke-opacity:1"
       d="m 303.62864,65.909465 2.98942,1e-5 -2.98942,-1.674864 z"
       id="path12" />
    <rect
       style="fill:none;fill-opacity:1;fill-rule:nonzero;stroke:#000000;stroke-width:3.72124;stroke-linejoin:round;stroke-dasharray:none"
       id="rect4"
       width="214.03931"
       height="95.14679"
       x="100.81755"
       y="61.405514"
       ry="18.175137" />
    <rect
       style="fill:#f4f0f0;fill-opacity:1;fill-rule:nonzero;stroke:none;stroke-width:3.58357;stroke-linejoin:round;stroke-dasharray:none"
       id="rect5"
       width="69.150352"
       height="5.1143909"
       x="206.72559"
       y="64.630867"
       ry="2.5571954" />
    <rect
       style="fill:#f4f0f0;fill-opacity:1;fill-rule:nonzero;stroke:none;stroke-width:1.3552;stroke-linejoin:round;stroke-dasharray:none"
       id="rect5-6"
       width="9.8894262"
       height="5.1143909"
       x="283.70834"
       y="64.573006"
       ry="2.5571954" />
    <path
       id="path9"
       style="fill:#27273c;fill-opacity:1;stroke:#000000;stroke-width:1;stroke-linecap:round;stroke-linejoin:round;stroke-dasharray:none"
       d="M 233.22567,75.140793 C 220.77566,75.003033 216.5565,86.58963 216.5565,86.58963 l -0.0914,0.1074 -0.0991,0.54479 c 8.31385,-8.005657 15.11609,-12.263067 15.30277,-4.980037 0.26353,10.280897 -2.0533,16.962527 -4.23706,20.953267 -0.0392,-0.0597 -0.0892,-0.13008 -0.12734,-0.18879 -2.66286,-4.09624 -8.95491,-9.52868 -9.86098,-2.41058 -0.90607,7.11811 0.33606,25.46272 0.33606,25.46272 8.56047,0.16768 21.93578,-6.56345 27.04338,-10.27178 5.10762,-3.70834 1.64755,-5.77342 -0.32056,-5.4429 -1.96812,0.33051 -2.60295,3.44318 -5.98159,3.4852 -1.22479,0.0153 -2.68627,-0.87109 -4.17781,-2.19409 4.87111,-9.70262 15.47274,-33.600407 3.01516,-36.068907 -1.46855,-0.291 -2.84449,-0.43088 -4.13241,-0.44513 z M 200.51849,95.48118 c -8.56155,0.0979 -21.72157,7.24064 -26.71174,11.10557 -4.99015,3.86493 -1.46806,5.82155 0.48886,5.43016 1.95694,-0.39138 2.49517,-3.52224 5.87086,-3.66901 1.22373,-0.0532 2.71186,0.78732 4.2437,2.06344 -4.56789,9.84899 -14.42326,34.06429 -1.89512,36.14531 15.75322,2.61676 20.45,-11.64372 20.45,-11.64372 l 0.088,-0.11017 0.0825,-0.54756 c -8.06161,8.25961 -14.72868,12.72605 -15.1411,5.4523 -0.58219,-10.26779 1.52646,-17.01799 3.58541,-21.07453 0.041,0.0585 0.0929,0.12687 0.13288,0.18437 2.78861,4.0117 9.24639,9.24664 9.93129,2.10385 0.68493,-7.14277 -1.12556,-25.44001 -1.12556,-25.44001 z" />
  </g>
</svg>
