<?xml version="1.0" encoding="UTF-8" standalone="no"?>
<!-- Created with Inkscape (http://www.inkscape.org/) -->

<svg
   width="421.65359"
   height="406.16721"
   viewBox="0 0 111.56251 107.46507"
   version="1.1"
   id="svg1"
   inkscape:version="1.3.2 (091e20e, 2023-11-25, custom)"
   sodipodi:docname="exit_button-down.svg"
   xml:space="preserve"
   inkscape:export-filename="button_exit_down.png"
   inkscape:export-xdpi="96"
   inkscape:export-ydpi="96"
   xmlns:inkscape="http://www.inkscape.org/namespaces/inkscape"
   xmlns:sodipodi="http://sodipodi.sourceforge.net/DTD/sodipodi-0.dtd"
   xmlns="http://www.w3.org/2000/svg"
   xmlns:svg="http://www.w3.org/2000/svg"><sodipodi:namedview
     id="namedview1"
     pagecolor="#ffffff"
     bordercolor="#000000"
     borderopacity="0.25"
     inkscape:showpageshadow="2"
     inkscape:pageopacity="0.0"
     inkscape:pagecheckerboard="0"
     inkscape:deskcolor="#d1d1d1"
     inkscape:document-units="mm"
     inkscape:zoom="0.50049902"
     inkscape:cx="-467.53338"
     inkscape:cy="49.950148"
     inkscape:window-width="2880"
     inkscape:window-height="1514"
     inkscape:window-x="2869"
     inkscape:window-y="-11"
     inkscape:window-maximized="1"
     inkscape:current-layer="layer1"
     showgrid="true" /><defs
     id="defs1" /><g
     inkscape:label="Ebene 1"
     inkscape:groupmode="layer"
     id="layer1"
     transform="translate(-172.17446,-75.697116)"><ellipse
       style="fill:#83161a;fill-opacity:1;stroke:#000000;stroke-width:3.04629;stroke-linejoin:round;stroke-dasharray:none"
       id="path1-9"
       cx="227.95572"
       cy="133.40041"
       rx="54.258114"
       ry="48.238636" /><path
       id="path1-9-7-6"
       style="fill:#7e171a;fill-opacity:1;stroke:#000000;stroke-width:1.09153;stroke-linejoin:round;stroke-dasharray:none"
       d="m 181.41422,107.42542 a 55.188683,48.460201 0 0 0 -7.44451,16.23363 54.24136,51.329235 0 0 0 54.06388,48.97479 54.24136,51.329235 0 0 0 53.99929,-48.12988 55.188683,48.460201 0 0 0 -7.30188,-16.39228 47.125462,43.296669 0 0 1 0.42788,5.16041 47.125462,43.296669 0 0 1 -47.12529,43.29658 47.125462,43.296669 0 0 1 -47.12528,-43.29658 47.125462,43.296669 0 0 1 0.50591,-5.84667 z" /><ellipse
       style="fill:none;fill-opacity:1;stroke:#000000;stroke-width:3.04629;stroke-linejoin:round;stroke-dasharray:none"
       id="path1-9-9"
       cx="227.95572"
       cy="133.40041"
       rx="54.258114"
       ry="48.238636" /><ellipse
       style="fill:#d92e32;fill-opacity:1;stroke:#000000;stroke-width:2.64583;stroke-linejoin:round;stroke-dasharray:none"
       id="path1-4"
       cx="227.95572"
       cy="118.91732"
       rx="47.125462"
       ry="41.897289" /><ellipse
       style="fill:#fe4f50;fill-opacity:1;stroke:#000000;stroke-width:2.64583;stroke-linejoin:round;stroke-dasharray:none"
       id="path1"
       cx="228.88084"
       cy="118.91732"
       rx="47.125462"
       ry="41.897289" /><path
       id="path1-6-4"
       style="fill:#d92e32;fill-opacity:1;stroke:none;stroke-width:2.56079;stroke-linejoin:round;stroke-dasharray:none"
       d="m 228.99389,81.712844 a 46.3372,39.914908 0 0 0 -1.07823,0.06669 46.3372,36.782231 0 0 1 1.01117,-0.05762 46.3372,36.782231 0 0 1 3.8551,0.135199 46.3372,39.914908 0 0 0 -3.78804,-0.144269 z m 4.45926,0.186908 a 46.3372,36.782231 0 0 1 0.31404,0.02995 46.3372,39.914908 0 0 0 -0.31404,-0.02995 z m 41.76599,37.107878 a 46.3372,36.782231 0 0 1 -46.29231,36.27857 46.3372,36.782231 0 0 1 -46.16732,-34.89667 46.3372,39.914908 0 0 0 -0.10266,1.23808 46.3372,39.914908 0 0 0 46.33704,39.91522 46.3372,39.914908 0 0 0 46.33754,-39.91522 46.3372,39.914908 0 0 0 -0.11229,-2.61998 z" /><ellipse
       style="fill:none;fill-opacity:1;stroke:#000000;stroke-width:2.64583;stroke-linejoin:round;stroke-dasharray:none"
       id="path1-3"
       cx="228.87128"
       cy="119.00499"
       rx="47.125462"
       ry="41.897289" /><path
       id="path10-9"
       style="fill:#df302f;fill-opacity:1;stroke:none;stroke-width:12.1514;stroke-linecap:butt;stroke-linejoin:round;stroke-dasharray:none"
       d="m 246.65887,96.919517 a 5.4626757,5.4626757 0 0 0 -2.3021,0.473872 c -0.47701,0.141209 -1.16962,0.484319 -1.66529,0.746014 -3.87628,1.704477 -9.21915,5.491907 -14.63468,9.788377 -4.4092,-3.0706 -8.45509,-5.75415 -11.06522,-7.44749 -0.78156,-0.677805 -1.95058,-1.430808 -2.60273,-1.833788 a 5.4626757,5.4626757 0 0 0 -3.08928,-1.001539 5.4626757,5.4626757 0 0 0 -5.46258,5.462597 5.4626757,5.4626757 0 0 0 1.71591,3.95948 l -0.0467,0.0364 c 0,0 0.12323,0.0497 0.13839,0.0553 a 5.4626757,5.4626757 0 0 0 2.77521,1.2998 c 0.78422,0.39921 1.63443,0.79563 2.43345,1.08856 2.13597,1.09008 4.80461,2.57596 7.79477,4.50377 -4.99536,4.27824 -9.47186,8.37198 -12.1704,10.88562 -0.84732,0.59353 -1.86197,1.54508 -2.41128,2.07981 a 5.4626757,5.4626757 0 0 0 -1.72145,2.75306 h -7.9e-4 a 5.4626757,5.4626757 0 0 0 3.97214,6.62551 5.4626757,5.4626757 0 0 0 4.25774,-0.70251 l 0.0245,0.0546 c 0,0 0.0778,-0.10778 0.087,-0.12108 a 5.4626757,5.4626757 0 0 0 1.93505,-2.37647 c 0.57776,-0.66376 1.16884,-1.39252 1.64708,-2.09644 2.62576,-3.01052 6.68064,-7.18469 12.13874,-11.53749 4.54632,3.60526 9.37663,8.08459 13.99469,13.58172 0.30173,0.4556 1.0206,1.52546 1.37097,1.91368 a 5.4626757,5.4626757 0 0 0 4.35425,2.23726 5.4626757,5.4626757 0 0 0 5.46259,-5.46261 5.4626757,5.4626757 0 0 0 -1.16371,-3.291 c -0.25285,-0.4284 -0.75387,-1.01701 -1.12813,-1.43428 -2.89206,-3.72929 -8.72961,-8.59508 -14.94637,-13.25894 3.05248,-1.97085 6.393,-3.8918 10.03598,-5.66668 0.51524,-0.18203 1.72729,-0.6191 2.18899,-0.86469 a 5.4626757,5.4626757 0 0 0 3.22851,-3.68023 5.4626757,5.4626757 0 0 0 -3.97216,-6.626313 5.4626757,5.4626757 0 0 0 -1.1732,-0.14398 z" /><path
       id="path18"
       style="fill:#fffefe;fill-opacity:1;stroke:none;stroke-width:6.06215;stroke-linecap:butt;stroke-linejoin:round;stroke-dasharray:none"
       d="m 211.44723,99.681039 a 3.2474246,3.2474246 0 0 0 -3.24786,3.247351 3.2474246,3.2474246 0 0 0 2.56728,3.16673 c 4.45612,2.25381 21.18103,11.38716 34.52399,27.65205 a 3.2474246,3.2474246 0 0 0 2.86598,1.73685 3.2474246,3.2474246 0 0 0 3.24735,-3.24786 3.2474246,3.2474246 0 0 0 -1.44591,-2.70165 c -9.68386,-11.48825 -33.34405,-26.98066 -36.07377,-28.7507 a 3.2474246,3.2474246 0 0 0 -2.43706,-1.102771 z" /><path
       id="path18-3"
       style="fill:#fffefe;fill-opacity:1;stroke:none;stroke-width:6.06215;stroke-linecap:butt;stroke-linejoin:round;stroke-dasharray:none"
       d="m 206.12086,130.52935 a 3.2474246,3.2474246 0 0 0 2.408,3.91092 3.2474246,3.2474246 0 0 0 3.6747,-1.76515 c 3.22345,-3.81393 15.97778,-17.97258 34.88796,-27.19139 a 3.2474246,3.2474246 0 0 0 2.35269,-2.3865 3.2474246,3.2474246 0 0 0 -2.40864,-3.910555 3.2474246,3.2474246 0 0 0 -2.96282,0.781772 c -13.41669,6.763853 -33.96184,26.198763 -36.3153,28.445023 a 3.2474246,3.2474246 0 0 0 -1.63659,2.11588 z" /><path
       style="fill:#df302f;fill-opacity:1;stroke:none;stroke-width:7.9375;stroke-linecap:butt;stroke-linejoin:round;stroke-dasharray:none"
       d="m 242.90965,127.99673 c 0,0 -2.54408,-2.47799 -3.10576,-3.60135 -0.56168,-1.12336 1.9824,1.12336 1.9824,1.12336 z"
       id="path24" /><ellipse
       style="fill:#ffffff;fill-opacity:1;stroke:none;stroke-width:6.59781;stroke-linecap:butt;stroke-linejoin:round;stroke-dasharray:none"
       id="path25-2"
       cx="235.79375"
       cy="83.264458"
       rx="3.4510481"
       ry="3.3849683" /><ellipse
       style="fill:#ffffff;fill-opacity:1;stroke:none;stroke-width:6.59781;stroke-linecap:butt;stroke-linejoin:round;stroke-dasharray:none"
       id="path25-7-3"
       cx="260.31705"
       cy="95.725922"
       rx="3.4510481"
       ry="3.3849683" /><ellipse
       style="fill:#ffffff;fill-opacity:1;stroke:none;stroke-width:6.59781;stroke-linecap:butt;stroke-linejoin:round;stroke-dasharray:none"
       id="path25-4-5"
       cx="266.42462"
       cy="104.4688"
       rx="3.4510481"
       ry="3.3849683" /><path
       id="path26-5"
       style="fill:#ffffff;fill-opacity:1;stroke:none;stroke-width:7.9375;stroke-linecap:butt;stroke-linejoin:round;stroke-dasharray:none"
       d="m 236.01333,79.892185 -0.4625,0.272851 v 6.302975 c 14.18909,2.713294 22.40121,11.79463 22.40121,11.79463 0,0 0.74719,0.26949 1.78387,0.58446 v -5.14439 h 3.25924 c -0.20211,-0.19609 -0.39447,-0.38638 -0.61599,-0.59428 C 250.55087,82.007032 236.01333,79.892185 236.01333,79.892185 Z" /><path
       style="fill:#ffffff;stroke-width:7.9375;stroke-linejoin:round"
       d="m 239.32818,122.32745 c -0.12282,0.28942 -0.0699,0.60677 -0.14018,0.88778 -0.005,0.0214 -0.0398,0.0258 -0.0467,0.0467 -0.01,0.0296 0.0116,0.0645 0,0.0935 -0.0403,0.1008 -0.10913,0.18721 -0.14018,0.28035 -0.0497,0.14914 0,0.53938 0,0.70088 0,0.0607 -0.0305,0.35964 0,0.42053 0.095,0.18996 0.20559,0.37848 0.32708,0.56071 0.0468,0.0702 0.14949,0.11207 0.1869,0.1869 0.022,0.0441 0.0172,0.10077 0.0467,0.14018 0.0209,0.0279 0.0688,0.0221 0.0934,0.0467 0.0857,0.0857 0.18772,0.35106 0.28035,0.42053 0.0394,0.0296 0.10077,0.0172 0.14018,0.0467 0.13157,0.003 0.0119,0.10535 0.0467,0.14017 0.011,0.011 0.0357,-0.011 0.0467,0 0.0246,0.0246 0.0221,0.0688 0.0467,0.0935 0.0572,0.0572 0.13718,0.0656 0.18691,0.14017 0.0787,0.11801 0.16323,0.29015 0.28035,0.37381 0.0739,0.0528 0.16467,0.0811 0.23363,0.14017 0.0426,0.0366 0.0485,0.10649 0.0934,0.14018 0.0249,0.0187 0.0656,-0.0139 0.0934,0 0.0139,0.007 -0.013,0.0381 0,0.0467 0.041,0.0273 0.10172,0.0159 0.14018,0.0467 0.0694,0.10409 0.0918,0.15754 0.1869,0.23363 0.31515,0.25212 0.55066,0.56959 0.88778,0.79433 0.0779,0.0467 0.15576,0.0934 0.23363,0.14018 0.0311,0.0467 0.0467,0.10903 0.0934,0.14018 0.0534,0.0356 0.12516,0.0291 0.1869,0.0467 0.10047,0.0287 0.1799,0.11147 0.28036,0.14018 0.0599,0.0171 0.12545,-0.0102 0.1869,0 0.10492,0.0175 0.17454,0.10581 0.28035,0 0.0642,-0.0642 0.0834,-0.16271 0.14018,-0.23363 0.0275,-0.0344 0.0623,-0.0623 0.0934,-0.0935 0.0156,-0.0467 0.0172,-0.10078 0.0467,-0.14018 0.0209,-0.0279 0.0779,-0.0156 0.0935,-0.0467 0.0209,-0.0418 -0.0113,-0.0949 0,-0.14018 0.005,-0.0214 0.0414,-0.0254 0.0467,-0.0467 0.0574,-0.22963 0,-0.56473 0,-0.79434 0,-0.42426 0.0222,-0.84809 -0.0467,-1.26159 -0.008,-0.0461 0.0148,-0.0958 0,-0.14017 -0.0178,-0.0533 -0.0683,-0.09 -0.0935,-0.14018 -0.0507,-0.10142 -0.0427,-0.22566 -0.0935,-0.32708 -0.0197,-0.0394 -0.069,-0.0568 -0.0934,-0.0935 -0.0386,-0.058 -0.0489,-0.13339 -0.0935,-0.1869 -0.0359,-0.0431 -0.10047,-0.0537 -0.14017,-0.0934 -0.0246,-0.0246 -0.0258,-0.0656 -0.0467,-0.0935 -0.11017,-0.1469 -0.25836,-0.27622 -0.3738,-0.42052 -0.11549,-0.14436 -0.0561,-0.053 -0.18691,-0.14018 -0.10734,-0.0716 0.02,-0.0267 -0.0935,-0.14018 -0.0246,-0.0246 -0.0645,-0.0274 -0.0934,-0.0467 -0.16174,-0.10783 -0.25878,-0.3127 -0.42053,-0.42053 -0.157,-0.10467 -0.30296,-0.19821 -0.46725,-0.28036 -0.11025,-0.0551 -0.15618,-0.2029 -0.23363,-0.28035 -0.0987,-0.0987 -0.27805,-0.13788 -0.3738,-0.23363 -0.0246,-0.0246 -0.0221,-0.0688 -0.0467,-0.0935 -0.0348,-0.0348 -0.14238,-0.0267 -0.1869,-0.0934 -0.0193,-0.029 -0.0189,-0.0726 -0.0467,-0.0935 -0.0788,-0.0591 -0.19225,-0.0494 -0.28035,-0.0935 -0.0233,-0.0116 -0.26064,-0.12047 -0.28035,-0.14018 -0.011,-0.011 0.013,-0.0381 0,-0.0467 -0.0651,-0.0434 -0.38951,-0.0624 -0.42053,-0.0935 -0.011,-0.011 0.011,-0.0357 0,-0.0467 -0.0441,-0.044 -0.12461,0 -0.18691,0 -0.0642,0 -0.0779,-0.0675 -0.14017,-0.0467 -0.0796,0.0265 -0.15576,0.0623 -0.23363,0.0935 z"
       id="path2" /></g></svg>
