<?xml version="1.0" encoding="UTF-8" standalone="no"?>
<!-- Created with Inkscape (http://www.inkscape.org/) -->

<svg
   width="100"
   height="300"
   viewBox="0 0 26.458332 79.374998"
   version="1.1"
   id="svg1"
   xml:space="preserve"
   inkscape:version="1.3.2 (091e20e, 2023-11-25, custom)"
   sodipodi:docname="icon_3.2_ship.svg"
   inkscape:export-filename="icon_3.12_ship.png"
   inkscape:export-xdpi="96"
   inkscape:export-ydpi="96"
   xmlns:inkscape="http://www.inkscape.org/namespaces/inkscape"
   xmlns:sodipodi="http://sodipodi.sourceforge.net/DTD/sodipodi-0.dtd"
   xmlns="http://www.w3.org/2000/svg"
   xmlns:svg="http://www.w3.org/2000/svg"><sodipodi:namedview
     id="namedview1"
     pagecolor="#ffffff"
     bordercolor="#000000"
     borderopacity="0.25"
     inkscape:showpageshadow="2"
     inkscape:pageopacity="0.0"
     inkscape:pagecheckerboard="0"
     inkscape:deskcolor="#d1d1d1"
     inkscape:document-units="mm"
     showguides="false"
     inkscape:zoom="2.544276"
     inkscape:cx="-132.45418"
     inkscape:cy="199.27084"
     inkscape:window-width="2880"
     inkscape:window-height="1514"
     inkscape:window-x="2869"
     inkscape:window-y="-11"
     inkscape:window-maximized="1"
     inkscape:current-layer="g1" /><defs
     id="defs1" /><g
     inkscape:label="Ebene 1"
     inkscape:groupmode="layer"
     id="layer1"
     transform="translate(-118.42462,-18.057295)"><g
       id="g4"
       transform="matrix(5.2665254,0,0,5.2665254,-505.14401,-79.597689)"><g
         id="g1"
         transform="matrix(1.081965,0,0,1.081965,0.63290579,-2.3718656)"><g
           id="g9"
           transform="matrix(1.0916399,0,0,1.0916399,-10.125414,-2.2897372)"><path
             id="path2"
             style="fill:#494949;fill-opacity:1;stroke:#000000;stroke-width:0.143168;stroke-linecap:round;stroke-linejoin:round;stroke-dasharray:none"
             d="m 120.73465,19.128276 c -0.25509,0.0084 -1.30828,0.171968 -1.84352,2.248672 -0.0693,0.268879 -0.0852,0.509729 -0.0594,0.72591 -6e-4,-6.3e-4 -0.012,-0.01384 -0.012,-0.01384 v 6.701959 c 0,0 0.0712,1.647519 1.10447,2.289785 0.0502,0.03118 0.0989,0.05046 0.1465,0.05936 v 0.75044 l -0.8936,0.279256 -0.0209,0.621312 h 1.63491 0.12305 1.63491 l -0.0209,-0.621312 -0.8936,-0.279256 v -0.75044 c 0.0476,-0.0089 0.0963,-0.02818 0.1465,-0.05936 1.03325,-0.642266 1.10447,-2.289785 1.10447,-2.289785 v -6.701959 c 0,0 -0.0114,0.01321 -0.012,0.01384 0.0258,-0.216181 0.01,-0.457031 -0.0593,-0.72591 -0.53529,-2.076897 -1.58865,-2.240273 -1.84362,-2.248672 -0.0364,-0.0012 -0.0565,6.87e-4 -0.0565,6.87e-4 h -0.12305 c 0,0 -0.0201,-0.0019 -0.0564,-6.87e-4 z"
             transform="matrix(0.92424432,0,0,0.92424432,-0.58495855,2.1921834)" /><path
             id="path7"
             style="fill:#606060;stroke-width:0.137874;stroke-linecap:round;stroke-linejoin:round"
             d="m 120.80495,21.632066 c -0.91738,0.0404 -1.48537,1.330148 -1.48537,1.330148 l -0.0279,-0.0034 v 0.107444 1.754036 2.464738 h -1e-4 v 0.912441 0.513965 c 0,0 1.58966,4.339698 3.24521,-0.05142 v -0.462549 -0.04769 -2.23307 -1.831848 -1.018707 -0.04739 c -0.0109,-0.01869 -0.0221,-0.03747 -0.034,-0.05652 -0.64088,-1.029471 -1.21726,-1.351213 -1.69782,-1.330148 z"
             transform="matrix(0.92424432,0,0,0.92424432,-0.58495855,2.1921834)" /><rect
             style="fill:#383838;fill-opacity:1;stroke:none;stroke-width:0.132322;stroke-linecap:round;stroke-linejoin:round;stroke-dasharray:none"
             id="rect8"
             width="2.4067717"
             height="0.99365717"
             x="109.90907"
             y="23.511162"
             ry="0.49682859" /><rect
             style="fill:#383838;fill-opacity:1;stroke:none;stroke-width:0.132322;stroke-linecap:round;stroke-linejoin:round;stroke-dasharray:none"
             id="rect8-5"
             width="2.4067717"
             height="0.99365717"
             x="109.90907"
             y="24.726757"
             ry="0.49682859" /><rect
             style="fill:#606060;fill-opacity:1;stroke:#000000;stroke-width:0.102735;stroke-linecap:round;stroke-linejoin:round;stroke-dasharray:none"
             id="rect4-1-9"
             width="2.2080841"
             height="3.8758595"
             x="110.06525"
             y="25.942352"
             ry="1.0685345"
             rx="1.1040421" /><rect
             style="fill:#383838;fill-opacity:1;stroke:none;stroke-width:0.104827;stroke-linecap:round;stroke-linejoin:round;stroke-dasharray:none"
             id="rect8-5-7"
             width="1.9066632"
             height="0.78718293"
             x="110.21596"
             y="27.463621"
             ry="0.39359146" /><rect
             style="fill:#000000;fill-opacity:1;stroke:none;stroke-width:0.115725;stroke-linecap:round;stroke-linejoin:round;stroke-dasharray:none"
             id="rect5-60"
             width="0.083774209"
             height="0.62987441"
             x="110.77636"
             y="27.542274"
             ry="0.032027509" /><rect
             style="fill:#000000;fill-opacity:1;stroke:none;stroke-width:0.115725;stroke-linecap:round;stroke-linejoin:round;stroke-dasharray:none"
             id="rect5-60-8"
             width="0.083774209"
             height="0.62987441"
             x="111.47833"
             y="27.542274"
             ry="0.032027509" /></g></g></g></g></svg>
