<?xml version="1.0" encoding="UTF-8" standalone="no"?>
<!-- Created with Inkscape (http://www.inkscape.org/) -->

<svg
   width="100"
   height="500"
   viewBox="0 0 26.458332 132.29166"
   version="1.1"
   id="svg1"
   xml:space="preserve"
   inkscape:version="1.3.2 (091e20e, 2023-11-25, custom)"
   sodipodi:docname="icon_5_ship.svg"
   inkscape:export-filename="icon_5_ship.png"
   inkscape:export-xdpi="96"
   inkscape:export-ydpi="96"
   xmlns:inkscape="http://www.inkscape.org/namespaces/inkscape"
   xmlns:sodipodi="http://sodipodi.sourceforge.net/DTD/sodipodi-0.dtd"
   xmlns="http://www.w3.org/2000/svg"
   xmlns:svg="http://www.w3.org/2000/svg"><sodipodi:namedview
     id="namedview1"
     pagecolor="#ffffff"
     bordercolor="#000000"
     borderopacity="0.25"
     inkscape:showpageshadow="2"
     inkscape:pageopacity="0.0"
     inkscape:pagecheckerboard="0"
     inkscape:deskcolor="#d1d1d1"
     inkscape:document-units="mm"
     showguides="false"
     inkscape:zoom="1.7990748"
     inkscape:cx="-183.42762"
     inkscape:cy="240.12342"
     inkscape:window-width="2880"
     inkscape:window-height="1514"
     inkscape:window-x="2869"
     inkscape:window-y="-11"
     inkscape:window-maximized="1"
     inkscape:current-layer="g4" /><defs
     id="defs1" /><g
     inkscape:label="Ebene 1"
     inkscape:groupmode="layer"
     id="layer1"
     transform="translate(-118.42462,-18.057295)"><g
       id="g4"
       transform="matrix(5.2665254,0,0,5.2665254,-505.14401,-79.597689)"><g
         id="g8"
         transform="translate(0.03884731,0.09771239)"><path
           id="path2"
           style="fill:#606060;fill-opacity:1;stroke:#000000;stroke-width:0.0949391;stroke-linecap:round;stroke-linejoin:round"
           d="m 120.8785,18.620002 -0.0643,0.10607 h 1e-4 c 0,0 -9e-5,0.001 -1e-4,0.0011 -0.067,0.109849 -1.38511,2.278749 -1.77984,3.592263 -0.0757,0.252117 -0.10075,0.448703 -0.0918,0.601785 l -0.002,-0.0014 c 0,0 -0.2422,2.119107 -0.2718,4.251645 v 11.936301 c 0,0 0.99713,3.574033 1.41179,4.225643 0.0182,0.02851 0.0381,0.04187 0.0588,0.04857 l 4.9e-4,0.0071 h 1.47105 l 5e-4,-0.0071 c 0.0207,-0.0067 0.0406,-0.02006 0.0588,-0.04857 0.41466,-0.65161 1.41179,-4.225643 1.41179,-4.225643 V 27.17147 c -0.0296,-2.132538 -0.2718,-4.251645 -0.2718,-4.251645 l -0.002,0.0014 c 0.009,-0.153082 -0.016,-0.349668 -0.0917,-0.601785 -0.39419,-1.311696 -1.70826,-3.474725 -1.77867,-3.590202 l 2e-4,-5.89e-4 z" /><path
           id="path2-4"
           style="fill:#383838;fill-opacity:1;stroke:none;stroke-width:0.0770985;stroke-linecap:round;stroke-linejoin:round"
           d="m 120.8784,19.749195 -0.0547,0.09027 v 8.83e-4 c -0.057,0.09345 -1.17843,1.938592 -1.51423,3.056024 -0.0644,0.21448 -0.0857,0.381773 -0.078,0.512003 l -0.002,-0.0012 c 0,0 -0.206,1.8027 -0.23118,3.616891 v 0.15209 l 0.11853,5.580223 h -4.9e-4 l 0.006,0.457153 v 6.240391 c 0,0 0.80972,2.902377 1.14646,3.431538 0.0148,0.02315 0.031,0.03401 0.0478,0.03945 l 4e-4,0.0057 h 1.19454 l 4.9e-4,-0.0057 c 0.0168,-0.0054 0.0329,-0.0163 0.0477,-0.03945 0.33674,-0.529161 1.14656,-3.431538 1.14656,-3.431538 v -6.172 l 10e-4,-0.406717 0.0451,-5.69905 v -0.15209 c -0.0252,-1.814191 -0.23128,-3.616891 -0.23128,-3.616891 l -0.002,0.0012 c 0.008,-0.13023 -0.0136,-0.297523 -0.078,-0.512003 -0.33535,-1.115886 -1.45324,-2.95602 -1.51314,-3.054257 l 1e-4,-4.91e-4 z" /><rect
           style="fill:#494949;fill-opacity:1;stroke:none;stroke-width:0.0949391;stroke-linecap:round;stroke-linejoin:round"
           id="rect7"
           width="2.9026284"
           height="3.9688997"
           x="119.42415"
           y="25.137671"
           ry="0.63838607" /><rect
           style="fill:#494949;fill-opacity:1;stroke:none;stroke-width:0.131053;stroke-linecap:round;stroke-linejoin:round"
           id="rect7-9"
           width="2.9026284"
           height="7.5626297"
           x="119.42419"
           y="31.345263"
           ry="0.61883783"
           rx="0" /><g
           id="g1"
           transform="matrix(1.081965,0,0,1.081965,5.3796094,1.1586581)"><rect
             style="fill:#383838;fill-opacity:1;stroke:none;stroke-width:0.0591825;stroke-linecap:round;stroke-linejoin:round;stroke-dasharray:none"
             id="rect4-1"
             width="2.4067719"
             height="1.1800493"
             x="105.54304"
             y="32.920792"
             ry="0.59002465" /><rect
             style="fill:#383838;fill-opacity:1;stroke:none;stroke-width:0.0591825;stroke-linecap:round;stroke-linejoin:round;stroke-dasharray:none"
             id="rect4-1-5"
             width="2.4067719"
             height="1.1800493"
             x="105.54304"
             y="29.662075"
             ry="0.59002465" /><rect
             style="fill:#383838;fill-opacity:1;stroke:none;stroke-width:0.0591825;stroke-linecap:round;stroke-linejoin:round;stroke-dasharray:none"
             id="rect4-1-8"
             width="2.4067719"
             height="1.1800493"
             x="105.543"
             y="24.256197"
             ry="0.59002465" /><rect
             style="fill:#000000;fill-opacity:1;stroke:none;stroke-width:0.132345;stroke-linecap:round;stroke-linejoin:round;stroke-dasharray:none"
             id="rect5-2"
             width="0.083774209"
             height="0.82377976"
             x="106.35361"
             y="29.84021"
             ry="0.041887105" /><rect
             style="fill:#000000;fill-opacity:1;stroke:none;stroke-width:0.132345;stroke-linecap:round;stroke-linejoin:round;stroke-dasharray:none"
             id="rect5-2-2"
             width="0.083774209"
             height="0.82377976"
             x="107.0556"
             y="29.84021"
             ry="0.041887105" /><rect
             style="fill:#000000;fill-opacity:1;stroke:none;stroke-width:0.132345;stroke-linecap:round;stroke-linejoin:round;stroke-dasharray:none"
             id="rect5-2-2-4"
             width="0.083774209"
             height="0.82377976"
             x="107.07156"
             y="33.095222"
             ry="0.041887105" /><rect
             style="fill:#000000;fill-opacity:1;stroke:none;stroke-width:0.132345;stroke-linecap:round;stroke-linejoin:round;stroke-dasharray:none"
             id="rect5-2-2-4-2"
             width="0.083774209"
             height="0.82377976"
             x="106.36959"
             y="33.098927"
             ry="0.041887105" /></g></g></g></g></svg>
