<?xml version="1.0" encoding="UTF-8" standalone="no"?>
<!-- Created with Inkscape (http://www.inkscape.org/) -->

<svg
   width="813.2851"
   height="117.02857"
   viewBox="0 0 215.18168 30.96381"
   version="1.1"
   id="svg1"
   inkscape:version="1.3.2 (091e20e, 2023-11-25, custom)"
   sodipodi:docname="pop-up_window_seabattle.svg"
   inkscape:export-filename="popup_raw.png"
   inkscape:export-xdpi="96"
   inkscape:export-ydpi="96"
   xmlns:inkscape="http://www.inkscape.org/namespaces/inkscape"
   xmlns:sodipodi="http://sodipodi.sourceforge.net/DTD/sodipodi-0.dtd"
   xmlns="http://www.w3.org/2000/svg"
   xmlns:svg="http://www.w3.org/2000/svg">
  <sodipodi:namedview
     id="namedview1"
     pagecolor="#ffffff"
     bordercolor="#000000"
     borderopacity="0.25"
     inkscape:showpageshadow="2"
     inkscape:pageopacity="0.0"
     inkscape:pagecheckerboard="0"
     inkscape:deskcolor="#d1d1d1"
     inkscape:document-units="mm"
     showgrid="true"
     inkscape:zoom="1.0526834"
     inkscape:cx="151.04256"
     inkscape:cy="121.59401"
     inkscape:window-width="2880"
     inkscape:window-height="1514"
     inkscape:window-x="2869"
     inkscape:window-y="-11"
     inkscape:window-maximized="1"
     inkscape:current-layer="layer1" />
  <defs
     id="defs1" />
  <g
     inkscape:label="Ebene 1"
     inkscape:groupmode="layer"
     id="layer1"
     transform="translate(-140.0988,-14.032174)">
    <path
       id="path4"
       style="fill:#ffa204;fill-opacity:1;stroke:#000000;stroke-width:2.24477;stroke-linejoin:round;stroke-dasharray:none"
       inkscape:transform-center-x="-7.899699e-06"
       inkscape:transform-center-y="-2.5667082"
       d="m 146.04547,17.963945 5.90762,7.699919 2.95381,3.850219 -2.95381,3.850219 -5.90762,7.699919 h 11.81524 11.81583 16.06729 V 17.963945 l -16.06729,-10e-6 h -11.81582 z" />
    <path
       style="fill:#f19902;fill-opacity:1;stroke:none;stroke-width:2.27355;stroke-linejoin:round;stroke-dasharray:none"
       d="m 153.37185,32.674314 c 0.4117,-0.02154 0.90847,0.01834 1.2682,-0.13658 0.063,-0.02712 0.14135,0.007 0.21137,0 0.18149,0.05693 0.31443,-0.07368 0.47558,-0.09103 0.0874,-0.009 0.17702,0.01077 0.26421,0 0.11247,-0.01386 0.34298,-0.158933 0.42272,-0.227647 0.0814,-0.07009 0.13004,-0.203069 0.21137,-0.273159 0.0279,-0.02403 0.0839,-0.01734 0.10565,-0.04556 0.0195,-0.02522 -0.0115,-0.06232 0,-0.09103 0.0134,-0.03459 0.1826,-0.384954 0.21138,-0.40975 0.0125,-0.01077 0.0404,0.01077 0.0529,0 0.0705,-0.06072 -0.11213,-0.04367 0.0529,-0.09103 0.0335,-0.01 0.0742,0.01356 0.10565,0 0.0446,-0.01924 0.0642,-0.0672 0.10565,-0.09103 0.0798,-0.04586 0.27694,-0.05902 0.3699,-0.09103 0.0953,-0.03291 0.16885,-0.103719 0.26421,-0.13658 0.0834,-0.02871 0.17708,-0.02672 0.26421,-0.04556 0.15227,-0.0328 0.24229,-0.08166 0.36989,-0.13658 0.0413,-0.01774 0.61138,-0.04556 0.73979,-0.04556 0.0215,0 0.20477,-0.01137 0.21137,0 0.0157,0.02712 -0.0249,0.06959 0,0.09103 0.0393,0.0339 0.11915,0.01157 0.15853,0.04556 0.0271,0.02333 0.0325,0.119103 0.0529,0.13659 0.0279,0.02403 0.0778,0.02154 0.10565,0.04556 0.0299,0.02572 0.0663,0.148195 0.10565,0.182114 0.0125,0.01077 0.0404,-0.01077 0.0529,0 0.0449,0.03868 0.0675,0.09282 0.10566,0.136579 0.1214,0.139461 -0.0338,-0.07467 0.15853,0.09103 0.0125,0.01077 -0.0125,0.03479 0,0.04556 0.0125,0.01077 0.0404,-0.01077 0.0529,0 0.0125,0.01077 -0.008,0.03191 0,0.04556 0.0317,0.05463 0.12682,0.08196 0.15854,0.13658 0.0345,0.05942 0.11548,0.281634 0.15852,0.318693 0.0264,0.02273 0.0793,0.02273 0.10565,0.04556 0.0176,0.01516 0.0353,0.121406 0.0529,0.13658 0.0125,0.01077 0.0404,-0.01077 0.0529,0 0.0125,0.01077 -0.009,0.0329 0,0.04556 0.0277,0.03569 0.0781,0.05533 0.10565,0.09103 0.0472,0.06092 0.0672,0.161386 0.10564,0.227637 0.0365,0.06272 0.12393,0.06122 0.15853,0.09103 0.0176,0.01515 0.0351,0.121405 0.0529,0.136579 0.0249,0.02144 0.0807,-0.02144 0.10564,0 0.0125,0.01077 -0.008,0.03191 0,0.04556 0.0284,0.04895 0.0607,0.09791 0.10565,0.13659 0.0121,0.01037 0.19327,0.131375 0.21137,0.13658 0.0335,0.01 0.0724,-0.01 0.10566,0 0.0815,0.02343 0.1987,0.148115 0.31704,0.182113 0.10808,0.03101 0.22209,-0.02214 0.31706,-0.04556 0.0336,-0.008 0.46759,-0.08076 0.47558,-0.09103 0.0309,-0.03998 0.022,-0.09661 0.0529,-0.13659 0.008,-0.01007 0.14646,-0.03509 0.15853,-0.04556 0.10935,-0.09421 -0.16707,0.004 0.0529,-0.09103 0.0326,-0.01405 0.19178,-0.02861 0.21137,-0.04556 0.0125,-0.01077 -0.0125,-0.03479 0,-0.04556 0.0249,-0.02144 0.0742,0.01356 0.10565,0 0.0917,-0.03948 0.0467,-0.104456 0.15854,-0.136579 0.0335,-0.01 0.0742,0.01356 0.10565,0 0.0157,-0.007 -0.0125,-0.03479 0,-0.04556 0.0249,-0.02144 0.0742,0.01356 0.10565,0 0.21992,-0.09471 -0.0564,0.003 0.0529,-0.09103 0.0176,-0.01516 0.14091,-0.03041 0.15853,-0.04556 0.0125,-0.01077 -0.0125,-0.0348 0,-0.04556 0.0643,-0.05543 0.19982,-0.08116 0.26421,-0.13659 0.0125,-0.01077 -0.0157,-0.03868 0,-0.04556 0.0315,-0.01356 0.0724,0.01 0.10565,0 0.0982,-0.02821 0.0134,-0.09681 0.10564,-0.136579 0.0389,-0.01675 0.19439,-0.03091 0.21137,-0.04556 0.0225,-0.01934 0.0843,-0.150139 0.15853,-0.182103 0.34063,-0.14675 0.0115,-0.05045 0.21136,-0.13659 0.0157,-0.007 0.0404,0.01077 0.0529,0 0.0125,-0.01077 -0.0125,-0.03479 0,-0.04556 0.0249,-0.02144 0.0808,0.02144 0.10565,0 0.0125,-0.01077 -0.0125,-0.03479 0,-0.04556 0.0249,-0.02144 0.0808,0.02144 0.10565,0 0.21137,-0.182103 -0.22897,0.07587 0.0529,-0.04556 0.0635,-0.02732 0.0951,-0.109261 0.15853,-0.136579 0.0645,-0.02781 0.22167,-0.05443 0.26421,-0.09103 0.0125,-0.01077 -0.0125,-0.0348 0,-0.04556 0.0264,-0.02274 0.1321,0.02274 0.15852,0 0.0125,-0.01077 -0.0125,-0.03479 0,-0.04556 0.0244,-0.02104 0.12664,0.01376 0.15853,0 0.10554,-0.04546 0.21119,-0.04546 0.31705,-0.09103 0.0803,-0.03459 0.23082,0.01854 0.31706,0 0.054,-0.01167 0.10362,-0.03758 0.15852,-0.04556 0.19547,-0.02802 0.68294,0.06999 0.84548,0 0.0223,-0.01 0.0292,-0.03878 0.0529,-0.04556 0.046,-0.01326 0.93118,-0.03141 1.004,0 0.0661,0.02851 0.38731,0.212133 0.42274,0.27317 0.008,0.01356 -0.0125,0.03479 0,0.04556 0.0372,0.03211 0.18142,0.01366 0.21136,0.09103 0.0115,0.02881 -0.0157,0.0639 0,0.09103 0.008,0.01356 0.0404,-0.01077 0.0529,0 0.0691,0.05952 0.0895,0.41668 0.10566,0.500807 0.0294,0.151584 0.0506,0.31285 0.10565,0.455273 0.0575,0.148734 0,0.55941 0,0.728442 0,0.170219 0.0246,0.376231 0,0.54633 -0.0287,0.198115 -0.077,0.393738 -0.10565,0.591853 -0.08,0.551832 0.0362,1.146008 0.10565,1.684521 0.0175,0.135743 -0.0175,0.273998 0,0.40975 0.008,0.06222 0.0438,0.120019 0.0529,0.182104 0.0446,0.307427 0,0.646957 0,0.956078 0,0.682909 0,1.36583 0,2.048739 0,0.008 0.006,0.540845 0,0.546329 -0.0125,0.01077 -0.0404,-0.01077 -0.0529,0 -0.0125,0.01077 0.0125,0.0348 0,0.04556 -0.0866,0.07467 -0.26756,0.09252 -0.36989,0.13659 -0.43875,0.189001 -0.71719,0.19642 -1.16253,0.273159 -0.51018,0.08793 0.43327,0.005 -0.26421,0.09103 -0.1395,0.01715 -0.28182,0 -0.42273,0 -0.72627,0 -1.44151,0.05813 -2.16653,0.09103 -0.50907,0.02313 -1.02382,-0.02921 -1.53242,0 -1.08094,0.06212 0.32009,0.03629 -0.95115,0.09103 -0.54361,0.02343 -1.09404,0 -1.6381,0 -1.004,0 -2.00799,0 -3.01199,0 -0.69677,0 0.11803,-0.01844 -0.47558,0.04556 -0.34008,0.03659 -0.71498,0 -1.05683,0 -0.3295,0 -0.67625,0.02562 -1.00401,0 -0.21341,-0.01675 -0.42045,-0.07687 -0.63411,-0.09103 -0.21073,-0.01396 -0.42273,0 -0.63409,0 -0.79264,0 -1.58527,0 -2.3779,0 -0.38782,0 -0.8319,0.05503 -1.21536,0 -0.43228,-0.06212 -0.87797,-0.104766 -1.32106,-0.136581 -0.69676,0 0.11805,0.01844 -0.47558,-0.04556 -0.15648,-0.01685 -0.70675,0.05972 -0.84547,0 -0.14799,-0.06381 -0.19149,-0.214286 -0.2642,-0.318692 -0.0257,-0.03679 -0.08,-0.05423 -0.10565,-0.09103 -0.0765,-0.10986 -0.0389,-0.203609 -0.10565,-0.318694 -0.0621,-0.107087 0.0248,-0.926567 0.0529,-1.047135 0.0226,-0.09791 0.12877,-0.105214 0.15852,-0.182103 0.0115,-0.02881 -0.008,-0.06162 0,-0.09103 0.0457,-0.157477 0.86847,-1.11248 1.004,-1.229248 0.14133,-0.121765 0.15962,-0.04696 0.26421,-0.182104 0.0788,-0.101804 0.12418,-0.222113 0.21137,-0.318693 0.039,-0.04317 0.11364,-0.05235 0.15853,-0.09103 0.17153,-0.147806 0.27485,-0.377277 0.47558,-0.500806 0.0641,-0.03948 0.15085,-0.04766 0.21136,-0.09103 0.0489,-0.03499 0.0561,-0.102402 0.10564,-0.13659 0.0435,-0.03001 0.11503,-0.01555 0.15852,-0.04556 0.0496,-0.03419 0.0561,-0.102402 0.10566,-0.136589 0.0435,-0.03001 0.11661,-0.01396 0.15853,-0.04556 0.10352,-0.07807 0.17281,-0.184577 0.2642,-0.27316 0.19482,-0.188833 0.40897,-0.384695 0.63411,-0.54633 0.0975,-0.07009 0.22724,-0.104735 0.31705,-0.182113 0.0279,-0.02403 0.0311,-0.06281 0.0529,-0.09103 0.0642,-0.08305 0.15882,-0.10655 0.26422,-0.227637 0.0529,-0.06072 0.15853,-0.07587 0.21136,-0.136579 0.0335,-0.03838 0.0194,-0.0982 0.0529,-0.13659 0.0236,-0.02712 0.0779,-0.02154 0.10566,-0.04556 0.0557,-0.04795 0.05,-0.134117 0.10565,-0.182113 0.0125,-0.01077 0.0404,0.01077 0.0529,0 0.031,-0.02662 0.1281,-0.142781 0.15853,-0.182104 0.0571,-0.07377 0.36859,-0.590746 0.36989,-0.591862 0.0125,-0.01077 0.045,0.01356 0.0529,0 0.0157,-0.02712 -0.0157,-0.0639 0,-0.09103 0.008,-0.01356 0.0404,0.01077 0.0529,0 0.0485,-0.04178 0.2954,-0.545223 0.31706,-0.591853 z"
       id="path8" />
    <path
       style="fill:#de8b01;fill-opacity:1;stroke:none;stroke-width:2.27355;stroke-linejoin:round;stroke-dasharray:none"
       d="m 149.18615,38.490908 c 0.54264,0.03938 1.0422,-0.191415 1.4946,-0.38631 0.33318,-0.143529 0.42098,-0.567656 0.7473,-0.708244 0.0452,-0.01954 0.19288,-0.03739 0.22419,-0.0644 0.0176,-0.01516 -0.0176,-0.04925 0,-0.06441 0.0176,-0.01516 0.0524,0.01 0.0748,0 0.11957,-0.05155 0.17936,-0.206032 0.29891,-0.257538 0.0949,-0.04088 0.44175,-0.05862 0.52312,-0.128772 0.0176,-0.01516 -0.0115,-0.04516 0,-0.06441 0.0837,-0.144197 0.37796,-0.292522 0.52311,-0.38631 0.0856,-0.05533 0.35966,-0.167687 0.44837,-0.19316 0.0709,-0.02034 0.15735,0.02881 0.2242,0 0.0315,-0.01356 0.0413,-0.05474 0.0748,-0.06441 0.0709,-0.02034 0.15735,0.02881 0.22419,0 0.20817,-0.08963 0.42821,-0.09371 0.67257,-0.128774 0.15204,0.02234 0.24211,-0.1061 0.37365,-0.128762 0.18101,-0.03121 0.42102,-0.01366 0.59783,-0.06441 0.0529,-0.01516 0.0945,-0.05653 0.14947,-0.06441 0.27028,-0.03878 0.54937,0.02353 0.82203,0 0.15285,-0.01316 1.86392,-0.325652 2.0177,-0.19316 0.0176,0.01516 -0.0176,0.04925 0,0.06441 0.0434,0.03739 0.23613,0.03729 0.29892,0.0644 0.13996,0.06032 0.30226,0.215583 0.44838,0.257547 0.0472,0.01356 0.10796,-0.02383 0.14946,0 0.0463,0.02662 0.0352,0.09481 0.0748,0.128763 0.0176,0.01516 0.0571,-0.01515 0.0748,0 0.004,0.004 0.20644,0.291375 0.22417,0.321934 0.0299,0.05155 -0.0299,0.141644 0,0.19315 0.0115,0.01924 0.0572,-0.01516 0.0748,0 0.0529,0.04556 -0.0414,0.139591 0,0.19316 0.0308,0.03998 0.11856,0.02443 0.14946,0.06441 0.0483,0.06252 0.0137,0.204964 0.0748,0.257546 0.0176,0.01516 0.0572,-0.01516 0.0748,0 0.0176,0.01516 -0.0176,0.04925 0,0.06441 0.18184,0.156679 0.76557,0.06441 0.97148,0.06441 0.13081,0 0.5458,0.05463 0.67258,0 0.0315,-0.01356 0.0413,-0.05474 0.0748,-0.06441 0.0472,-0.01356 0.10798,0.02383 0.14947,0 0.0464,-0.02662 0.0438,-0.08883 0.0748,-0.128764 -0.007,-0.127557 0.11004,-0.03041 0.14946,-0.06441 0.0176,-0.01515 -0.0176,-0.04925 0,-0.06441 0.0433,-0.03729 0.25559,-0.09143 0.29891,-0.128773 0.004,-0.004 0.14658,-0.188195 0.14946,-0.19316 0.1555,-0.267956 -0.004,0.06879 0.14947,-0.06441 0.0176,-0.01515 -0.0176,-0.04925 0,-0.06441 0.0469,-0.04038 0.31586,-0.01465 0.37363,-0.0644 0.15463,-0.133221 -0.23627,0.005 0.0748,-0.128773 0.0812,-0.035 0.41824,-0.03838 0.44839,-0.06441 0.0176,-0.01516 -0.0223,-0.05474 0,-0.06441 0.0669,-0.02881 0.17134,0.04556 0.22418,0 0.15462,-0.13321 -0.23628,0.005 0.0748,-0.128774 0.0256,-0.01097 0.51967,-0.125801 0.52311,-0.128762 0.0393,-0.0339 0.0354,-0.09481 0.0748,-0.128774 0.0577,-0.04975 0.28283,-0.02532 0.37365,-0.06441 0.17729,-0.07637 0.40607,-0.110547 0.59785,-0.193159 0.0315,-0.01356 0.0405,-0.05703 0.0748,-0.06441 0.0725,-0.01565 0.15168,0.01565 0.22419,0 0.0341,-0.007 0.0431,-0.05085 0.0748,-0.06441 0.0446,-0.01924 0.11421,0.03041 0.14946,0 0.0176,-0.01516 -0.0176,-0.04925 0,-0.06441 0.0499,-0.04298 0.0996,0.04297 0.14946,0 0.0176,-0.01516 -0.0176,-0.04925 0,-0.06441 0.0529,-0.04556 0.15169,0.01565 0.2242,0 0.13013,-0.02801 0.25862,-0.06929 0.37364,-0.128773 0.14606,-0.07547 0.76754,-0.538553 0.97149,-0.450696 0.26864,0.115721 0.16677,0.208074 0.29891,0.321923 0.0557,0.04795 0.15666,0.02951 0.2242,0.06441 0.29045,0.150149 0.0318,0.100937 0.22419,0.321923 0.0335,0.03838 0.11005,0.03051 0.14946,0.06441 0.0788,0.0679 0.0877,0.177687 0.14945,0.257547 0.0391,0.05055 0.11795,0.07447 0.14946,0.128773 0.19732,0.339989 0.21185,0.74604 0.37366,1.094554 0.0523,0.112662 0.17677,0.219809 0.22418,0.321923 0.17388,0.374515 0.53575,1.898888 0.37366,2.31789 -0.11283,0.291654 -0.0212,0.009 -0.14946,0.193149 -0.24786,0.355912 -0.39056,0.613967 -0.82204,0.837018 -0.17989,0.09303 -0.22241,0.02452 -0.37364,0.128772 -0.27974,0.192802 -0.24156,0.257538 -0.59785,0.257538 -1.14877,0 -2.29284,-0.01 -3.43758,-0.06441 -0.80149,-0.03838 -0.37367,-0.07926 -1.12094,-0.128764 -0.83573,-0.05543 -1.71494,-0.01465 -2.54081,0.06441 -0.39381,0.03769 -0.80134,-0.034 -1.19568,0 -0.15077,0.01296 -0.29761,0.05145 -0.44838,0.06441 -0.1735,0.01496 -0.35213,-0.02951 -0.5231,0 -0.34778,0.05992 -0.67193,0.217237 -1.04622,0.257546 -0.19775,0.02134 -0.40127,-0.02821 -0.59785,0 -0.44263,0.06351 -0.89604,0.08036 -1.34513,0.128774 -0.34233,0.03689 -0.70287,-0.02692 -1.04622,0 -0.34993,0.02742 -0.69649,0.0986 -1.04622,0.128763 -0.65761,0.05663 -1.35756,0 -2.0177,0 -0.9779,0 -2.02411,0.07418 -2.98919,-0.06441 -0.26847,-0.03858 -0.55832,-0.008 -0.82204,-0.0644 -0.31443,-0.0677 -0.60369,-0.274905 -0.82203,-0.321933 -0.0408,-0.009 -0.27562,-0.02423 -0.29891,-0.06441 -0.0223,-0.03838 0.0351,-0.0984 0,-0.128764 -0.0354,-0.03041 -0.11421,0.03031 -0.14946,0 -0.0656,-0.05643 -0.0278,-0.305303 -0.0748,-0.38632 -0.25295,-0.435871 0.29699,-1.248082 0.7473,-1.480863 0.20416,-0.105543 0.51298,-0.217168 0.74731,-0.257546 0.0865,-0.01486 0.54779,-0.02124 0.59783,-0.06441 0.0176,-0.01516 0,-0.04288 0,-0.06441 0.12454,-0.02144 0.24909,-0.04287 0.37364,-0.06441 z"
       id="path14" />
    <path
       style="fill:#b36d01;fill-opacity:1;stroke:none;stroke-width:2.27355;stroke-linejoin:round;stroke-dasharray:none"
       d="m 169.21376,18.016288 0.22419,22.98566 -2.76499,-0.128773 c 0,0 -2.01772,-18.027967 0.14944,-22.663727 2.16717,-4.63576 3.06393,5.98786 3.06393,5.98786 l 0.59784,-5.60155 z"
       id="path17" />
    <path
       id="path4-1"
       style="fill:none;fill-opacity:1;stroke:#000000;stroke-width:2.24477;stroke-linejoin:round;stroke-dasharray:none"
       inkscape:transform-center-x="-7.899699e-06"
       inkscape:transform-center-y="-2.5667082"
       d="m 146.04547,17.963945 5.90762,7.699919 2.95381,3.850219 -2.95381,3.850219 -5.90762,7.699919 h 11.81524 11.81583 16.06729 V 17.963945 l -16.06729,-10e-6 h -11.81582 z" />
    <path
       id="path4-9"
       style="fill:#ffa204;fill-opacity:1;stroke:#000000;stroke-width:2.24477;stroke-linejoin:round;stroke-dasharray:none"
       inkscape:transform-center-x="1.0661148e-05"
       inkscape:transform-center-y="2.5667074"
       d="m 354.15821,41.064211 -5.90762,-7.699919 -2.95381,-3.850219 2.95381,-3.850219 5.90762,-7.699919 h -11.81525 -11.81583 -16.06728 v 23.100276 l 16.06728,1e-5 h 11.81582 z" />
    <path
       style="fill:#f19902;fill-opacity:1;stroke:none;stroke-width:2.27355;stroke-linejoin:round;stroke-dasharray:none"
       d="m 329.43461,33.404451 c 0.13211,-0.193708 0.41168,-0.201634 0.59783,-0.321933 0.15486,-0.10007 0.39049,-0.272053 0.52309,-0.38631 0.0177,-0.01516 -0.0177,-0.04925 0,-0.06441 0.0353,-0.03031 0.10488,0.01924 0.14948,0 0.0558,-0.02403 0.27438,-0.107646 0.29891,-0.128773 0.0175,-0.01516 -0.0177,-0.04915 0,-0.06441 0.10101,-0.08704 0.505,-0.11317 0.59783,-0.193149 0.0178,-0.01516 -0.0223,-0.05483 0,-0.06441 0.0919,-0.03958 0.21087,-0.01884 0.29892,-0.06441 0.0478,-0.02472 0.0303,-0.09998 0.0748,-0.128773 0.0725,-0.04676 0.38741,-0.07617 0.44839,-0.128774 0.0996,-0.08584 -0.15853,-0.06182 0.0748,-0.128763 0.0717,-0.02064 0.22717,0.03091 0.29891,0 0.35801,-0.154227 0.87111,-0.179062 1.27039,-0.06441 0.0473,0.01356 0.10489,-0.01924 0.14945,0 0.063,0.02712 0.0827,0.10957 0.14948,0.128763 0.0709,0.02034 0.15733,-0.02881 0.22416,0 0.13651,0.05882 0.33787,0.209939 0.4484,0.257546 0.0452,0.01954 0.19289,0.03739 0.22417,0.06441 0.0177,0.01516 -0.008,0.04406 0,0.06441 0.0514,0.13293 0.16123,0.149042 0.22422,0.257536 0.03,0.05155 -0.03,0.141655 0,0.193161 0.0156,0.02712 0.0662,0.03499 0.0748,0.06441 0.0779,0.268524 -0.0647,0.532301 0.0748,0.77263 0.03,0.05155 -0.03,0.141645 0,0.19315 0.0315,0.05433 0.11798,0.07447 0.14947,0.128773 0.0397,0.06839 0.008,0.20015 0.0748,0.257547 0.0175,0.01515 0.0571,-0.01516 0.0747,0 0.0996,0.08584 -0.0996,0.429231 0,0.515084 0.0178,0.01515 0.0572,-0.01516 0.0748,0 0.0175,0.01515 -0.0247,0.0644 0,0.0644 0.0248,0 -0.0178,-0.04925 0,-0.0644 0.0175,-0.01516 0.0608,0.01784 0.0748,0 0.20456,-0.264357 0.0448,-0.501964 0.14945,-0.772631 0.0388,-0.100208 0.23492,-0.404784 0.29895,-0.515083 0.0652,-0.112433 0.17794,-0.009 0.22417,-0.128773 0.0156,-0.04068 -0.0159,-0.08804 0,-0.128774 0.0294,-0.07627 0.18217,-0.120757 0.22418,-0.19315 0.0477,-0.08216 0.10195,-0.21657 0.14948,-0.257546 0.29166,-0.251276 0.0402,0.01486 0.22417,-0.06441 0.0629,-0.02712 0.0864,-0.101625 0.14948,-0.128774 0.12712,-0.05473 0.15167,0.06252 0.29891,-0.0644 0.0175,-0.01516 -0.0177,-0.04925 0,-0.06441 0.0346,-0.02971 0.17905,0.01944 0.22418,0 0.1481,-0.06381 0.12915,-0.01565 0.29892,-0.06441 0.0335,-0.01 0.0413,-0.05483 0.0748,-0.06441 0.15694,-0.04506 0.36618,0.04506 0.52312,0 0.0335,-0.01 0.0413,-0.05483 0.0748,-0.06441 0.16448,-0.04726 0.42062,0 0.59786,0 0.38027,0 0.74884,0.01097 1.12093,0.06441 0.41747,0.05992 0.81038,0.255533 1.19569,0.321923 0.16243,0.02801 0.43023,0.173161 0.5231,0.193161 0.0725,0.01565 0.15171,-0.01565 0.22418,0 0.0343,0.007 0.0413,0.05474 0.0748,0.06441 0.0709,0.02034 0.15735,-0.02881 0.22422,0 0.342,0.147338 -0.31713,-0.02672 0.22418,0.128773 0.17724,0.05095 0.36018,0.05862 0.52309,0.128774 0.0623,0.02682 0.25153,-0.04088 0.29893,0 0.0177,0.01516 -0.0175,0.04925 0,0.0644 0.0199,0.01705 0.19343,0 0.2242,0 0.12632,0 1.17181,0.02054 1.19566,0 0.0178,-0.01516 -0.0177,-0.04925 0,-0.0644 0.0314,-0.02702 0.1789,-0.04486 0.22421,-0.06441 0.31101,-0.133977 -0.0799,0.004 0.0747,-0.128773 0.0736,-0.06331 1.43479,-0.103031 1.56935,-0.06441 0.24824,0.07129 0.24592,0.175203 0.37365,0.321923 0.0748,0.08584 0.22981,0.103878 0.29892,0.19316 0.0276,0.03569 -0.0276,0.09302 0,0.128773 0.0309,0.03988 0.11005,0.03041 0.14943,0.06441 0.0393,0.0339 0.0355,0.09481 0.0748,0.128774 0.0999,0.08614 0.46918,0.211086 0.52311,0.257536 0.0178,0.01516 -0.0115,0.04516 0,0.06441 0.0448,0.07717 0.17256,0.119033 0.22418,0.19316 0.0573,0.08226 0.0781,0.183808 0.14945,0.257537 0.0575,0.05942 0.16809,0.06839 0.22421,0.128773 0.0492,0.05304 0.0343,0.134965 0.0748,0.193161 0.30761,0.441723 0.82342,0.774074 1.19566,1.158939 0.41957,0.433797 0.80642,0.904952 1.19566,1.3521 0.17798,0.204426 0.43357,0.367138 0.59787,0.57947 0.18451,0.238465 0.30201,0.520407 0.44835,0.77262 0.1999,0.344436 0.43036,0.66937 0.59787,1.030177 0.11445,0.246609 0.44566,0.906029 0.29892,1.158939 -0.0315,0.05434 -0.11318,0.07667 -0.14948,0.128774 -0.0437,0.06292 -0.0738,0.256779 -0.14944,0.321923 -0.29167,0.251286 -0.0402,-0.01486 -0.22422,0.0644 -0.12071,0.05205 -0.22729,0.167945 -0.37365,0.19316 -0.50655,0.08734 -1.05277,0.0644 -1.56931,0.0644 -0.43396,0 -0.91324,0.04656 -1.34513,0 -0.12604,-0.01356 -0.24715,-0.05443 -0.37365,-0.0644 -0.14884,-0.01167 -0.30067,0.01954 -0.4484,0 -0.17923,-0.02373 -0.34334,-0.108126 -0.52309,-0.128773 -0.44564,-0.05125 -0.96433,0 -1.41988,0 -0.48436,0 -0.93033,-0.03629 -1.41988,-0.06441 -0.60683,-0.03489 -1.19046,0.06441 -1.79349,0.06441 -0.82204,0 -1.64405,0 -2.46608,0 -0.31436,0 -0.6592,-0.0336 -0.9715,0 -1.11599,0.120189 -2.23949,0.220048 -3.36284,0.321923 -1.05711,0.09591 -2.15285,-0.05713 -3.21341,0 -1.43288,0.07717 0.11899,0.02742 -0.822,0.128773 -0.37978,0.04088 -0.90045,0.03988 -1.27039,0 -0.0782,-0.008 -0.14605,-0.05593 -0.22422,-0.06441 -0.17303,-0.01864 -0.35767,0.04746 -0.52309,0 -0.34169,-0.0981 0.31654,-0.05115 -0.22421,-0.128772 -0.84019,-0.120648 0.49021,0.26956 -0.89675,-0.128764 -0.0669,-0.01924 -0.0864,-0.101624 -0.14945,-0.128773 -0.0223,-0.01 -0.0608,0.01784 -0.0748,0 -0.0437,-0.05643 -0.0394,-0.132453 -0.0748,-0.19316 -0.0315,-0.05433 -0.12717,-0.07119 -0.14945,-0.128773 -0.12269,-0.317138 -0.0743,-0.770886 -0.14945,-1.094554 -0.0264,-0.113329 -0.12036,-0.209102 -0.14948,-0.321923 -0.0575,-0.222991 -0.0552,-1.77497 0,-2.060344 0.0128,-0.0669 0.0499,-0.128773 0.0748,-0.193159 0.0248,-0.128764 0.058,-0.25656 0.0748,-0.38631 0.0166,-0.127986 -0.0294,-0.260039 0,-0.386311 0.0115,-0.04706 0.0612,-0.08226 0.0748,-0.128773 0.0242,-0.08325 -0.0195,-0.173359 0,-0.257547 -0.15694,-0.181115 0.12762,-0.163418 0.14945,-0.257536 0.0195,-0.08414 -0.0123,-0.172363 0,-0.257547 0.0288,-0.197587 0.0941,-0.388434 0.14947,-0.57947 0.0351,-0.121196 -0.0351,-0.265114 0,-0.386309 0.0399,-0.137299 0.2717,-0.79609 0.14944,-0.901405 -0.0177,-0.01515 -0.0571,0.01516 -0.0748,0 -0.0177,-0.01515 0.0178,-0.04925 0,-0.0644 -0.0177,-0.01516 -0.0499,0 -0.0748,0 -0.0996,-0.08584 -0.19929,-0.171696 -0.29891,-0.257538 z"
       id="path11" />
    <path
       style="fill:#de8b01;fill-opacity:1;stroke:none;stroke-width:2.27355;stroke-linejoin:round;stroke-dasharray:none"
       d="m 329.43461,36.237415 c 0.0996,-0.04288 0.19925,-0.08584 0.29891,-0.128774 0,-0.02144 -0.0178,-0.04925 0,-0.06441 0.0284,-0.02463 0.34745,0 0.37366,0 0.42496,0 0.0492,0.02881 0.37364,-0.0644 0.20195,-0.05802 1.47725,-0.03968 1.56932,0 0.0629,0.02712 0.0811,0.114047 0.14945,0.128763 0.0726,0.01565 0.15171,-0.01565 0.2242,0 0.0555,0.01197 0.75451,0.28316 0.82201,0.321934 0.0586,0.03369 0.0908,0.09511 0.14948,0.128773 0.0927,0.05324 0.22014,0.06092 0.29892,0.128763 0.0162,0.01396 0.0602,0.122502 0.0748,0.128774 0.0446,0.01924 0.10488,-0.01924 0.14943,0 0.0223,0.01 -0.0115,0.04516 0,0.06441 0.15552,0.267954 -0.004,-0.06879 0.14948,0.0644 0.0175,0.01516 -0.0177,0.04925 0,0.06441 0.0433,0.03729 0.2556,0.09143 0.29893,0.128774 0.0175,0.01516 -0.0177,0.04925 0,0.06441 0.091,0.07846 0.28259,0.114705 0.37364,0.193159 0.0175,0.01516 -0.0177,0.04925 0,0.06441 0.0351,0.03031 0.10488,-0.01924 0.14945,0 0.19998,0.08614 0.42677,0.315712 0.67257,0.38631 0.0473,0.01356 0.10496,-0.01924 0.14947,0 0.063,0.02712 0.084,0.106231 0.14948,0.128773 0.46314,0.159621 1.6561,-0.267945 1.94296,-0.515083 0.0393,-0.0339 0.0353,-0.09481 0.0748,-0.128774 0.0636,-0.05473 0.16068,-0.07408 0.22417,-0.128772 0.0393,-0.0339 0.0353,-0.09481 0.0748,-0.128764 0.0393,-0.0339 0.1031,-0.03778 0.14943,-0.06441 0.0755,-0.04337 0.25701,-0.314087 0.29893,-0.38632 0.0573,-0.0986 0.13318,-0.05035 0.22421,-0.128763 0.0375,-0.03231 0.0257,-0.215334 0.0748,-0.257547 0.029,-0.02502 0.93766,-0.442372 0.97149,-0.450696 0.23395,-0.05762 0.22899,0.03011 0.44836,-0.06441 0.0817,-0.03519 1.24067,-0.03001 1.34514,0 0.10564,0.03031 0.19549,0.09313 0.29892,0.128774 0.21633,0.07457 0.46657,0.06959 0.67256,0.128772 0.0335,0.01 0.0406,0.05703 0.0748,0.06441 0.0725,0.01565 0.15091,-0.01267 0.22422,0 0.0546,0.009 0.0948,0.05494 0.14944,0.06441 0.55071,0.09491 1.16465,-0.07956 1.71879,0 0.22509,0.03231 0.44695,0.101007 0.67256,0.128773 0.24669,0.03041 0.44971,0.0328 0.67257,0.128774 0.19582,0.08434 0.17678,0.345452 0.22419,0.38631 0.0353,0.03041 0.11421,-0.03031 0.14946,0 0.0169,0.01446 0.038,0.225891 0.0748,0.257546 0.0178,0.01516 0.0571,-0.01516 0.0748,0 0.0175,0.01516 -0.0115,0.04516 0,0.06441 0.003,0.004 0.43752,0.441354 0.44836,0.450696 0.0393,0.0339 0.11006,0.03041 0.14948,0.06441 0.15461,0.13322 -0.23628,-0.005 0.0748,0.128774 0.0591,0.02542 0.16114,-0.01814 0.22418,0 0.0529,0.01515 0.0953,0.05274 0.14946,0.0644 0.11247,0.02423 0.26321,-0.03171 0.37364,0 0.0529,0.01516 0.0954,0.05275 0.14947,0.06441 0.0484,0.01047 0.10488,-0.01924 0.14946,0 0.063,0.02712 0.0908,0.09511 0.14947,0.128774 0.0414,0.02383 0.11421,-0.03031 0.14946,0 0.0178,0.01516 -0.0177,0.04925 0,0.06441 0.0223,0.01924 0.28927,-0.002 0.29892,0 0.31263,-0.11659 0.0864,0.101624 0.14945,0.128773 0.0446,0.01924 0.10215,-0.01356 0.14946,0 0.0744,0.02134 0.14976,0.107398 0.22419,0.128773 0.0472,0.01356 0.10111,-0.01037 0.14947,0 0.22912,0.04935 0.48139,0.110807 0.67257,0.19315 0.0996,0.04297 0.27398,-0.04287 0.37365,0 0.0315,0.01356 0.0497,0.04297 0.0747,0.06441 0.0499,0 0.10111,-0.01037 0.14947,0 0.14201,0.03061 0.80027,0.303179 0.89675,0.38632 0.0636,0.05473 0.0794,0.144815 0.14947,0.193149 0.0616,0.04238 0.16118,0.02363 0.22418,0.06441 0.0446,0.02881 0.0312,0.0988 0.0748,0.128774 0.087,0.05992 0.21194,0.06879 0.29893,0.128773 0.17478,0.120478 0.40475,0.681444 0.22416,0.837007 -0.0393,0.0339 -0.11004,0.03051 -0.14943,0.06441 -0.0177,0.01515 0,0.04297 0,0.0644 -0.0248,0.02144 -0.0466,0.04616 -0.0748,0.0644 -0.64673,0.417916 -1.28091,0.450697 -2.09245,0.450697 -0.66874,0 -1.28182,0.155184 -1.94296,0.19316 -0.34797,0.02004 -0.69839,-0.02144 -1.04622,0 -0.62343,0.03838 -1.24371,0.09711 -1.86823,0.128774 -0.62562,0.03171 -1.75119,0.06132 -2.39137,0 -0.12624,-0.01207 -0.24717,-0.05443 -0.37365,-0.0644 -0.71139,-0.05573 -1.45404,0 -2.16718,0 -0.91245,0 -1.85601,-0.06022 -2.765,0 -0.5494,0.03639 -1.09193,0.09711 -1.64407,0.128774 -0.76766,0.04406 -1.55064,-0.06002 -2.31661,0 -0.12648,0.01 -0.24726,0.05353 -0.37366,0.0644 -0.51758,0.04456 -1.0524,-0.04945 -1.56932,0 -0.0783,0.008 -0.14603,0.05593 -0.22416,0.06441 -0.4989,0.05374 -1.83827,0.06769 -2.24193,-0.193149 -0.19265,-0.124486 -0.41274,-0.260568 -0.52309,-0.450697 -0.0776,-0.133789 0,-1.822857 0,-2.060344 0,-0.124286 -0.0193,-1.786047 0,-1.802796 0.0175,-0.01516 0.0636,0.01924 0.0748,0 0.0487,-0.08394 -0.0786,-0.38297 0,-0.450697 0.0177,-0.01516 0.0499,0 0.0748,0 0.0748,-0.08584 0.14947,-0.171694 0.22422,-0.257546 z"
       id="path16" />
    <path
       style="fill:#b36d01;fill-opacity:1;stroke:none;stroke-width:2.27355;stroke-linejoin:round;stroke-dasharray:none"
       d="m 329.03447,40.682577 -0.2242,-22.985659 2.76501,0.128772 c 0,0 2.0177,18.027967 -0.14946,22.663727 -2.16716,4.63576 -3.06392,-5.98786 -3.06392,-5.98786 l -0.59784,5.60155 z"
       id="path17-8" />
    <path
       id="path4-9-7"
       style="fill:none;fill-opacity:1;stroke:#000000;stroke-width:2.24477;stroke-linejoin:round;stroke-dasharray:none"
       inkscape:transform-center-x="1.0661148e-05"
       inkscape:transform-center-y="2.5667074"
       d="m 354.15821,41.064211 -5.90762,-7.699919 -2.95381,-3.850219 2.95381,-3.850219 5.90762,-7.699919 h -11.81525 -11.81583 -16.06728 v 23.100276 l 16.06728,1e-5 h 11.81582 z" />
    <rect
       style="fill:#ffa204;fill-opacity:1;stroke:#000000;stroke-width:2.27355;stroke-linejoin:round;stroke-dasharray:none"
       id="rect3-7"
       width="159.18037"
       height="28.69026"
       x="169.67654"
       y="15.168949" />
    <path
       style="fill:#f19902;fill-opacity:1;stroke:none;stroke-width:2.27355;stroke-linejoin:round;stroke-dasharray:none"
       d="m 169.8116,27.159045 c 0.19386,-0.394855 0.4665,-0.71605 0.89676,-0.901393 0.0892,-0.03838 0.22846,0.06072 0.29892,0 0.0351,-0.03041 -0.0351,-0.0984 0,-0.128774 0.0395,-0.0341 0.38684,0 0.44837,0 0.79712,0 1.59424,0 2.39136,0 0.48187,0 0.68658,0.462771 1.04622,0.77263 0.0351,0.03031 0.11421,-0.03041 0.14946,0 0.0844,0.07279 0.18759,0.419151 0.29892,0.515083 0.0352,0.03031 0.11422,-0.03031 0.14946,0 0.0351,0.03031 -0.0223,0.09033 0,0.128764 0.16524,0.284725 0.0928,0.03998 0.29892,0.128773 0.62202,0.267955 -0.15978,-0.009 0.14947,0.257547 0.30924,0.266429 -0.0121,-0.407148 0.2989,0.128773 0.0441,0.07607 0.24935,0.472362 0.29893,0.515084 0.0351,0.03031 0.11422,-0.03031 0.14946,0 0.0353,0.03031 -0.0351,0.0984 0,0.128772 0.0353,0.03031 0.11422,-0.03041 0.14946,0 0.0351,0.03031 0,0.08584 0,0.128764 0.0499,0.04297 0.0908,0.09511 0.14945,0.128774 0.0927,0.05324 0.22015,0.06092 0.29894,0.128772 0.0351,0.03031 -0.0352,0.0984 0,0.128774 0.24277,0.209162 1.96407,0.380248 2.39135,0.257537 0.0669,-0.01924 0.0864,-0.101626 0.14945,-0.128774 0.15942,-0.06869 0.43842,0.06869 0.59785,0 0.21764,-0.09371 0.31999,-0.07348 0.44838,-0.128763 0.25186,-0.108504 0.28924,-0.297697 0.59784,-0.38632 0.0945,-0.02712 0.22845,0.06072 0.2989,0 0.0351,-0.03031 -0.0351,-0.0984 0,-0.128764 0.0748,-0.06441 0.37366,0.06441 0.4484,0 0.0351,-0.03041 -0.0353,-0.0984 0,-0.128772 0.0705,-0.06072 0.20979,0.03838 0.2989,0 0.26532,-0.114298 0.48199,-0.272014 0.7473,-0.386321 0.19278,-0.08305 0.57197,-0.05324 0.7473,-0.128763 0.0996,-0.04297 0.0497,-0.214625 0.14947,-0.257547 0.12782,-0.05503 0.32055,-0.07368 0.44837,-0.128773 0.18905,-0.08146 0.25932,-0.304865 0.44839,-0.38631 0.13368,-0.05763 0.3147,0.05763 0.44837,0 0.28721,-0.123728 0.4601,-0.391365 0.7473,-0.515084 0.0617,-0.02652 1.11397,-0.243468 1.19568,-0.257546 0.16751,-0.02881 1.34468,-0.386709 1.4946,-0.257536 0.21744,0.187347 0.20581,0.918292 0.29893,1.158939 0.10809,0.279471 0.35633,0.584236 0.44837,0.901393 0.0242,0.08325 -0.0553,0.186112 0,0.257548 0.12207,0.157766 0.37185,0.05972 0.44837,0.257536 0.0315,0.08146 -0.0315,0.176101 0,0.257546 0.25723,0.664854 3.224,0.643857 3.88596,0.643857 0.15267,0 2.02456,0.09362 2.2419,0 0.12604,-0.05433 0.16809,-0.212452 0.29892,-0.257546 0.78497,-0.270518 0.14684,0.259221 0.7473,-0.128774 0.60086,-0.388254 1.34413,-0.997754 2.09244,-1.15894 0.73428,-0.158155 1.51797,-0.331993 2.24189,-0.643856 0.48492,-0.208893 0.85558,-0.561724 1.34514,-0.772621 0.48611,-0.209411 0.35552,-0.03251 0.74729,-0.257546 0.0586,-0.0337 0.0827,-0.109571 0.14947,-0.128774 0.23632,-0.06789 0.50302,0.04208 0.7473,0 0.97008,-0.167158 -0.3331,-0.128762 0.59783,-0.128762 0.4033,0 1.63725,-0.01177 1.64407,0 0.0446,0.07677 -0.0315,0.1761 0,0.257536 0.0929,0.240239 0.25104,0.21631 0.44837,0.38632 0.0705,0.06072 -0.0705,0.196829 0,0.257537 0.0351,0.03031 0.12718,-0.03838 0.14947,0 0.0842,0.145234 0.0838,0.474106 0.14946,0.643856 0.11952,0.308953 1.12465,1.707822 1.34514,1.802797 0.089,0.03838 0.216,-0.04766 0.29891,0 0.0927,0.05324 0.0707,0.18967 0.14946,0.257547 0.0691,0.05952 0.35814,-0.03888 0.44837,0 0.41858,0.180318 0.84546,0.300208 1.34515,0.38631 0.54562,0.09401 1.26547,-0.151655 1.79352,0 0.10565,0.03031 0.18967,0.10995 0.29892,0.128773 0.14655,0.02522 0.30659,-0.04068 0.44838,0 0.0472,0.01356 -0.0446,0.109571 0,0.128773 0.089,0.03838 0.20439,-0.02712 0.2989,0 0.0669,0.01924 0.0864,0.101626 0.14947,0.128763 0.3244,0.139751 0.72181,0.117797 1.04623,0.257548 0.12602,0.05433 0.16523,0.219151 0.29891,0.257536 0.18905,0.05434 0.40244,-0.0337 0.59783,0 0.0691,0.01187 0.0827,0.109581 0.14947,0.128774 0.29485,0.08464 4.25816,0.04855 4.48379,0 0.27851,-0.06002 0.50917,-0.317916 0.7473,-0.38631 0.0945,-0.02712 0.2044,0.02712 0.29891,0 0.46653,-0.133979 -0.0499,-0.08584 0.14947,-0.257548 0.14497,-0.124895 0.81372,-0.500755 0.89675,-0.643857 0.0223,-0.03838 -0.0351,-0.0984 0,-0.128762 0.0351,-0.03041 0.0996,0 0.14947,0 0.0497,-0.04287 0.11039,-0.07826 0.14945,-0.128774 0.33537,-0.433428 0.62631,-0.913657 1.19568,-1.158939 0.21458,-0.09243 0.48458,-0.329731 0.7473,-0.386321 0.44194,-0.09521 0.17445,0.144826 0.59784,-0.128763 0.11271,-0.07289 0.17289,-0.20325 0.29892,-0.257547 0.089,-0.03838 0.20439,0.02712 0.29892,0 0.39513,-0.113479 0.78567,-0.426768 1.19568,-0.515083 0.145,-0.03121 0.31469,0.05763 0.44838,0 0.24833,-0.106988 0.4517,-0.172652 0.7473,-0.257547 0.22419,-0.06441 0.14945,0.128774 0.44837,0 0.0446,-0.01924 -0.0351,-0.0984 0,-0.128763 0.11144,-0.09601 0.29389,-0.102153 0.44837,-0.128774 0.27467,-0.04736 2.20904,-0.07856 2.39137,0 0.31473,0.135583 0.8739,0.18331 1.04622,0.257537 0.0446,0.01924 -0.0351,0.0984 0,0.128774 0.0705,0.06072 0.22845,-0.06072 0.29892,0 0.0351,0.03031 -0.0351,0.0984 0,0.128773 0.0351,0.03031 0.11421,-0.03031 0.14946,0 0.0351,0.03031 -0.0223,0.09033 0,0.128773 0.0897,0.154527 0.35871,0.231785 0.44837,0.38631 0.16716,0.288036 -0.17572,1.908948 0,2.060344 0.0351,0.03031 0.12719,-0.03838 0.14947,0 0.44193,0.761533 -0.53868,-0.275424 0.14946,0.515083 0.69326,0.796399 0.031,0.07776 0.44837,0.257536 0.13694,0.05902 0.081,0.228055 0.14947,0.257548 0.089,0.03838 0.2098,-0.03838 0.2989,0 0.0996,0.04287 0.0499,0.214614 0.14947,0.257536 0.47421,0.204286 1.09372,0.420258 1.64406,0.515093 0.74726,0.128764 2.59146,0.08514 3.13865,-0.386319 0.15755,-0.135733 0.14138,-0.379342 0.29893,-0.515084 0.15753,-0.135733 0.4403,-0.121804 0.59783,-0.257537 0.0534,-0.04596 0.5797,-0.756987 0.59784,-0.77263 0.0233,-0.02004 0.42508,-0.237457 0.44838,-0.257546 0.45875,-0.395244 -0.0874,-0.107069 0.14945,-0.515083 0.0223,-0.03838 0.11422,0.03031 0.14947,0 0.0996,-0.08584 -0.0588,-0.542531 0,-0.643858 0.0499,-0.08584 0.24911,-0.04287 0.29893,-0.128773 0.17365,-0.299231 -0.5264,0.04038 0.2989,-0.38631 0.13511,-0.06989 0.30748,-0.06809 0.44839,-0.128773 0.063,-0.02712 0.0811,-0.114047 0.14946,-0.128773 0.5469,-0.117797 1.30941,0.06162 1.64405,-0.515084 0.16545,-0.285074 0.14575,-1.286108 0.14947,-1.287713 0.25949,-0.111784 1.63652,0.04506 2.24189,-0.128763 0.48489,-0.139262 1.23748,0.597475 1.64405,0.772619 0.30831,0.132822 1.16266,0.10033 1.4946,0.38632 0.0353,0.03031 -0.0351,0.0984 0,0.128774 0.16615,0.14314 0.4336,-0.154247 0.59785,0.128763 0.28324,0.488095 0.61652,1.06238 0.89675,1.545261 0.0446,0.07677 -0.0705,0.196838 0,0.257536 0.0353,0.03041 0.11421,-0.03031 0.14946,0 0.0419,0.03609 0.27165,0.444595 0.29893,0.515083 0.0315,0.08146 -0.0446,0.180767 0,0.257547 0.0223,0.03838 0.11421,-0.03031 0.14945,0 0.0153,0.01316 0.1309,0.491095 0.14945,0.515083 0.0603,0.07796 0.44526,0.252153 0.4484,0.257547 0.0446,0.07677 -0.0705,0.196838 0,0.257536 0.008,0.007 1.61076,0.375563 1.64404,0.38632 0.20863,0.0674 0.38035,0.215902 0.59785,0.257538 0.24317,0.04656 0.50069,-0.03031 0.74729,0 0.1608,0.01974 0.39363,0.216748 0.59784,0.128772 0.22891,-0.0986 0.11689,-0.22947 0.29892,-0.38631 0.0788,-0.0679 0.23209,-0.05195 0.29893,-0.128772 0.0945,-0.108595 0.055,-0.277727 0.14944,-0.386311 0.0308,-0.03539 0.95907,-0.606309 1.04623,-0.643856 0.36812,-0.158584 -0.13491,0.373788 0.44837,-0.128774 0.18205,-0.156839 0.0701,-0.287706 0.29893,-0.38632 0.14091,-0.06072 0.32535,-0.04397 0.44837,-0.128763 0.37263,-0.256839 0.59704,-0.836129 0.89677,-1.15894 -0.36881,-0.38986 0.40655,-0.221495 0.44837,-0.257547 0.0353,-0.03031 -0.0351,-0.0984 0,-0.128773 0.11075,-0.09541 0.41233,0.03111 0.59784,-0.128773 0.0788,-0.06789 0.0707,-0.189671 0.14946,-0.257537 0.23987,-0.20666 0.64608,-0.149551 0.89676,-0.257547 0.12605,-0.05434 0.16808,-0.212452 0.29891,-0.257537 0.13878,-0.04786 0.3034,0.03121 0.4484,0 0.17425,-0.03749 0.27796,-0.208603 0.44837,-0.257546 0.0945,-0.02712 0.20225,0.02084 0.29893,0 0.14945,-0.04288 0.2989,-0.08584 0.44837,-0.128774 0.0499,-0.04287 0.0827,-0.109571 0.14946,-0.128762 0.39548,-0.11358 0.92716,-0.167518 1.34513,-0.257548 0.36939,-0.07956 0.81755,0.04068 1.19569,0 0.24644,-0.02652 2.11544,-0.41602 2.39137,-0.257546 0.3573,0.205234 0.63016,0.490238 1.04621,0.643856 0.18879,0.06969 0.41411,0.04965 0.59783,0.128774 0.12603,0.05433 0.17287,0.203249 0.29893,0.257546 0.39942,0.172074 0.96616,0.223051 1.34513,0.386311 0.12602,0.05433 0.18619,0.184695 0.29891,0.257546 0.14371,0.09283 0.33618,0.13669 0.44839,0.257537 0.35364,0.380866 -0.0433,0.318523 0.29891,0.515083 0.22612,0.12989 0.51254,0.413958 0.74731,0.515093 0.14996,0.06461 0.51759,0.05962 0.59783,0.128764 0.0705,0.06072 -0.0705,0.196839 0,0.257546 0.0411,0.03539 1.09221,0.212981 1.19568,0.257537 0.31822,0.137088 0.65725,0.344426 1.04621,0.38632 0.53265,0.05733 1.40755,-0.153778 1.94297,0 0.55561,0.159571 1.33825,0.2032 1.94299,0.128774 0.62401,-0.07677 3.06485,-1.352899 3.58703,-1.802797 0.0788,-0.0679 0.0568,-0.204307 0.14948,-0.257547 0.0829,-0.04766 0.20436,0.02712 0.2989,0 0.23632,-0.0679 0.29892,-0.343388 0.44837,-0.515083 0.1217,-0.13978 0.36242,-0.183469 0.44839,-0.257547 0.15755,-0.135732 0.17534,-0.355363 0.29891,-0.515083 0.0782,-0.101017 0.25437,-0.142363 0.29892,-0.257536 0.0315,-0.08146 -0.037,-0.177837 0,-0.257548 0.006,-0.01216 0.85288,-0.882489 0.89678,-0.901403 0.0446,-0.01924 0.11422,0.03041 0.14944,0 0.0352,-0.03031 -0.0223,-0.09033 0,-0.128763 0.0921,-0.158763 0.56305,-0.564485 0.74731,-0.643856 0.27497,-0.118465 0.74029,-0.191645 1.04622,-0.257548 0.71748,-0.154535 0.82568,0.108366 1.34514,0.257548 0.0945,0.02712 0.216,-0.04766 0.29891,0 0.16653,0.09561 0.30488,0.520217 0.44839,0.643856 0.55133,0.475004 0.0603,-0.308374 0.59783,0.38631 0.0553,0.07139 -0.0705,0.196839 0,0.257547 0.0788,0.06789 0.20624,0.07547 0.29892,0.128763 0.1643,0.09441 0.64355,0.851363 0.7473,1.030176 0.0948,0.16324 0.15912,0.652173 0.29892,0.772621 0.0788,0.0679 0.23713,0.04895 0.29892,0.128773 0.0553,0.07139 -0.0315,0.176101 0,0.257547 0.0446,0.115173 0.22073,0.15652 0.2989,0.257536 0.37142,0.479999 0.91941,1.291622 1.64407,1.416487 0.47015,0.08106 2.20333,0.296589 2.69027,0.128773 0.59434,-0.204825 0.94086,-0.791623 1.49461,-1.030167 0.0892,-0.03838 0.20978,0.03838 0.29891,0 0.12605,-0.05433 0.18168,-0.190198 0.29892,-0.257546 0.21138,-0.121405 0.52947,-0.01615 0.74731,-0.128774 0.0954,-0.04935 0.0567,-0.204296 0.14947,-0.257536 0.0829,-0.04766 0.20978,0.03838 0.29891,0 0.17935,-0.07727 0.26901,-0.309052 0.44837,-0.38632 0.57626,-0.248244 2.16518,-0.515083 2.83974,-0.515083 0.76166,0 0.60129,0.477107 0.89674,0.901403 0.57157,0.246211 0.13482,-0.03788 0.29893,0.38631 0.0763,0.197177 0.50769,0.308624 0.59786,0.38631 0.0918,0.07916 0.0987,0.300078 0.29891,0.38632 0.1409,0.06072 0.32233,0.04736 0.44837,0.128763 0.089,0.05763 0.0568,0.204307 0.14946,0.257547 0.15799,0.09073 0.55553,-0.04128 0.7473,0 0.78691,0.169491 0.10415,0.128773 0.89676,0.128773 0.14574,0 1.03428,0.104288 1.19569,0 2.48582,-1.606297 0.0924,-0.07966 1.49458,-1.287713 0.57267,-0.493379 1.21704,-0.919799 1.79353,-1.416487 0.23954,-0.2064 0.26043,-0.418184 0.59783,-0.515083 0.38638,-0.110967 1.80751,-0.11672 2.09244,0.128774 0.33213,0.28616 -0.083,0.271853 0.44839,0.386309 0.14498,0.03121 0.34267,-0.09103 0.44835,0 0.0353,0.03041 -0.0351,0.0984 0,0.128774 0.003,0.003 1.33839,0.513138 1.34514,0.515083 0.14179,0.04068 0.34271,-0.09103 0.44839,0 0.0353,0.03031 -0.0352,0.0984 0,0.128773 0.23428,0.201854 1.04803,0.260677 1.19567,0.515083 0.0446,0.07677 -0.0705,0.19684 0,0.257548 0.0351,0.03031 0.11422,-0.03031 0.14948,0 0.30922,0.266429 -0.47255,-0.01037 0.14943,0.257536 0.0446,0.01924 0.11422,-0.03031 0.14948,0 0.0748,0.06441 -0.0748,0.321933 0,0.38632 0.0352,0.03031 0.12718,-0.03838 0.14947,0 0.0892,0.153569 -0.0483,0.348514 0,0.515083 0.18043,0.621833 0.0711,-0.006 0.29892,0.38631 0.0669,0.115185 -0.0669,0.271136 0,0.38632 0.0223,0.03838 0.11421,-0.03041 0.14943,0 0.0888,0.07657 0.088,0.151445 0.14948,0.257537 0.31102,0.535921 -0.0105,-0.137657 0.29893,0.128774 0.58327,0.50256 -0.0346,0.06919 0.14947,0.38631 0.17025,0.293408 1.76664,1.022459 2.24187,1.158939 0.2162,0.06212 0.94654,0.04287 1.04623,0.128774 0.0351,0.03031 -0.0353,0.0984 0,0.128773 0.0687,0.05922 0.48029,0.206908 0.59783,0.257546 0.0892,0.03838 0.20978,-0.03838 0.29891,0 0.15435,0.0665 0.51614,0.245524 0.59783,0.38631 0.0223,0.03838 -0.0446,0.109571 0,0.128774 0.0891,0.03838 0.20441,-0.02712 0.29893,0 0.28868,0.08295 0.0523,0.218783 0.14947,0.38631 0.0223,0.03838 0.11422,-0.03031 0.14948,0 0.0351,0.03031 -0.0352,0.0984 0,0.128773 0.30923,0.26643 -0.0123,-0.407147 0.2989,0.128774 0.1031,0.177616 -0.181,0.115184 0.14945,0.257536 0.0446,0.01924 0.11421,-0.03031 0.14947,0 0.11928,0.102782 -0.0785,0.508762 0,0.643857 0.24708,0.425772 0.39652,1.153725 0.59784,1.674023 0.0929,0.240239 0.18614,0.320786 0.2989,0.515084 0.15165,0.261304 0,0.978571 0,1.287713 0,0.128773 0.10566,0.295263 0,0.38632 -0.0351,0.03031 -0.12718,-0.03838 -0.14943,0 -0.11804,0.203379 0.084,0.555422 0,0.77262 -0.0223,0.05762 -0.11797,0.07447 -0.14947,0.128773 -0.25906,0.44641 0.25905,1.227624 0,1.674024 -0.0315,0.05434 -0.11794,0.07447 -0.14948,0.128772 -0.0451,0.07777 0.0691,0.32679 0,0.38632 -0.0351,0.03031 -0.11422,-0.03031 -0.14945,0 -0.0353,0.03031 0.0352,0.0984 0,0.128764 -0.0353,0.03041 -0.11421,-0.03031 -0.14947,0 -0.0351,0.03041 0.0223,0.09043 0,0.128773 -0.14747,0.254147 -0.56397,0.406958 -0.74726,0.643857 -0.15463,0.19983 0.25387,0.08375 -0.14948,0.257547 -0.22451,0.09671 -0.50892,0.446618 -0.74731,0.515083 -0.0945,0.02712 -0.2044,-0.02712 -0.29892,0 -0.21195,0.06092 -0.2134,0.312632 -0.29891,0.38631 -0.15654,0.134885 -2.86809,-0.09043 -3.2881,0 -1.45983,0.314436 -3.08894,0.38632 -4.63328,0.38632 -0.53371,0 -1.42533,-0.148663 -1.94297,0 -0.0669,0.01924 -0.0812,0.114048 -0.14945,0.128763 -0.67262,0.144885 -2.43311,0 -3.13865,0 -0.48689,0 -1.3027,0.140957 -1.79353,0 -0.25299,-0.07269 -0.48917,-0.201934 -0.7473,-0.257537 -0.22403,-0.04825 -0.5284,0.06281 -0.74728,0 -0.0669,-0.01924 -0.0827,-0.109581 -0.14947,-0.128772 -0.31386,-0.09013 -0.73236,0.09013 -1.04622,0 -0.44754,-0.128534 -0.89008,-0.159532 -1.34514,-0.257548 -0.23251,-0.05005 -0.5122,0.04048 -0.7473,0 -0.80232,-0.138244 -1.57673,-0.26933 -2.39136,-0.386309 -1.01457,-0.145692 -2.13123,0.173588 -3.13864,0 -0.67281,-0.115933 -2.10793,-0.467706 -2.83975,-0.257547 -1.18472,0.340248 -2.36505,0.50943 -3.58702,0.77263 -0.72501,0.156161 -1.79987,0 -2.54083,0 -1.7935,0 -3.58702,0 -5.38055,0 -0.99518,0 -2.84105,-0.154297 -3.7365,0 -1.43423,0.247148 -3.0078,0.128774 -4.48376,0.128774 -1.08158,0 -2.21216,0.09273 -3.28815,0 -0.25277,-0.02174 -0.4943,-0.108953 -0.74729,-0.128774 -1.14359,-0.08953 -2.45779,0.194586 -3.58702,0 -0.50182,-0.08644 -0.9905,-0.185154 -1.49458,-0.257536 -0.33619,-0.04825 -0.71186,0.05762 -1.04622,0 -0.1545,-0.02662 -0.29151,-0.116481 -0.44839,-0.128774 -1.48816,-0.11656 -3.01792,-0.04706 -4.48379,-0.257547 -1.22783,-0.17631 -2.50994,0.08256 -3.73651,-0.128773 -0.75945,-0.130857 -1.64093,0.161644 -2.39134,0 -0.15285,-0.0329 -0.29243,-0.109571 -0.44839,-0.128763 -1.31167,-0.161446 -3.51388,0 -4.93217,0 -0.93835,0 -2.72523,-0.148505 -3.58704,0 -0.41005,0.07069 -0.7856,0.186879 -1.19567,0.257536 -0.24228,0.04178 -0.67836,-0.09411 -0.89677,0 -0.0446,0.01924 0.0446,0.109582 0,0.128774 -0.50041,0.215582 -1.92694,-0.132223 -2.5408,0 -1.45022,0.312372 -3.12577,0.128773 -4.63326,0.128773 -2.39135,0 -4.78271,0 -7.17406,0 -1.18826,0 -2.74468,0.163888 -3.88596,0 -0.54235,-0.07786 -0.92287,-0.128773 -1.4946,-0.128773 -1.44477,0 -2.88955,0 -4.33432,0 -0.50581,0 -1.31786,0.13661 -1.79352,0 -0.0669,-0.01924 -0.0811,-0.114048 -0.14947,-0.128774 -0.14499,-0.03121 -0.30095,0.02114 -0.44837,0 -1.02803,-0.147616 -1.93302,-0.128773 -2.9892,-0.128773 -1.54442,0 -3.08884,0 -4.63325,0 -0.63588,0 -4.06272,-0.117009 -4.33434,0 -0.49843,0.214725 -0.81871,0.01535 -1.34513,0.128773 -0.58381,0.125753 -1.18878,0.15334 -1.79352,0.257547 -0.32532,0.05603 -0.73343,-0.08983 -1.04622,0 -0.0669,0.01924 -0.0827,0.109571 -0.14946,0.128774 -0.26902,0.07727 -0.62773,-0.07727 -0.89676,0 -1.06437,0.305681 -2.44477,0.128762 -3.58702,0.128762 -2.39137,0 -4.78272,0 -7.17408,0 -0.0619,0 -3.62469,-0.08056 -3.73649,-0.128762 -0.063,-0.02712 -0.0827,-0.109582 -0.14946,-0.128774 -0.5065,-0.145463 -3.77658,0 -4.48378,0 -3.48741,0 -6.9748,0 -10.4622,0 -0.50402,0 -3.66898,0.05812 -3.73649,0 -0.0705,-0.06072 0.0446,-0.180757 0,-0.257547 -0.36478,-0.628563 -0.29892,-1.431133 -0.29892,-2.189106 0,-2.875894 0,-5.751779 0,-8.627673 0,-0.478843 -0.16902,-3.185575 0,-3.476821 0.0315,-0.05434 0.11796,-0.07447 0.14947,-0.128772 0.14039,-0.241935 -0.21681,-0.972152 0,-1.158941 0.0351,-0.03031 0.11421,0.03031 0.14945,0 0.0351,-0.03031 -0.0185,-0.08893 0,-0.128773 0.0828,-0.178225 0.19928,-0.343389 0.29892,-0.515083 z"
       id="path10" />
    <path
       style="fill:#de8b01;fill-opacity:1;stroke:none;stroke-width:2.27355;stroke-linejoin:round;stroke-dasharray:none"
       d="m 170.11052,36.945657 c -0.0245,-0.624265 0.49679,-0.856049 0.7473,-1.287713 0.0223,-0.03838 -0.0352,-0.0984 0,-0.128773 0.0705,-0.06072 0.22847,0.06072 0.29892,0 0.0324,-0.02791 0.12032,-0.244985 0.14946,-0.257537 0.0891,-0.03838 0.20439,0.02712 0.29892,0 0.46651,-0.133977 -0.0499,-0.08584 0.14945,-0.257546 0.14092,-0.121406 0.39856,0 0.59785,0 0.62598,0 2.31878,-0.149611 2.83974,0 1.13255,0.325263 -0.0539,-0.04646 0.29891,0.257546 0.10495,0.09033 0.501,0.07318 0.59784,0.128764 0.0927,0.05324 0.0568,0.204306 0.14945,0.257546 0.083,0.04766 0.2044,-0.02712 0.29893,0 0.0837,0.02403 0.84887,0.561335 0.89676,0.643857 0.0223,0.03838 -0.0351,0.0984 0,0.128773 0.0705,0.06072 0.22845,-0.06072 0.29891,0 0.0389,0.0335 0.38204,0.586699 0.44839,0.643857 0.0705,0.06072 0.25436,-0.07677 0.29891,0 0.0446,0.07677 -0.0446,0.180757 0,0.257537 0.0647,0.111495 0.47732,0.07687 0.59784,0.128773 0.38803,0.167158 -0.12233,0.263389 0.44838,0.38631 0.3624,0.07806 0.663,0.175004 1.04622,0.257547 0.60263,0.1298 1.48192,0 2.09244,0 0.96675,0 1.70778,-0.441226 2.39136,-1.030167 0.0788,-0.0679 0.24909,-0.04288 0.29891,-0.128774 0.0446,-0.07677 -0.0598,-0.188863 0,-0.257546 0.10774,-0.123808 0.30468,-0.164685 0.44839,-0.257537 0.22247,-0.143758 0.36653,-0.382232 0.59784,-0.515082 0.0414,-0.02383 0.11421,0.03031 0.14945,0 0.0788,-0.0679 0.0876,-0.177688 0.14946,-0.257548 -0.0149,-0.255104 0.22015,-0.06092 0.29892,-0.128773 0.0351,-0.03031 -0.0223,-0.09033 0,-0.128773 0.13893,-0.239381 0.52293,-0.418424 0.7473,-0.515083 0.52238,-0.225034 -0.27829,-0.01775 0.14946,-0.38631 0.0705,-0.06072 0.2098,0.03838 0.29892,0 0.0996,-0.04297 0.0499,-0.214616 0.14946,-0.257547 0.0446,-0.01924 0.12718,0.03838 0.14947,0 0.0446,-0.07677 -0.0446,-0.180758 0,-0.257537 0.0497,-0.08584 0.22013,-0.06092 0.2989,-0.128773 0.22051,-0.18998 0.31806,-0.523328 0.59784,-0.643857 0.0446,-0.01924 0.12718,0.03838 0.14946,0 0.0446,-0.07677 -0.0446,-0.180757 0,-0.257537 0.008,-0.01485 0.54992,-0.226579 0.59784,-0.257546 0.11271,-0.07289 0.1681,-0.212452 0.29893,-0.257547 0.13877,-0.04786 0.30658,0.04078 0.44837,0 0.0472,-0.01356 -0.0351,-0.0984 0,-0.128764 0.10565,-0.09103 0.30659,0.04068 0.44838,0 0.0669,-0.01924 0.0864,-0.101624 0.14947,-0.128772 0.0696,-0.03001 2.0764,-0.007 2.09243,0 0.21098,0.09093 0.22184,0.253488 0.29892,0.38631 0.21188,0.365084 0.59564,0.766947 0.7473,1.158939 0.0945,0.244327 -0.0586,0.520089 0,0.772631 0.0218,0.09411 0.11421,0.166489 0.14945,0.257546 0.11167,0.288613 -0.15691,0.759788 0,1.030167 0.15028,0.258932 0.32812,0.926547 0.44839,1.030167 0.0351,0.03041 0.10215,-0.01356 0.14946,0 1.0826,0.310916 -0.23564,-0.03709 0.44837,0.257546 0.47436,0.204346 1.28722,-0.145403 1.79352,0 0.0669,0.01924 0.0827,0.109571 0.14947,0.128764 0.44516,0.127855 1.03929,-0.09811 1.4946,0 0.63506,0.136798 1.28284,0.162751 1.94297,0.257546 0.39166,0.05623 0.98989,0.233279 1.34514,0.38631 0.063,0.02712 0.0827,0.109581 0.14947,0.128773 0.22668,0.0651 1.40891,0.101297 1.64403,0 0.0446,-0.01924 0,-0.08584 0,-0.128773 0.0499,-0.04288 0.0827,-0.109571 0.14947,-0.128763 0.10786,-0.03101 0.66334,-0.05643 0.7473,-0.128774 0.0351,-0.03031 -0.0351,-0.0984 0,-0.128773 0.0788,-0.0679 0.22015,-0.06092 0.29894,-0.128773 0.0897,-0.07727 0.12228,-0.284855 0.2989,-0.386311 0.23728,-0.13628 1.06781,-0.27614 1.19567,-0.386309 0.0353,-0.03041 -0.0351,-0.0984 0,-0.128774 0.0705,-0.06072 0.22847,0.06072 0.29893,0 0.0837,-0.07209 0.0859,-0.19636 0.29893,-0.257546 0.20378,-0.05852 0.99268,-0.08744 1.19567,0 0.26589,0.114546 0.55227,0.134266 0.7473,0.38632 0.0618,0.07986 0.0707,0.18967 0.14947,0.257537 0.0351,0.03041 0.0996,0 0.14944,0 0.0996,0.08584 0.21438,0.160417 0.29893,0.257546 0.0669,0.07677 0.0707,0.18967 0.14946,0.257537 0.0748,0.0644 0.22418,0.0644 0.29891,0.128773 0.0691,0.05952 -0.0451,0.308563 0,0.38631 0.1305,0.224865 0.35592,0.01854 0.44839,0.257547 0.38028,0.982938 -0.60826,-0.657316 0.29891,0.515083 0.0277,0.03569 -0.0351,0.0984 0,0.128773 0.0788,0.0679 0.22015,0.06092 0.29893,0.128774 0.0866,0.07467 0.21228,0.440448 0.29891,0.515083 0.30925,0.266431 -0.0121,-0.407147 0.29893,0.128774 0.0223,0.03838 -0.0351,0.0984 0,0.128763 0.0351,0.03041 0.11421,-0.03031 0.14946,0 0.0705,0.06072 -0.0446,0.180767 0,0.257546 0.14125,0.24342 0.49399,0.168076 0.59784,0.257547 0.0978,0.08434 0.0929,0.297576 0.29892,0.38631 0.089,0.03838 0.2098,-0.03838 0.29891,0 1.57478,0.678393 4.86376,0.02841 6.7257,0.257547 0.20334,0.02502 0.39449,0.103738 0.59783,0.128763 0.51767,0.0637 3.3069,-0.07249 3.73649,-0.257537 0.17411,-0.07497 0.27428,-0.182541 0.44838,-0.257546 0.22041,-0.09491 0.87867,0.144366 1.04622,0 0.0351,-0.03031 -0.0351,-0.0984 0,-0.128774 0.035,-0.03021 0.75643,-0.08843 0.89676,-0.128763 0.0669,-0.01924 0.0826,-0.109581 0.14946,-0.128773 0.0945,-0.02712 0.20226,0.02084 0.29892,0 0.72906,-0.157038 0.77527,-0.643857 1.64405,-0.643857 1.19567,0 2.39137,0 3.58704,0 0.38985,0 1.1029,-0.112492 1.4946,0 0.0669,0.01924 0.0826,0.109571 0.14946,0.128774 0.0945,0.02712 0.20225,-0.02084 0.29891,0 0.46267,0.0996 0.17246,0.166409 0.59784,0.386309 0.44889,0.232043 1.05478,0.454386 1.4946,0.643857 0.15942,0.06869 0.43842,-0.06869 0.59783,0 0.20505,0.08834 1.05631,0.491066 1.19569,0.515083 0.53277,0.09183 0.6334,-0.04905 1.04622,0.128774 0.42367,0.182521 1.25287,-0.145204 1.64406,-0.257547 0.37941,-0.108963 0.59173,-0.126142 0.89674,-0.257537 0.16061,-0.06919 0.42492,0.04965 0.59785,0 0.20976,-0.06022 1.39098,-0.554585 1.4946,-0.643856 0.30924,-0.26643 -0.47256,0.01037 0.14945,-0.257547 0.0446,-0.01924 0.11422,0.03041 0.14947,0 0.0674,-0.05803 0.30188,-0.516359 0.59783,-0.643856 0.0446,-0.01924 0.11422,0.03041 0.14947,0 0.0351,-0.03031 -0.0351,-0.0984 0,-0.128764 0.0351,-0.03041 0.10495,0.01924 0.14945,0 0.16807,-0.07239 0.27135,-0.335473 0.44838,-0.38632 0.14179,-0.04068 0.3147,0.05763 0.44839,0 0.1741,-0.07497 0.27428,-0.182542 0.44837,-0.257537 0.0446,-0.01924 0.11422,0.03031 0.14946,0 0.0351,-0.03031 -0.0351,-0.0984 0,-0.128773 0.0115,-0.01 1.88017,0 1.94298,0 0.87214,0 2.02443,0.02343 2.83973,0.257537 0.13451,0.03868 0.31386,-0.03858 0.44838,0 0.60552,0.173907 1.56803,0.820077 2.09243,1.15894 0.16225,0.104844 0.21295,0.312243 0.29893,0.38632 0.024,0.02074 0.53745,0.115763 0.59783,0.128773 0.87037,0.187467 -0.13248,0.01466 0.29893,0.38631 0.0705,0.06072 0.20439,-0.02712 0.29891,0 0.15482,0.04446 0.3001,0.193669 0.44838,0.257547 0.0736,0.03171 1.38468,0.128763 1.49459,0.128763 0.40594,0 0.79857,0.214317 1.1957,0.128773 0.25347,-0.05463 0.82468,-0.271784 1.0462,-0.38631 0.12084,-0.06251 0.17809,-0.195083 0.29893,-0.257546 0.13509,-0.06979 0.32234,-0.04736 0.44837,-0.128774 0.18166,-0.117377 0.36707,-0.480048 0.7473,-0.643856 0.50201,-0.216251 0.97932,-0.367088 1.4946,-0.515083 0.18905,-0.05433 0.40243,0.0337 0.59784,0 0.85719,-0.147707 1.72573,-0.538534 2.54081,-0.772621 0.25637,-0.07358 2.27409,-0.0337 2.39136,0 0.0669,0.01924 0.0864,0.101625 0.14948,0.128764 0.089,0.03838 0.20225,-0.02084 0.29891,0 0.15284,0.0329 0.2939,0.102153 0.44836,0.128773 0.19543,0.0337 0.40452,-0.04168 0.59787,0 0.19867,0.04277 1.1344,0.310328 1.34513,0.128773 0.0351,-0.03031 -0.0446,-0.109571 0,-0.128773 0.0892,-0.03838 0.20437,0.02712 0.29891,0 0.20643,-0.05932 0.15242,-0.291654 0.29893,-0.38631 0.12601,-0.08146 0.31727,-0.05344 0.44838,-0.128773 0.17586,-0.101017 0.27249,-0.285294 0.44835,-0.38631 0.31739,-0.182293 0.76006,-0.268524 1.04622,-0.515093 0.14538,-0.125224 0.27601,-0.425971 0.44838,-0.515084 0.17615,-0.09103 0.40902,-0.05902 0.59785,-0.128763 0.36917,-0.136321 0.70182,-0.337038 1.04622,-0.515094 0.29494,-0.152461 0.57373,-0.607855 0.89675,-0.515083 0.61336,0.176151 0.62822,0.798811 1.04621,1.15894 0.37053,0.319242 0.3935,0.183091 0.74731,0.38632 0.71436,0.410318 1.17582,0.787167 2.09244,1.030167 0.43899,0.11638 0.90519,0.143828 1.34513,0.257546 0.0674,0.01745 0.0864,0.101625 0.14945,0.128764 0.17078,0.07358 0.56816,-0.03091 0.74732,0 0.15449,0.02662 0.2939,0.102153 0.44837,0.128773 0.6547,0.112822 1.95468,-0.202003 2.54082,0 0.16266,0.05603 1.18428,0.495472 1.19567,0.515084 0.0446,0.07677 -0.0315,0.1761 0,0.257546 0.0572,0.147915 0.35683,0.178663 0.44838,0.257537 0.0315,0.02712 0.28834,0.510527 0.29894,0.515093 0.39554,0.170398 1.61971,-0.101825 2.0924,0 0.45864,0.0988 0.88698,0.287626 1.34515,0.38631 0.50164,0.108045 1.38583,0.04686 1.79352,-0.128773 0.14345,-0.06182 0.4543,0.04118 0.59785,0 0.0668,-0.01924 0.0864,-0.101625 0.14945,-0.128774 0.0891,-0.03838 0.20441,0.02712 0.29892,0 0.21139,-0.06072 0.38647,-0.196829 0.59783,-0.257536 0.0472,-0.01356 0.11421,0.03031 0.14947,0 0.363,-0.312761 -0.0445,-0.189092 0.29893,-0.38632 0.13106,-0.07527 0.33696,-0.0328 0.44838,-0.128763 0.363,-0.312762 -0.0445,-0.189093 0.29892,-0.38632 0.29407,-0.168913 0.58202,-0.506011 0.59783,-0.515084 0.47826,-0.274705 0.15146,0.254955 0.44839,-0.128773 0.51871,-0.670378 2.17326,-1.030167 3.13862,-1.030167 1.07054,0 3.06662,-0.417347 4.03543,0 0.089,0.03838 0.22846,-0.06072 0.29891,0 0.0351,0.03031 -0.0351,0.0984 0,0.128773 0.0351,0.03031 0.0996,0 0.14947,0 0.0996,0.08584 0.22075,0.156531 0.29891,0.257537 0.0276,0.03569 -0.0446,0.109581 0,0.128773 0.089,0.03838 0.20441,-0.02712 0.29892,0 0.1717,0.04935 0.20737,0.307437 0.29892,0.38632 0.0177,0.01525 1.95283,0.853278 2.09244,0.901393 0.21745,0.07497 1.44038,0.234187 1.4946,0.257548 0.26035,0.112152 0.70721,0.22613 1.04623,0.128763 0.0669,-0.01924 0.0864,-0.101615 0.14944,-0.128763 0.0891,-0.03838 0.22846,0.06072 0.29891,0 0.0499,-0.04297 0.0996,-0.34339 0.14948,-0.38632 0.19929,-0.171695 0.14342,0.273169 0.29892,-0.128764 0.0315,-0.08146 -0.0315,-0.176101 0,-0.257547 0.1555,-0.401933 0.0996,0.04297 0.29891,-0.128773 0.0351,-0.03031 -0.0276,-0.09302 0,-0.128773 0.0781,-0.101017 0.22075,-0.156521 0.29892,-0.257537 0.0553,-0.07139 -0.0705,-0.196839 0,-0.257547 0.0352,-0.03031 0.11421,0.03041 0.14947,0 0.0497,-0.04287 0.0996,-0.343388 0.14945,-0.38631 0.0918,-0.07916 0.34831,-0.08504 0.44839,-0.257546 0.0452,-0.07806 0.0868,-0.332352 0.14947,-0.386311 0.0351,-0.03031 0.12715,0.03838 0.14945,0 0.0446,-0.07677 -0.0446,-0.180757 0,-0.257546 0.0171,-0.02931 0.39607,-0.122282 0.44837,-0.257537 0.0767,-0.198384 0.019,-0.38632 0.29893,-0.38632 0.59782,0 -0.2491,0.04297 0.14945,-0.128762 0.36493,-0.157208 1.22933,0 1.64407,0 0.0996,0 0.22847,-0.06072 0.29892,0 0.0351,0.03031 -0.012,0.08714 0,0.128762 0.18753,0.646289 0.61354,1.243636 1.04621,1.802797 0.0783,0.101017 0.25435,0.142372 0.29892,0.257547 0.0315,0.08146 -0.0705,0.196839 0,0.257546 0.0705,0.06072 0.20979,-0.03838 0.29892,0 0.12602,0.05433 0.17658,0.197308 0.29892,0.257537 0.61575,0.30316 2.10339,0.54964 2.5408,0.643856 0.11655,0.02512 1.02653,0.274507 1.1957,0.128774 0.72094,-0.621145 0.77776,-1.700285 1.49461,-2.31788 0.21889,-0.188594 0.38727,-0.24297 0.59783,-0.515083 0.14139,-0.182762 0.19551,-0.426011 0.2989,-0.515094 0.0351,-0.03031 0.11422,0.03031 0.14946,0 0.0351,-0.03031 -0.0446,-0.109571 0,-0.128762 0.1009,-0.04347 0.78707,-0.163051 0.89677,-0.257548 0.0351,-0.03031 -0.0352,-0.0984 0,-0.128773 0.14986,-0.129142 1.21624,0 1.49457,0 0.37339,0 1.17051,-0.13961 1.49461,0 0.11967,0.05155 0.17928,0.205992 0.29893,0.257547 0.0446,0.01924 0.11422,-0.03031 0.14948,0 0.0705,0.06072 -0.0705,0.196839 0,0.257536 0.0351,0.03031 0.1142,-0.03031 0.14943,0 0.11681,0.100649 0.10006,0.387636 0.14947,0.515094 0.0223,0.05763 0.12719,0.07119 0.14945,0.128763 0.0315,0.08146 -0.0446,0.180757 0,0.257546 0.0223,0.03838 0.12718,-0.03838 0.14947,0 0.0891,0.15357 -0.0891,0.361516 0,0.515084 0.0223,0.03838 0.11421,-0.03031 0.14944,0 0.0788,0.0679 0.0996,0.171695 0.14948,0.257547 0.0973,0.167636 -0.0517,0.425951 0.14945,0.77262 0.20762,0.357745 -0.12501,1.500714 0,1.93157 0.027,0.09312 0.11421,0.166489 0.14947,0.257546 0.0613,0.158255 0.0657,1.76196 0,1.93157 -0.0223,0.05763 -0.11793,0.07447 -0.14947,0.128764 -0.0597,0.103021 0.0598,0.283299 0,0.38632 -0.0624,0.107537 -0.43912,0.241595 -0.44836,0.257536 -0.0446,0.07677 0.0446,0.180758 0,0.257547 -0.0223,0.03838 -0.11422,-0.03031 -0.14947,0 -0.0351,0.03031 0.0353,0.0984 0,0.128774 -0.0978,0.08434 -1.6653,0.197736 -1.94297,0.257536 -0.30568,0.0658 -0.58412,0.223868 -0.89675,0.257546 -0.42518,0.04576 -3.76703,0.291704 -4.33436,0.128774 -0.0472,-0.01356 0.0472,-0.115204 0,-0.128774 -0.14179,-0.04068 -0.30179,0.02522 -0.44836,0 -0.10923,-0.01884 -0.19083,-0.105493 -0.29891,-0.128772 -0.32824,-0.07069 -0.718,0.07069 -1.04623,0 -0.0684,-0.01476 -0.0811,-0.114048 -0.14947,-0.128774 -0.3595,-0.07747 -0.8274,0.03968 -1.19566,0 -0.90308,-0.09731 -1.8055,-0.130488 -2.69027,-0.257536 -0.14743,-0.02114 -0.29892,0 -0.44839,0 -0.19929,0 -0.40126,0.02821 -0.59783,0 -0.33606,-0.04825 -0.69743,-0.197448 -1.04622,-0.257547 -0.44261,-0.07627 -2.16927,-0.1067 -2.54083,0 -0.0669,0.01924 -0.0811,0.114047 -0.14945,0.128773 -0.32822,0.07069 -0.71801,-0.07069 -1.04621,0 -0.10809,0.02333 -0.18969,0.10995 -0.29893,0.128774 -0.31138,0.05363 -0.45668,-0.03579 -0.7473,0 -0.99816,0.12285 -2.037,0.05245 -2.98919,0.257536 -0.5144,0.110797 -1.26709,0 -1.79353,0 -1.65798,0 -3.43721,-0.157418 -5.08164,0 -0.79222,0.07587 -1.59802,0.195413 -2.39134,0.257546 -1.07106,0.08385 -2.20647,0 -3.28811,0 -0.48027,0 -1.1721,0.101666 -1.64405,0 -0.34537,-0.07437 -0.8636,-0.209859 -1.1957,-0.257546 -0.19656,-0.02821 -0.39977,0.01894 -0.59783,0 -0.50495,-0.04835 -0.98907,-0.213988 -1.49458,-0.257536 -0.29745,-0.02562 -0.6294,0.115173 -0.89678,0 -0.063,-0.02712 -0.0996,-0.08584 -0.14945,-0.128774 -0.14947,0 -0.30338,0.03121 -0.44838,0 -0.0683,-0.01476 -0.0811,-0.114048 -0.14945,-0.128773 -0.56106,-0.120848 -1.55979,0 -2.09244,0 -1.39496,0 -2.78993,0 -4.18489,0 -2.04263,0 -4.08521,0 -6.12785,0 -1.02727,0 -2.12201,-0.08764 -3.13863,0 -0.1568,0.01356 -0.29301,0.10646 -0.44838,0.128773 -0.8729,0.125344 -1.81386,-0.107876 -2.69028,0 -0.15596,0.01924 -0.29298,0.10645 -0.44839,0.128774 -1.14469,0.164375 -2.83717,0 -4.03541,0 -1.14586,0 -2.29171,0 -3.43758,0 -0.55738,0 -1.24847,0.09392 -1.7935,0 -0.10925,-0.01884 -0.18969,-0.10995 -0.29893,-0.128774 -0.29311,-0.05055 -0.60085,0.03639 -0.89676,0 -0.20334,-0.02502 -0.39449,-0.103738 -0.59784,-0.128773 -0.99845,-0.122892 -2.12961,0 -3.13865,0 -2.60865,0 -5.20854,-0.05793 -7.77191,0.257547 -0.15596,0.01924 -0.29242,0.109571 -0.44838,0.128762 -0.53782,0.0662 -0.71416,-0.01 -1.19567,0.128774 -0.25674,0.07377 -4.5783,0.05872 -4.78271,0 -0.56918,-0.16346 -1.06697,-0.02931 -1.64407,-0.128774 -0.10923,-0.01884 -0.19083,-0.105483 -0.2989,-0.128762 -0.29122,-0.06272 -0.78213,0.113767 -1.04623,0 -0.063,-0.02712 -0.0827,-0.109582 -0.14947,-0.128774 -0.0945,-0.02712 -0.20979,0.03838 -0.2989,0 -0.0446,-0.01924 0.0351,-0.0984 0,-0.128773 -0.0905,-0.07796 -0.72717,0 -0.89677,0 -1.74927,0 -3.56596,-0.101117 -5.23108,0.257547 -0.32885,0.07079 -0.71318,-0.05743 -1.04623,0 -0.15448,0.02662 -0.29389,0.102152 -0.44837,0.128762 -0.78176,0.134716 -1.97212,-0.20624 -2.69027,0 -0.0669,0.01924 -0.0811,0.114058 -0.14947,0.128774 -0.68342,0.147208 -2.96194,0 -3.73649,0 -3.9856,0 -7.97119,0 -11.95678,0 -1.68247,0 -3.43785,0.107277 -5.08164,-0.128774 -0.93822,-0.134724 -1.87072,0.03818 -2.83972,-0.128762 -0.41075,-0.07079 -0.9248,0 -1.34514,0 -1.34514,0 -2.69027,0 -4.03542,0 -3.83613,0 -7.67226,0 -11.5084,0 -0.4293,0 -0.44059,0.03051 -0.89674,0.128762 -0.61585,0.132652 -1.4493,0 -2.09245,0 -1.69388,0 -3.38775,0 -5.08163,0 -0.94512,0 -2.66191,0.205383 -3.43757,-0.128762 -0.51224,-0.220668 -1.88114,0.219789 -2.39136,0 -0.063,-0.02712 -0.0864,-0.101626 -0.14946,-0.128774 -0.1568,-0.06759 -0.62801,0.102782 -0.7473,0 -0.0351,-0.03031 0.0352,-0.0984 0,-0.128773 -0.0748,-0.06441 -0.37365,0.06441 -0.44837,0 -0.0996,-0.08584 0.0996,-0.429232 0,-0.515084 -0.0352,-0.03031 -0.11422,0.03031 -0.14947,0 -0.006,-0.005 0,-1.460803 0,-1.802796 0,-0.128774 -0.10565,-0.295264 0,-0.38631 0.0351,-0.03041 0.11421,0.03031 0.14947,0 0.12454,-0.107308 -0.12455,-0.536549 0,-0.643857 0.0351,-0.03031 0.12717,0.03838 0.14945,0 0.0982,-0.169093 0.0799,-0.970296 0.14946,-1.030176 0.0352,-0.03031 0.11421,0.03041 0.14946,0 0.14348,-0.123619 -0.0943,-0.610049 0,-0.772621 0.23865,-0.411215 0.29892,-0.929 0.29891,-1.416487 z"
       id="path15" />
    <rect
       style="fill:none;fill-opacity:1;stroke:#000000;stroke-width:2.27355;stroke-linejoin:round;stroke-dasharray:none"
       id="rect3-7-1"
       width="159.18037"
       height="28.69026"
       x="169.67654"
       y="15.168949" />
    <path
       style="fill:none;fill-opacity:1;stroke:none;stroke-width:2.27355;stroke-linejoin:round;stroke-dasharray:none"
       d="m 152.02589,33.983921 c 2.08689,-0.224755 -0.19532,0.099 0.82203,-0.19316 0.0709,-0.02034 0.15092,0.01266 0.22419,0 0.0998,-0.01715 0.34098,-0.100618 0.37365,-0.128773 0.0176,-0.01515 -0.0223,-0.05483 0,-0.0644 0.0886,-0.03818 0.18977,0.01485 0.37365,-0.06441 0.0949,-0.04088 0.27432,0.02851 0.37365,0 0.16627,-0.04775 0.0833,-0.200578 0.14945,-0.257547 0.0352,-0.03031 0.10496,0.01924 0.14947,0 0.0359,-0.01545 0.0804,-0.326869 0.14946,-0.38631 0.0176,-0.01515 0.0572,0.01516 0.0748,0 0.0314,-0.02702 0.052,-0.154137 0.0748,-0.19316 0.082,-0.141415 0.3742,-0.193628 0.44839,-0.257547 0.0176,-0.01515 -0.0223,-0.05483 0,-0.0644 0.0446,-0.01924 0.10215,0.01356 0.14947,0 0.0885,-0.02542 0.14015,-0.156948 0.22417,-0.193149 0.18023,-0.07767 0.37924,-0.06441 0.59784,-0.06441 0.0662,0 0.25256,-0.01994 0.29893,0 0.0223,0.01 -0.0176,0.04925 0,0.06441 0.0433,0.03729 0.25561,0.09143 0.29891,0.128773 0.0176,0.01516 -0.0176,0.04925 0,0.06441 0.0176,0.01516 0.0524,-0.01 0.0748,0 0.0914,0.03938 0.48953,0.457248 0.5231,0.515094 0.0482,0.08305 0.0309,0.24639 0.0748,0.321924 0.0115,0.01924 0.0572,-0.01516 0.0748,0 0.0351,0.03031 -0.0223,0.09043 0,0.128772 0.037,0.06391 0.12366,0.126461 0.14945,0.193161 0.0593,0.153 -0.0884,0.116939 0.0748,0.257536 0.0176,0.01516 0.0524,-0.01 0.0748,0 0.103,0.04436 0.10059,0.151006 0.14947,0.19316 0.0499,0.04297 0.2491,-0.04287 0.29892,0 0.0217,0.01874 0.0628,0.133868 0.22418,0.0644 0.27585,-0.118833 0.31705,-0.417556 0.44838,-0.643857 0.0315,-0.05434 0.11795,-0.07447 0.14947,-0.128773 0.0314,-0.05403 0.0337,-0.28653 0.0748,-0.321924 0.0176,-0.01516 0.0572,0.01516 0.0748,0 0.15461,-0.133219 -0.23628,0.005 0.0748,-0.128773 0.0223,-0.01 0.0572,0.01516 0.0748,0 0.0176,-0.01515 -0.0176,-0.04925 0,-0.06441 0.0176,-0.01515 0.0572,0.01516 0.0748,0 0.0176,-0.01515 -0.0176,-0.04925 0,-0.0644 0.0351,-0.03031 0.1142,0.03031 0.14946,0 0.0176,-0.01516 -0.0176,-0.04925 0,-0.06441 0.0266,-0.02294 0.22155,-0.06212 0.22418,-0.06441 0.0373,-0.03221 0.0373,-0.09661 0.0748,-0.128774 0.0277,-0.02383 0.25276,-0.04447 0.29893,-0.06441 0.063,-0.02712 0.0864,-0.101614 0.14946,-0.128762 0.0446,-0.01924 0.11421,0.03031 0.14945,0 0.0176,-0.01516 -0.0223,-0.05483 0,-0.06441 0.0598,-0.02572 0.16442,0.02572 0.22419,0 0.20833,-0.08973 0.24438,-0.02044 0.44839,-0.06441 0.54147,-0.116629 1.30251,-0.15325 1.79351,0.128774 0.40423,0.232183 0.10006,0.687565 0.29891,1.030166 0.0223,0.03838 -0.0351,0.0984 0,0.128773 0.0352,0.03031 0.10496,-0.01924 0.14947,0 0.063,0.02712 0.084,0.106222 0.14946,0.128774 0.0953,0.03291 0.20452,0.02951 0.29893,0.06441 0.0825,0.03051 0.14079,0.10004 0.22417,0.128772 0.0706,0.02433 0.24046,0.01396 0.29893,0.06441 0.0249,0.02144 0.0497,0.171695 0.0748,0.193161 0.0176,0.01516 0.0572,-0.01516 0.0748,0 0.0517,0.04457 0.0787,0.166161 0.14945,0.257536 0.11086,0.143299 0.0382,-0.004 0.22419,0.06441 0.55301,0.204207 0.20131,0.19316 0.44838,0.19316 0.28089,0 0.60783,0.05573 0.82204,-0.128774 0.0176,-0.01516 -0.0176,-0.04925 0,-0.06441 0.0176,-0.01515 0.0524,0.01 0.0748,0 0.16523,-0.07119 0.0232,-0.03998 0.0748,-0.128774 0.0473,-0.08146 0.16558,-0.117387 0.2242,-0.193149 0.0793,-0.102512 0.0866,-0.133899 0.22418,-0.193161 0.0945,-0.04068 0.16557,-0.117387 0.22419,-0.193159 0.0137,-0.01785 -0.0223,-0.05484 0,-0.06441 0.0669,-0.02881 0.17135,0.04556 0.2242,0 0.0724,-0.06232 0.022,-0.102204 0.0748,-0.19316 0.003,-0.005 0.53036,-0.238165 0.59784,-0.257547 0.0472,-0.01356 0.10496,0.01924 0.14946,0 0.0223,-0.01 -0.0176,-0.04925 0,-0.06441 0.0223,-0.01924 0.94414,-0.175882 0.97148,-0.128764 0.0223,0.03838 -0.0121,0.08714 0,0.128764 0.0445,0.15317 0.11986,0.362083 0.14946,0.515093 0.101,0.522043 -0.101,1.087595 0,1.609636 0.16474,0.851604 0.35178,1.663027 0.59784,2.511041 0.0868,0.299211 0,0.849897 0,1.158939 0,0.173789 0.007,1.475141 0,1.480864 -0.0176,0.01516 -0.0572,-0.01515 -0.0748,0 -0.0351,0.03041 0.0446,0.10958 0,0.128773 -0.0446,0.01924 -0.51281,0.06312 -0.5231,0.06441 -0.98639,0.121405 0.34786,0.004 -0.37365,0.128774 -0.21419,0.03689 -0.37906,0.01725 -0.59785,0.0644 -0.36276,0.07816 -1.80925,0 -2.24188,0 -0.84694,0 -1.69388,0 -2.54083,0 -0.41269,0 -0.86119,0.04407 -1.2704,0 -1.03248,-0.111195 -2.09427,-0.0644 -3.13865,-0.0644 -0.4896,0 0.0434,-0.02034 -0.44839,0.0644 -0.45508,0.07836 -0.96477,-0.07846 -1.41986,0 -0.0546,0.009 -0.0949,0.05494 -0.14946,0.06441 -0.14656,0.02522 -0.30182,-0.02522 -0.44838,0 -0.0546,0.009 -0.0949,0.05494 -0.14947,0.06441 -0.45783,0.07886 -1.02503,0 -1.49459,0 -1.07113,0 -2.14225,0 -3.21338,0 -0.96324,0 -1.97049,0.07119 -2.91446,-0.06441 -0.13534,-0.01944 -0.39708,0.05423 -0.52311,0 -0.0155,-0.007 -0.36163,-0.247188 -0.37366,-0.257546 -0.0176,-0.01516 0.0176,-0.04925 0,-0.06441 -0.0176,-0.01516 -0.0572,0.01516 -0.0748,0 -0.0176,-0.01516 0.0176,-0.04925 0,-0.06441 -0.0351,-0.03031 -0.11422,0.03041 -0.14945,0 -0.19711,-0.16981 -0.33595,-0.450108 -0.44839,-0.643857 -0.0221,-0.03798 0,-0.149879 0,-0.193149 0,-0.45285 0.33775,-0.45321 0.52311,-0.77263 0.10645,-0.18346 0.0785,-0.293808 0.22419,-0.450696 0.0881,-0.09481 0.19928,-0.171696 0.29892,-0.257548 0.0393,-0.0339 0.12455,-0.02144 0.14946,-0.06441 0.0996,-0.171695 -0.10566,-0.08953 0.0748,-0.19315 0.0654,-0.03768 0.16849,-0.01635 0.2242,-0.06441 0.13636,-0.117487 0.27813,-0.327247 0.37365,-0.450706 0.0664,-0.08584 0.2433,-0.161695 0.29892,-0.257537 0.0115,-0.01924 -0.0176,-0.04925 0,-0.0644 0.0393,-0.0339 0.11004,-0.03041 0.14946,-0.06441 0.0788,-0.0679 0.0826,-0.180757 0.14945,-0.257547 0.13739,-0.157826 0.38129,-0.308145 0.52312,-0.450697 0.0584,-0.05872 0.086,-0.138434 0.14945,-0.193149 0.0458,-0.03948 0.19558,-0.05484 0.22419,-0.128774 0.0157,-0.04078 -0.0277,-0.09302 0,-0.128773 0.0701,-0.09043 0.28846,-0.147448 0.37365,-0.257547 0.0734,-0.09481 0.15796,-0.281434 0.29892,-0.321924 0.0473,-0.01356 0.11421,0.03031 0.14946,0 0.0351,-0.03031 -0.0223,-0.09043 0,-0.128772 0.0115,-0.01924 0.0572,0.01515 0.0748,0 0.21043,-0.004 0.019,-0.145164 0.0748,-0.193161 0.0176,-0.01515 0.0497,0 0.0748,0 0.0249,-0.02144 0.0552,-0.03908 0.0748,-0.06441 0.0797,-0.103049 0.27185,-0.702649 0.29891,-0.772629 z"
       id="path5" />
    <path
       style="fill:#f19902;fill-opacity:1;stroke:none;stroke-width:2.27355;stroke-linejoin:round;stroke-dasharray:none"
       d="m 146.00246,34.647803 -5.90366,3.66998"
       id="path7" />
    <ellipse
       style="fill:#f7d66e;fill-opacity:1;stroke-width:6.9912"
       id="path6"
       cx="175.00893"
       cy="19.631998"
       rx="2.8414733"
       ry="2.1956837" />
    <ellipse
       style="fill:#f7d664;fill-opacity:1;stroke-width:10.6038"
       id="path12"
       cx="181.59599"
       cy="19.631998"
       rx="1.646763"
       ry="1.5176051" />
    <text
       xml:space="preserve"
       style="font-size:21.1667px;font-family:'Lilita One';-inkscape-font-specification:'Lilita One';fill:#808080;fill-opacity:1;stroke-width:1.00012;stroke-linecap:round;stroke-linejoin:round"
       x="232.02696"
       y="-2.8832834"
       id="text1-0"><tspan
         sodipodi:role="line"
         id="tspan1-7"
         style="fill:#808080;fill-opacity:1;stroke-width:1.00012"
         x="232.02696"
         y="-2.8832834">Fazit</tspan></text>
    <text
       xml:space="preserve"
       style="font-size:21.1667px;font-family:'Lilita One';-inkscape-font-specification:'Lilita One';fill:#ffffff;stroke-width:1.00012;stroke-linecap:round;stroke-linejoin:round"
       x="230.60333"
       y="-4.2258048"
       id="text1"><tspan
         sodipodi:role="line"
         id="tspan1"
         style="fill:#ffffff;stroke-width:1.00012"
         x="230.60333"
         y="-4.2258048">Fazit</tspan></text>
  </g>
</svg>
