<?xml version="1.0" encoding="UTF-8" standalone="no"?>
<!-- Created with Inkscape (http://www.inkscape.org/) -->

<svg
   width="1920"
   height="1080"
   viewBox="0 0 507.99999 285.75"
   version="1.1"
   id="svg1"
   inkscape:version="1.3.2 (091e20e, 2023-11-25, custom)"
   sodipodi:docname="background_v2.svg"
   xml:space="preserve"
   inkscape:export-filename="background_v2.png"
   inkscape:export-xdpi="96"
   inkscape:export-ydpi="96"
   xmlns:inkscape="http://www.inkscape.org/namespaces/inkscape"
   xmlns:sodipodi="http://sodipodi.sourceforge.net/DTD/sodipodi-0.dtd"
   xmlns="http://www.w3.org/2000/svg"
   xmlns:svg="http://www.w3.org/2000/svg"><sodipodi:namedview
     id="namedview1"
     pagecolor="#ffffff"
     bordercolor="#000000"
     borderopacity="0.25"
     inkscape:showpageshadow="2"
     inkscape:pageopacity="0.0"
     inkscape:pagecheckerboard="0"
     inkscape:deskcolor="#d1d1d1"
     inkscape:document-units="mm"
     inkscape:zoom="0.51213161"
     inkscape:cx="683.41808"
     inkscape:cy="596.52635"
     inkscape:window-width="1920"
     inkscape:window-height="1009"
     inkscape:window-x="-8"
     inkscape:window-y="-8"
     inkscape:window-maximized="1"
     inkscape:current-layer="layer1" /><defs
     id="defs1"><clipPath
       clipPathUnits="userSpaceOnUse"
       id="clipPath18"><path
         id="path19"
         style="fill:#ff0000;fill-opacity:1;fill-rule:nonzero;stroke:none;stroke-width:0.264583"
         d="M 106.42606,48.563443 V 202.51942 H 384.89072 V 48.563443 Z M 278.05692,163.89336 v 0 c 0.01,-7.9e-4 0.005,0.0219 0.0124,0.0269 0.0135,-0.0172 0.0299,-0.0255 0.0454,-0.0258 0.0328,-7.9e-4 0.061,0.0341 0.045,0.0956 -0.0109,0.0417 -0.023,0.083 -0.0346,0.12454 -0.0161,0.0589 -0.0322,0.11773 -0.048,0.17673 -0.0151,0.055 -0.0278,0.11099 -0.0434,0.16589 -0.009,0.0299 -0.0182,0.0597 -0.0243,0.0904 -0.003,0.0191 -0.009,0.0373 -0.0124,0.0563 -0.003,0.0155 -0.007,0.0304 -0.0108,0.0455 -0.029,0.1092 -0.13907,0.0798 -0.11007,-0.0294 0.003,-0.0122 0.007,-0.0242 0.009,-0.0367 0.004,-0.0195 0.009,-0.0384 0.013,-0.0579 0.007,-0.0336 0.0156,-0.067 0.0259,-0.0997 0.0122,-0.0425 0.0225,-0.0854 0.0336,-0.12815 -0.0172,-0.0148 -0.0375,-0.0304 -0.0279,-0.0718 0.004,-0.0169 0.008,-0.034 0.0103,-0.0511 0.007,-0.0409 0.0159,-0.0817 0.0284,-0.12144 0.008,-0.0309 0.0132,-0.0625 0.0233,-0.093 0.0143,-0.0436 0.0411,-0.0646 0.0651,-0.0667 z" /></clipPath></defs><g
     inkscape:label="Ebene 1"
     inkscape:groupmode="layer"
     id="layer1"><rect
       style="fill:#001527;fill-opacity:1;stroke-width:1;stroke-linejoin:round"
       id="rect1"
       width="508"
       height="285.75"
       x="0"
       y="-5.5289107e-14" /><path
       id="path8-8"
       style="fill:#252a37;fill-opacity:1;stroke-width:0.53491;stroke-linejoin:round"
       d="m 53.055858,102.33517 c -0.690708,-0.003 -1.324891,0.0785 -1.324891,0.0785 0,0 -0.74277,0.32825 -0.846404,0.8464 -0.103633,0.51816 0.01744,3.98988 0.01744,3.98988 h 4.179784 v -3.76542 c 0,0 0.03445,-0.75981 -0.846409,-1.01889 -0.330322,-0.0972 -0.765065,-0.12896 -1.179492,-0.13048 z m 8.017349,6.53932 c -1.173972,0.005 -2.273297,0.029 -2.273297,0.029 l -16.353135,-0.0243 c 0,0 -0.952803,0.24432 -1.02608,0.85497 -0.07328,0.61066 -2.401835,11.95499 -2.401835,11.95499 l 14.059389,-2.45241 13.990279,2.45241 -2.383584,-11.77946 c 0,0 -0.291371,-0.78632 -0.889806,-0.94509 -0.299224,-0.0794 -1.547943,-0.0947 -2.721931,-0.0901 z m -17.210045,2.68102 0.07767,0.0124 h 3.981584 4.067554 v 4.62869 h -8.117688 v -0.005 l -0.0011,0.005 h -0.300748 l -0.440065,-0.0705 z m 18.232257,0 0.732516,4.57064 -0.440065,0.0705 h -0.300742 l -0.0011,-0.005 v 0.005 h -8.117663 v -4.6287 h 8.049139 z m -9.194359,9.73228 -20.615846,4.24999 c -0.04884,1.95409 4.201341,15.24219 4.201341,15.24219 l 0.03814,-0.10338 c 0.211872,-0.0334 9.79931,-1.52486 15.790068,1.42219 5.957909,2.93093 7.582195,4.62642 15.163138,3.47325 l -0.0016,0.005 0.326734,-0.0476 c 5.35e-4,-0.002 0.0011,-0.003 0.0016,-0.004 0.0065,-0.001 0.01246,-0.002 0.01851,-0.003 l 0.168341,-0.42624 -0.0043,-5.4e-4 c 2.971896,-6.82784 5.578216,-19.60629 5.578216,-19.60629 z m -10.212142,21.36633 c -6.737064,-0.0322 -11.576007,2.91321 -11.576007,2.91321 l 1.41666,2.29624 0.07491,-0.11776 c 3.062272,-1.67022 11.1769,-4.94901 19.175683,-0.12383 4.147871,2.50215 8.19772,3.33612 11.726664,3.353 6.737054,0.0322 11.576007,-2.91322 11.576007,-2.91322 l -1.41666,-2.29623 -0.03568,0.0561 c -0.03279,0.0193 -0.313875,0.18357 -0.725883,0.41712 -3.468644,1.7189 -11.027709,4.26934 -18.489057,-0.23164 -4.147861,-2.50215 -8.197716,-3.33613 -11.726659,-3.35301 z" /><path
       id="path8-8-5"
       style="fill:#252a37;fill-opacity:1;stroke-width:0.53491;stroke-linejoin:round"
       d="m 164.86363,205.52804 c -0.69071,-0.002 -1.3249,0.0785 -1.3249,0.0785 0,0 -0.74277,0.32825 -0.8464,0.84641 -0.10363,0.51816 0.0174,3.98988 0.0174,3.98988 h 4.17979 v -3.76543 c 0,0 0.0345,-0.75981 -0.84641,-1.01889 -0.33032,-0.0972 -0.76507,-0.12895 -1.1795,-0.13047 z m 8.01735,6.53932 c -1.17398,0.005 -2.2733,0.029 -2.2733,0.029 l -16.35314,-0.0243 c 0,0 -0.9528,0.24432 -1.02608,0.85498 -0.0733,0.61065 -2.40183,11.95499 -2.40183,11.95499 l 14.05939,-2.45242 13.99028,2.45242 -2.38359,-11.77946 c 0,0 -0.29137,-0.78632 -0.8898,-0.94509 -0.29923,-0.0794 -1.54795,-0.0947 -2.72193,-0.0901 z m -17.21005,2.68102 0.0777,0.0124 h 3.98158 4.06756 v 4.62869 h -8.11769 v -0.005 l -0.001,0.005 h -0.30075 l -0.44006,-0.0705 z m 18.23226,0 0.73251,4.57065 -0.44006,0.0705 h -0.30074 l -0.001,-0.005 v 0.005 h -8.11767 v -4.6287 h 8.04914 z m -9.19436,9.73228 -20.61585,4.24999 c -0.0488,1.9541 4.20134,15.2422 4.20134,15.2422 l 0.0381,-0.10338 c 0.21187,-0.0334 9.79931,-1.52486 15.79007,1.42219 5.95791,2.93093 7.5822,4.62642 15.16314,3.47325 l -0.002,0.005 0.32673,-0.0475 c 5.4e-4,-0.002 0.001,-0.003 0.002,-0.004 0.007,-0.001 0.0125,-0.002 0.0185,-0.003 l 0.16834,-0.42625 -0.004,-5.3e-4 c 2.9719,-6.82785 5.57822,-19.6063 5.57822,-19.6063 z m -10.21215,21.36633 c -6.73706,-0.0322 -11.576,2.91322 -11.576,2.91322 l 1.41666,2.29623 0.0749,-0.11775 c 3.06227,-1.67023 11.1769,-4.94902 19.17568,-0.12384 4.14787,2.50216 8.19772,3.33613 11.72667,3.353 6.73705,0.0322 11.576,-2.91321 11.576,-2.91321 l -1.41666,-2.29624 -0.0357,0.0561 c -0.0328,0.0193 -0.31387,0.18358 -0.72588,0.41712 -3.46864,1.7189 -11.02771,4.26934 -18.48906,-0.23164 -4.14786,-2.50215 -8.19771,-3.33612 -11.72666,-3.353 z" /><path
       id="path8-8-52"
       style="fill:#252a37;fill-opacity:1;stroke-width:0.53491;stroke-linejoin:round"
       d="m 324.84702,187.26332 c -0.69071,-0.002 -1.3249,0.0785 -1.3249,0.0785 0,0 -0.74277,0.32825 -0.8464,0.84641 -0.10363,0.51816 0.0174,3.98988 0.0174,3.98988 h 4.17978 v -3.76543 c 0,0 0.0345,-0.75981 -0.8464,-1.01889 -0.33033,-0.0972 -0.76507,-0.12895 -1.1795,-0.13047 z m 8.01734,6.53932 c -1.17397,0.005 -2.27329,0.029 -2.27329,0.029 l -16.35314,-0.0243 c 0,0 -0.9528,0.24432 -1.02608,0.85498 -0.0733,0.61065 -2.40183,11.95499 -2.40183,11.95499 l 14.05939,-2.45242 13.99028,2.45242 -2.38359,-11.77946 c 0,0 -0.29137,-0.78632 -0.8898,-0.94509 -0.29923,-0.0794 -1.54795,-0.0947 -2.72194,-0.0901 z m -17.21004,2.68102 0.0777,0.0124 h 3.98158 4.06756 v 4.62869 h -8.11769 v -0.005 l -0.001,0.005 h -0.30075 l -0.44006,-0.0705 z m 18.23226,0 0.73251,4.57065 -0.44006,0.0705 h -0.30074 l -10e-4,-0.005 v 0.005 h -8.11767 v -4.6287 h 8.04914 z m -9.19436,9.73228 -20.61585,4.24999 c -0.0488,1.9541 4.20134,15.2422 4.20134,15.2422 l 0.0381,-0.10338 c 0.21187,-0.0334 9.79931,-1.52486 15.79007,1.42219 5.95791,2.93093 7.5822,4.62642 15.16314,3.47325 l -0.002,0.005 0.32673,-0.0475 c 5.4e-4,-0.002 10e-4,-0.003 0.002,-0.004 0.006,-0.001 0.0125,-0.002 0.0185,-0.003 l 0.16834,-0.42625 -0.004,-5.3e-4 c 2.9719,-6.82785 5.57822,-19.6063 5.57822,-19.6063 z m -10.21214,21.36633 c -6.73707,-0.0322 -11.57601,2.91322 -11.57601,2.91322 l 1.41666,2.29623 0.0749,-0.11775 c 3.06227,-1.67023 11.1769,-4.94902 19.17568,-0.12384 4.14787,2.50216 8.19772,3.33613 11.72667,3.353 6.73705,0.0322 11.576,-2.91321 11.576,-2.91321 l -1.41666,-2.29624 -0.0357,0.0561 c -0.0328,0.0193 -0.31387,0.18358 -0.72588,0.41712 -3.46864,1.7189 -11.02771,4.26934 -18.48906,-0.23164 -4.14786,-2.50215 -8.19771,-3.33612 -11.72666,-3.353 z" /><path
       id="path8-8-6"
       style="fill:#252a37;fill-opacity:1;stroke-width:0.53491;stroke-linejoin:round"
       d="m 466.03693,162.94327 c -0.69071,-0.002 -1.32489,0.0785 -1.32489,0.0785 0,0 -0.74277,0.32825 -0.84641,0.84641 -0.10363,0.51816 0.0174,3.98988 0.0174,3.98988 h 4.17979 v -3.76543 c 0,0 0.0344,-0.75981 -0.84641,-1.01889 -0.33033,-0.0972 -0.76507,-0.12895 -1.1795,-0.13047 z m 8.01734,6.53932 c -1.17397,0.005 -2.27329,0.029 -2.27329,0.029 l -16.35314,-0.0243 c 0,0 -0.9528,0.24432 -1.02608,0.85498 -0.0733,0.61065 -2.40183,11.95499 -2.40183,11.95499 l 14.05939,-2.45242 13.99028,2.45242 -2.38359,-11.77946 c 0,0 -0.29137,-0.78632 -0.8898,-0.94509 -0.29923,-0.0794 -1.54795,-0.0947 -2.72193,-0.0901 z m -17.21004,2.68102 0.0777,0.0124 h 3.98158 4.06756 v 4.62869 h -8.11769 v -0.005 l -0.001,0.005 h -0.30075 l -0.44006,-0.0705 z m 18.23226,0 0.73251,4.57065 -0.44006,0.0705 h -0.30074 l -10e-4,-0.005 v 0.005 h -8.11767 v -4.6287 h 8.04914 z m -9.19436,9.73228 -20.61585,4.24999 c -0.0488,1.9541 4.20134,15.2422 4.20134,15.2422 l 0.0381,-0.10338 c 0.21187,-0.0334 9.79931,-1.52486 15.79007,1.42219 5.95791,2.93093 7.5822,4.62642 15.16314,3.47325 l -0.002,0.005 0.32673,-0.0476 c 5.4e-4,-0.002 10e-4,-0.003 0.002,-0.004 0.007,-0.001 0.0125,-0.002 0.0185,-0.003 l 0.16834,-0.42625 -0.004,-5.3e-4 c 2.9719,-6.82785 5.57822,-19.6063 5.57822,-19.6063 z m -10.21214,21.36633 c -6.73707,-0.0322 -11.57601,2.91322 -11.57601,2.91322 l 1.41666,2.29623 0.0749,-0.11775 c 3.06227,-1.67023 11.1769,-4.94902 19.17568,-0.12384 4.14787,2.50216 8.19772,3.33613 11.72667,3.353 6.73705,0.0322 11.576,-2.91321 11.576,-2.91321 l -1.41666,-2.29624 -0.0357,0.0561 c -0.0328,0.0193 -0.31387,0.18358 -0.72588,0.41712 -3.46864,1.7189 -11.02771,4.26934 -18.48906,-0.23164 -4.14786,-2.50215 -8.19771,-3.33612 -11.72666,-3.353 z" /><path
       id="path8-8-4"
       style="fill:#252a37;fill-opacity:1;stroke-width:0.53491;stroke-linejoin:round"
       d="m 262.84784,57.858612 c -0.69071,-0.002 -1.32489,0.0785 -1.32489,0.0785 0,0 -0.74278,0.32825 -0.84641,0.84641 -0.10363,0.51816 0.0174,3.98988 0.0174,3.98988 h 4.17979 v -3.76543 c 0,0 0.0344,-0.75981 -0.84641,-1.01889 -0.33033,-0.0972 -0.76507,-0.12895 -1.1795,-0.13047 z m 8.01735,6.53932 c -1.17398,0.005 -2.2733,0.029 -2.2733,0.029 l -16.35314,-0.0243 c 0,0 -0.9528,0.24432 -1.02608,0.85498 -0.0733,0.61065 -2.40183,11.95499 -2.40183,11.95499 l 14.05939,-2.45242 13.99028,2.45242 -2.38359,-11.77946 c 0,0 -0.29137,-0.78632 -0.8898,-0.94509 -0.29923,-0.0794 -1.54795,-0.0947 -2.72193,-0.0901 z m -17.21005,2.68102 0.0777,0.0124 h 3.98158 4.06756 v 4.62869 h -8.11769 v -0.005 l -0.001,0.005 h -0.30075 l -0.44006,-0.0705 z m 18.23226,0 0.73251,4.57065 -0.44006,0.0705 h -0.30074 l -0.001,-0.005 v 0.005 h -8.11767 v -4.6287 h 8.04915 z m -9.19436,9.73228 -20.61585,4.24999 c -0.0488,1.9541 4.20134,15.242203 4.20134,15.242203 l 0.0381,-0.10338 c 0.21188,-0.0334 9.79931,-1.524863 15.79007,1.42219 5.95791,2.930935 7.5822,4.626415 15.16314,3.473245 l -0.002,0.005 0.32673,-0.0476 c 5.4e-4,-0.002 0.001,-0.003 0.002,-0.004 0.006,-10e-4 0.0125,-0.002 0.0185,-0.003 l 0.16834,-0.42624 -0.004,-5.3e-4 c 2.9719,-6.827858 5.57822,-19.606308 5.57822,-19.606308 z M 252.4809,98.177565 c -6.73707,-0.0322 -11.57601,2.913215 -11.57601,2.913215 l 1.41666,2.29623 0.0749,-0.11775 c 3.06228,-1.67023 11.1769,-4.949015 19.17568,-0.12384 4.14788,2.50216 8.19772,3.33613 11.72668,3.353 6.73705,0.0322 11.576,-2.91321 11.576,-2.91321 l -1.41666,-2.29624 -0.0357,0.0561 c -0.0328,0.0193 -0.31387,0.18358 -0.72588,0.41712 -3.46864,1.7189 -11.02772,4.26934 -18.48906,-0.23164 -4.14786,-2.502145 -8.19772,-3.336115 -11.72666,-3.352995 z" /><path
       id="path8-8-4-8"
       style="fill:#252a37;fill-opacity:1;stroke-width:0.53491;stroke-linejoin:round"
       d="m 195.71598,118.55498 c -0.69071,-0.002 -1.32489,0.0785 -1.32489,0.0785 0,0 -0.74278,0.32825 -0.84641,0.84641 -0.10363,0.51816 0.0174,3.98988 0.0174,3.98988 h 4.17979 v -3.76543 c 0,0 0.0344,-0.75981 -0.84641,-1.01889 -0.33033,-0.0972 -0.76507,-0.12895 -1.1795,-0.13047 z m 8.01735,6.53932 c -1.17398,0.005 -2.2733,0.029 -2.2733,0.029 l -16.35314,-0.0243 c 0,0 -0.9528,0.24432 -1.02608,0.85498 -0.0733,0.61065 -2.40183,11.95499 -2.40183,11.95499 l 14.05939,-2.45242 13.99028,2.45242 -2.38359,-11.77946 c 0,0 -0.29137,-0.78632 -0.8898,-0.94509 -0.29923,-0.0794 -1.54795,-0.0947 -2.72193,-0.0901 z m -17.21005,2.68102 0.0777,0.0124 h 3.98158 4.06756 v 4.62869 h -8.11769 v -0.005 l -0.001,0.005 h -0.30075 l -0.44006,-0.0705 z m 18.23226,0 0.73251,4.57065 -0.44006,0.0705 h -0.30074 l -0.001,-0.005 v 0.005 h -8.11767 v -4.6287 h 8.04914 z m -9.19436,9.73228 -20.61585,4.24999 c -0.0488,1.9541 4.20134,15.24221 4.20134,15.24221 l 0.0381,-0.10338 c 0.21188,-0.0334 9.79931,-1.52487 15.79007,1.42219 5.95791,2.93093 7.5822,4.62641 15.16314,3.47324 l -0.002,0.005 0.32673,-0.0476 c 5.4e-4,-0.002 0.001,-0.003 0.002,-0.004 0.006,-0.001 0.0125,-0.002 0.0185,-0.003 l 0.16834,-0.42624 -0.004,-5.3e-4 c 2.9719,-6.82786 5.57822,-19.60631 5.57822,-19.60631 z m -10.21214,21.36634 c -6.73707,-0.0322 -11.57601,2.91321 -11.57601,2.91321 l 1.41666,2.29623 0.0749,-0.11775 c 3.06227,-1.67023 11.1769,-4.94901 19.17568,-0.12384 4.14787,2.50216 8.19772,3.33613 11.72667,3.353 6.73705,0.0322 11.576,-2.91321 11.576,-2.91321 l -1.41666,-2.29624 -0.0357,0.0561 c -0.0328,0.0193 -0.31387,0.18358 -0.72588,0.41712 -3.46864,1.7189 -11.02771,4.26934 -18.48906,-0.23164 -4.14786,-2.50214 -8.19771,-3.33611 -11.72666,-3.35299 z" /><path
       id="path8-8-1"
       style="fill:#252a37;fill-opacity:1;stroke-width:0.53491;stroke-linejoin:round"
       d="m 396.68296,24.200816 c -0.69071,-0.0025 -1.3249,0.0785 -1.3249,0.0785 0,0 -0.74277,0.328248 -0.8464,0.846405 -0.10363,0.518159 0.0174,3.989879 0.0174,3.989879 h 4.17978 v -3.765424 c 0,0 0.0344,-0.759812 -0.8464,-1.018892 -0.33033,-0.09716 -0.76507,-0.128953 -1.1795,-0.130472 z m 8.01734,6.539321 c -1.17397,0.0046 -2.27329,0.02902 -2.27329,0.02902 l -16.35314,-0.02432 c 0,0 -0.9528,0.244319 -1.02608,0.854974 -0.0733,0.610654 -2.40183,11.95499 -2.40183,11.95499 l 14.05939,-2.452416 13.99028,2.452418 -2.38359,-11.779462 c 0,0 -0.29137,-0.786318 -0.8898,-0.945088 -0.29923,-0.07938 -1.54795,-0.09469 -2.72194,-0.09011 z m -17.21004,2.68102 0.0777,0.01241 h 3.98158 4.06756 v 4.628691 h -8.11769 v -0.0053 l -0.001,0.0053 h -0.30075 l -0.44006,-0.07048 z m 18.23226,0 0.73251,4.570642 -0.44006,0.07049 h -0.30074 l -10e-4,-0.0053 v 0.0053 h -8.11767 v -4.628696 h 8.04914 z m -9.19436,9.732277 -20.61585,4.249991 c -0.0488,1.954094 4.20134,15.242197 4.20134,15.242197 l 0.0381,-0.103382 c 0.21187,-0.03343 9.79931,-1.524861 15.79007,1.422191 5.95791,2.930932 7.5822,4.626419 15.16314,3.47325 l -0.002,0.0048 0.32673,-0.04755 c 5.4e-4,-0.0016 0.001,-0.0027 0.002,-0.0043 0.007,-0.0011 0.0125,-0.0021 0.0185,-0.0027 l 0.16834,-0.426243 -0.004,-5.35e-4 c 2.9719,-6.827846 5.57822,-19.606298 5.57822,-19.606298 z m -10.21214,21.36633 c -6.73707,-0.0322 -11.57601,2.913215 -11.57601,2.913215 l 1.41666,2.296239 0.0749,-0.117755 c 3.06227,-1.670229 11.1769,-4.949017 19.17568,-0.123837 4.14787,2.502157 8.19772,3.336124 11.72667,3.353001 6.73705,0.0322 11.576,-2.913215 11.576,-2.913215 l -1.41666,-2.296238 -0.0357,0.05611 c -0.0328,0.01931 -0.31387,0.183575 -0.72588,0.417122 -3.46864,1.7189 -11.02771,4.269339 -18.48906,-0.231642 -4.14786,-2.502148 -8.19771,-3.336126 -11.72666,-3.353002 z" /><path
       id="path8-8-4-0"
       style="fill:#252a37;fill-opacity:1;stroke-width:0.53491;stroke-linejoin:round"
       d="m 375.53314,98.033753 c -0.69071,-0.002 -1.32489,0.0785 -1.32489,0.0785 0,0 -0.74278,0.32825 -0.84641,0.84641 -0.10363,0.51816 0.0174,3.989877 0.0174,3.989877 h 4.17979 v -3.765427 c 0,0 0.0344,-0.75981 -0.84641,-1.01889 -0.33033,-0.0972 -0.76507,-0.12895 -1.1795,-0.13047 z m 8.01735,6.539317 c -1.17398,0.005 -2.2733,0.029 -2.2733,0.029 l -16.35314,-0.0243 c 0,0 -0.9528,0.24432 -1.02608,0.85498 -0.0733,0.61065 -2.40183,11.95499 -2.40183,11.95499 l 14.05939,-2.45242 13.99028,2.45242 -2.38359,-11.77946 c 0,0 -0.29137,-0.78632 -0.8898,-0.94509 -0.29923,-0.0794 -1.54795,-0.0947 -2.72193,-0.0901 z m -17.21005,2.68102 0.0777,0.0124 h 3.98158 4.06756 v 4.62869 h -8.11769 v -0.005 l -10e-4,0.005 h -0.30075 l -0.44006,-0.0705 z m 18.23226,0 0.73251,4.57065 -0.44006,0.0705 h -0.30074 l -0.001,-0.005 v 0.005 h -8.11767 v -4.6287 h 8.04914 z m -9.19436,9.73228 -20.61585,4.24999 c -0.0488,1.9541 4.20134,15.2422 4.20134,15.2422 l 0.0381,-0.10337 c 0.21188,-0.0334 9.79931,-1.52487 15.79007,1.42219 5.95791,2.93092 7.5822,4.62641 15.16314,3.47324 l -0.002,0.005 0.32673,-0.0476 c 5.4e-4,-0.002 10e-4,-0.003 0.002,-0.004 0.006,-0.001 0.0125,-0.002 0.0185,-0.003 l 0.16834,-0.42625 -0.004,-5.3e-4 c 2.9719,-6.82785 5.57822,-19.6063 5.57822,-19.6063 z m -10.21214,21.36634 c -6.73707,-0.0322 -11.57601,2.91321 -11.57601,2.91321 l 1.41666,2.29623 0.0749,-0.11775 c 3.06227,-1.67023 11.1769,-4.94902 19.17568,-0.12384 4.14787,2.50216 8.19772,3.33613 11.72667,3.353 6.73705,0.0322 11.576,-2.91321 11.576,-2.91321 l -1.41666,-2.29624 -0.0357,0.0561 c -0.0328,0.0193 -0.31387,0.18358 -0.72588,0.41712 -3.46864,1.7189 -11.02771,4.26934 -18.48906,-0.23164 -4.14786,-2.50215 -8.19771,-3.33612 -11.72666,-3.353 z" /><path
       id="path8-8-68"
       style="fill:#252a37;fill-opacity:1;stroke-width:0.53491;stroke-linejoin:round"
       d="m 129.01273,18.479249 c -0.69071,-0.0025 -1.3249,0.0785 -1.3249,0.0785 0,0 -0.74277,0.328248 -0.8464,0.846405 -0.10363,0.518159 0.0174,3.989879 0.0174,3.989879 h 4.17978 v -3.765424 c 0,0 0.0344,-0.759812 -0.8464,-1.018892 -0.33033,-0.09716 -0.76507,-0.128953 -1.1795,-0.130472 z m 8.01734,6.539321 c -1.17397,0.0046 -2.27329,0.02902 -2.27329,0.02902 l -16.35314,-0.02432 c 0,0 -0.9528,0.244319 -1.02608,0.854974 -0.0733,0.610654 -2.40183,11.95499 -2.40183,11.95499 l 14.05939,-2.452416 13.99028,2.452418 -2.38359,-11.779462 c 0,0 -0.29137,-0.786318 -0.8898,-0.945088 -0.29923,-0.07938 -1.54795,-0.09469 -2.72194,-0.09011 z m -17.21004,2.68102 0.0777,0.01241 h 3.98158 4.06756 v 4.628691 h -8.11769 v -0.0053 l -10e-4,0.0053 h -0.30075 l -0.44006,-0.07048 z m 18.23226,0 0.73251,4.570642 -0.44006,0.07049 H 138.044 l -0.001,-0.0053 v 0.0053 h -8.11767 v -4.628696 h 8.04914 z m -9.19436,9.732277 -20.61585,4.249991 c -0.0488,1.954094 4.20134,15.242197 4.20134,15.242197 l 0.0381,-0.103382 c 0.21187,-0.03343 9.79931,-1.524861 15.79007,1.422191 5.95791,2.930932 7.5822,4.626419 15.16314,3.47325 l -0.002,0.0048 0.32673,-0.04755 c 5.4e-4,-0.0016 0.001,-0.0027 0.002,-0.0043 0.007,-0.0011 0.0125,-0.0021 0.0185,-0.0027 l 0.16834,-0.426243 -0.004,-5.35e-4 c 2.9719,-6.827846 5.57822,-19.606298 5.57822,-19.606298 z m -10.21214,21.36633 c -6.73707,-0.0322 -11.57601,2.913215 -11.57601,2.913215 l 1.41666,2.296239 0.0749,-0.117755 c 3.06227,-1.670229 11.1769,-4.949017 19.17568,-0.123837 4.14787,2.502157 8.19772,3.336124 11.72667,3.353001 6.73705,0.0322 11.576,-2.913215 11.576,-2.913215 l -1.41666,-2.296238 -0.0357,0.05611 c -0.0328,0.01931 -0.31387,0.183575 -0.72588,0.417122 -3.46864,1.7189 -11.02771,4.269339 -18.48906,-0.231642 -4.14786,-2.502148 -8.19771,-3.336126 -11.72666,-3.353002 z" /></g></svg>
