<?xml version="1.0" encoding="UTF-8" standalone="no"?>
<!-- Created with Inkscape (http://www.inkscape.org/) -->

<svg
   width="1920"
   height="1080"
   viewBox="0 0 507.99999 285.75"
   version="1.1"
   id="svg1"
   inkscape:version="1.3.2 (091e20e, 2023-11-25, custom)"
   sodipodi:docname="background_waves.svg"
   inkscape:export-filename="background_waves.png"
   inkscape:export-xdpi="96"
   inkscape:export-ydpi="96"
   xmlns:inkscape="http://www.inkscape.org/namespaces/inkscape"
   xmlns:sodipodi="http://sodipodi.sourceforge.net/DTD/sodipodi-0.dtd"
   xmlns="http://www.w3.org/2000/svg"
   xmlns:svg="http://www.w3.org/2000/svg">
  <sodipodi:namedview
     id="namedview1"
     pagecolor="#ffffff"
     bordercolor="#000000"
     borderopacity="0.25"
     inkscape:showpageshadow="2"
     inkscape:pageopacity="0.0"
     inkscape:pagecheckerboard="0"
     inkscape:deskcolor="#d1d1d1"
     inkscape:document-units="mm"
     inkscape:zoom="0.51213161"
     inkscape:cx="933.35383"
     inkscape:cy="687.32332"
     inkscape:window-width="2880"
     inkscape:window-height="1514"
     inkscape:window-x="2869"
     inkscape:window-y="-11"
     inkscape:window-maximized="1"
     inkscape:current-layer="layer1"
     showgrid="true" />
  <defs
     id="defs1">
    <clipPath
       clipPathUnits="userSpaceOnUse"
       id="clipPath49">
      <path
         id="path50"
         style="fill:#ff0000;fill-opacity:1;fill-rule:nonzero;stroke:none;stroke-width:0.264583"
         d="m -28.300082,195.42166 v 51.2961 h 26.179798 c -0.010712,-0.51792 -0.022941,-1.03591 -0.045992,-1.5534 -0.035261,-0.71198 -0.073411,-1.42363 -0.1038697,-2.13578 -0.043876,-0.64339 -0.1213534,-1.2842 -0.1415934,-1.92908 -0.043489,-1.05849 -0.059873,-2.1171 -0.053743,-3.17655 -0.00654,-1.0446 -0.016728,-2.08937 -0.043925,-3.13366 -0.028115,-1.08024 -0.075437,-2.16042 -0.073897,-3.24115 v -3.04167 -2.08773 c 0,-0.6393 0.3230614,-0.9586 0.6459555,-0.9586 0.3228939,0 0.6459554,0.3193 0.6459554,0.9586 v 2.08773 3.04167 c -0.00127,1.06951 0.045018,2.13853 0.072864,3.20756 0.027435,1.0528 0.037832,2.10588 0.044442,3.15898 -0.00611,1.0445 0.00981,2.08806 0.05271,3.13159 0.021159,0.63303 0.09605,1.26231 0.13952639,1.89394 0.0313077,0.72024 0.0696537,1.44 0.10541992,2.16007 0.024125,0.53886 0.0370696,1.07809 0.0480591,1.61748 H 545.6773 v -51.2961 z m 13.967107,34.41857 c 0.321909,0 0.642888,0.3193 0.642338,0.9586 -5.29e-4,0.64132 -0.132805,1.27513 -0.287838,1.89446 -0.199488,0.69409 -0.38738,1.39188 -0.610299,2.07894 -0.07292,0.20899 -0.14343,0.41909 -0.21394,0.62891 -0.407311,1.21194 -1.631566,0.80062 -1.224215,-0.41135 0.06919,-0.20585 0.138037,-0.41205 0.209807,-0.61702 0.215194,-0.65953 0.393024,-1.3307 0.586527,-1.99677 0.132345,-0.51461 0.244347,-1.04381 0.248047,-1.57717 0.0045,-0.63928 0.327661,-0.95859 0.649573,-0.9586 z m 2.856673,1.69137 c 0.304398,-0.0173 0.648169,0.24381 0.768428,0.83096 0.135051,0.65936 0.200188,1.32854 0.249598,1.99885 0.05564,0.92656 0.09602,1.85489 0.08992,2.78329 -0.0061,0.34822 -0.02043,0.69642 -0.03462,1.04438 -0.05209,1.27751 -1.34255,1.22481 -1.29036,-0.0527 0.01363,-0.33354 0.02697,-0.66718 0.03307,-1.00097 0.0072,-0.89382 -0.03425,-1.78781 -0.0863,-2.67994 -0.04526,-0.62453 -0.105913,-1.24776 -0.232544,-1.86191 -0.137169,-0.66523 0.157827,-1.04236 0.502812,-1.06195 z" />
    </clipPath>
    <clipPath
       clipPathUnits="userSpaceOnUse"
       id="clipPath62">
      <path
         id="path63"
         style="fill:#ff0000;fill-opacity:1;fill-rule:nonzero;stroke:none;stroke-width:0.264583"
         d="M -20.550684,220.73691 V 240.699 c 0.564822,0.0134 1.129327,0.0339 1.693954,0.0522 0.600518,-0.54463 1.215074,-1.07387 1.860351,-1.56477 1.094067,-0.8129 2.235107,-1.59992 3.541386,-2.03036 0.190696,-0.055 0.378638,-0.12035 0.572058,-0.16485 0.39828,-0.0919 0.80681,-0.10794 1.214397,-0.11059 -0.0015,-0.80886 -0.03093,-1.61785 -0.07803,-2.42517 -0.04526,-0.62453 -0.105913,-1.24776 -0.232544,-1.86191 -0.137169,-0.66522 0.157827,-1.04236 0.502812,-1.06195 0.304398,-0.0173 0.64817,0.24381 0.768428,0.83096 0.135051,0.65936 0.200188,1.32854 0.249598,1.99885 0.05564,0.92655 0.09602,1.85489 0.08992,2.78329 -0.0017,0.10028 -0.0069,0.20049 -0.0098,0.30075 0.01325,0.0726 0.01208,0.14614 -0.0072,0.21756 -0.0061,0.17537 -0.01042,0.3508 -0.01757,0.52607 -0.05146,1.26208 -1.30198,1.21526 -1.282092,-0.0176 -0.336108,0.003 -0.671936,0.0181 -1.000972,0.0961 -0.135435,0.032 -0.265184,0.0842 -0.397909,0.12609 -1.157599,0.39385 -2.169903,1.10372 -3.14141,1.82883 -0.254054,0.19357 -0.502767,0.39348 -0.749308,0.59634 2.067341,0.0878 4.134784,0.17502 6.201688,0.27182 2.143574,0.11071 4.284798,0.25762 6.4275147,0.38034 0.6531571,0.0274 1.3067795,0.0487 1.9606038,0.0486 -0.00889,-0.14001 -0.022467,-0.27979 -0.026872,-0.42012 -0.043489,-1.05849 -0.059874,-2.11711 -0.053744,-3.17655 -0.00654,-1.0446 -0.016728,-2.08937 -0.043925,-3.13366 -0.028115,-1.08024 -0.075437,-2.16042 -0.073897,-3.24115 v -3.04167 -2.08773 c 0,-0.6393 0.3230617,-0.9586 0.6459555,-0.9586 0.3228935,0 0.6459554,0.3193 0.6459554,0.9586 v 2.08773 3.04167 c -0.00127,1.06951 0.045018,2.13853 0.072864,3.20756 0.027435,1.0528 0.037832,2.10588 0.044442,3.15898 -0.00611,1.0445 0.00981,2.08806 0.05271,3.13159 0.021159,0.63303 0.09605,1.26231 0.13952637,1.89394 0.0313077,0.72024 0.0696537,1.44001 0.10541992,2.16007 0.0553409,1.2361 0.0659162,2.47427 0.0785482,3.71141 0.0261789,1.40083 -0.0440299,2.80044 -0.098702,4.19974 -0.0522259,1.25417 -0.11493109,2.50855 -0.19120279,3.76153 -0.068715,1.07538 -0.1239626,2.15137 -0.2092896,3.22564 -0.077234,0.81996 -0.1394264,1.64104 -0.2051554,2.46187 H 515.19645 v -41.72356 z m 6.217709,9.10332 c 0.321908,0 0.642888,0.3193 0.642338,0.9586 -5.29e-4,0.64132 -0.132805,1.27513 -0.287838,1.89446 -0.199488,0.69409 -0.38738,1.39188 -0.610299,2.07894 -0.07292,0.20899 -0.14343,0.41909 -0.21394,0.62891 -0.407311,1.21193 -1.631565,0.80062 -1.224215,-0.41135 0.06919,-0.20585 0.138037,-0.41205 0.209807,-0.61702 0.215193,-0.65953 0.393024,-1.3307 0.586527,-1.99677 0.132345,-0.51461 0.244347,-1.04381 0.248047,-1.57717 0.0045,-0.63928 0.327661,-0.95859 0.649573,-0.9586 z m -6.217709,12.14655 v 0.46095 c 0.127313,-0.1512 0.255562,-0.30158 0.387574,-0.44855 -0.129218,-0.004 -0.258355,-0.009 -0.387574,-0.0124 z m 2.176095,0.0703 c -0.07112,0.0668 -0.146029,0.12944 -0.216524,0.19689 -0.195142,0.18669 -0.396053,0.36843 -0.580327,0.56585 -0.195585,0.20954 -0.372053,0.43617 -0.558105,0.65423 -0.305762,0.36128 -0.576674,0.74745 -0.821139,1.14928 v 10.46086 c 0.04229,0.0309 0.08226,0.0642 0.127124,0.0925 0.107134,0.0676 0.227747,0.11076 0.343132,0.1633 0.03045,-0.66933 0.08736,-1.33453 0.17725,-1.96629 0.06386,-0.44886 0.165417,-0.89159 0.248047,-1.33738 0.109999,-0.46435 0.197242,-0.93422 0.329696,-1.39268 0.187384,-0.64859 0.606059,-1.759 0.964282,-2.33578 0.173164,-0.27882 0.852236,-0.84655 1.105875,-0.99994 0.162053,-0.098 0.352319,-0.13812 0.52865,-0.20722 0.22699,-0.0389 0.451013,-0.10679 0.681096,-0.11679 0.173214,-0.008 0.345927,0.0327 0.516247,0.0651 0.867218,0.16493 1.65015,0.5909 2.407605,1.02733 0.232581,0.14687 0.471337,0.28441 0.697632,0.4408 0.906396,0.62638 1.887736,1.45428 2.5502322,2.33939 0.1363866,0.18222 0.2348217,0.3896 0.3524332,0.58446 0.096285,0.24601 0.2259655,0.48188 0.2888713,0.73846 0.043347,0.1768 0.040663,0.36375 0.025839,0.54519 -0.018441,0.22567 -0.052977,0.45302 -0.1250569,0.66766 -0.052554,0.15648 -0.151061,0.29449 -0.2439128,0.43098 -0.3343357,0.49149 -0.3686095,0.47182 -0.808736,0.85007 -0.187262,0.13216 -0.365906,0.27724 -0.561723,0.39636 -1.223781,0.74444 -2.653325,1.06594 -4.036446,1.35858 -1.04429,0.18616 -2.087777,0.34932 -3.149679,0.39842 -0.200056,0.009 -0.429105,0.0116 -0.663525,0.009 0.01948,0.42326 0.05315,0.84046 0.113688,1.24024 0.04114,0.27171 0.117477,0.53717 0.176217,0.80563 0.205873,0.69791 0.155944,0.65468 0.469739,1.26918 0.08651,0.1694 0.168286,0.3436 0.280603,0.49712 0.105795,0.14461 0.539786,0.53214 0.685746,0.62684 0.130269,0.0845 0.278391,0.1378 0.417545,0.2067 0.25834,0.11428 0.531283,0.20885 0.80977,0.28009 0.344329,-0.14066 0.640942,-0.24792 1.299662,-0.4253 0.693343,-0.18672 1.456664,-0.385 2.180746,-0.20102 0.12579,0.032 0.222493,0.13329 0.33383,0.19999 0.06559,0.29337 0.202387,0.57948 0.196887,0.88005 -0.0019,0.10133 -0.09443,0.17509 -0.176217,0.24495 h 8.7803426 c -7.7e-6,-0.004 7.6e-6,-0.009 0,-0.0134 -0.00114,-0.74158 -0.00132,-1.48309 -0.00156,-2.22467 -1.915e-4,-0.68251 3.23e-5,-1.36542 0,-2.04794 -0.0035,-0.67747 0.045239,-1.35381 0.073897,-2.03036 0.025696,-0.60261 0.036058,-1.20561 0.043408,-1.80868 0.0069,-0.62831 0.00853,-1.25681 0.00982,-1.88516 0.00228,-0.80018 0.04768,-1.59973 0.075448,-2.39933 0.029108,-0.72835 0.027743,-1.45707 0.055811,-2.1854 0.033221,-0.66137 0.069511,-1.32255 0.093018,-1.98437 0.012562,-0.51205 0.069852,-1.02186 0.1038696,-1.53273 0.023932,-0.35301 0.035052,-0.70676 0.044442,-1.0604 0.00566,-0.21328 0.084081,-0.33549 0.1477945,-0.47594 -0.6064365,-0.005 -1.212661,-0.0254 -1.8184936,-0.0506 -2.146922,-0.12243 -4.2921674,-0.26997 -6.4399171,-0.38086 -2.309934,-0.10813 -4.620448,-0.20585 -6.930844,-0.30385 -0.201268,-0.007 -0.40277,-0.0125 -0.604097,-0.0196 z m 2.176611,6.20944 c -0.08599,0.007 -0.161375,0.0624 -0.241845,0.0935 -0.108765,0.0477 -0.228729,0.0752 -0.326079,0.14315 -0.08255,0.0577 -0.642672,0.67261 -0.649572,0.68471 -0.140918,0.24607 -0.215966,0.52446 -0.313676,0.79065 -0.462649,1.26043 -0.351524,0.98228 -0.668693,2.35283 -0.07845,0.42583 -0.174788,0.84868 -0.235128,1.27744 -0.08669,0.616 -0.141492,1.2734 -0.165365,1.93477 0.310934,-10e-4 0.614356,-0.006 0.656291,-0.008 0.987999,-0.0507 1.959434,-0.2029 2.931087,-0.37827 1.254481,-0.26851 2.558391,-0.548 3.665926,-1.23145 0.143196,-0.0884 0.270901,-0.20017 0.406177,-0.30024 0.336973,-0.2957 0.322957,-0.23206 0.5271,-0.5731 0.0546,-0.0912 0.122378,-0.17917 0.148828,-0.28215 0.01607,-0.0626 -0.01947,-0.12804 -0.02687,-0.19224 -0.05033,-0.43853 0.03131,-0.20931 -0.208256,-0.60409 -0.09228,-0.1471 -0.16994,-0.30458 -0.276986,-0.44132 -0.136124,-0.17388 -0.295186,-0.32891 -0.449585,-0.48679 -0.541198,-0.5534 -1.137842,-1.05752 -1.776119,-1.49655 -0.196543,-0.13519 -0.404728,-0.25265 -0.607198,-0.37879 -0.635467,-0.3475 -1.282859,-0.74714 -2.009696,-0.86196 -0.126091,-0.0199 -0.253124,-0.0525 -0.380339,-0.0419 z m -4.352706,8.2765 v 5.91747 h 2.990516 c -0.117112,-0.0615 -0.233798,-0.1236 -0.342615,-0.19844 -1.048052,-0.72081 -1.557817,-1.92478 -1.866553,-3.11092 -0.06633,-0.31812 -0.151234,-0.63302 -0.198954,-0.95447 -0.07084,-0.47713 -0.109526,-0.97264 -0.127124,-1.47381 -4.76e-4,-10e-5 -0.0011,-5.3e-4 -0.0016,-5.3e-4 -0.159148,-0.0341 -0.305113,-0.11096 -0.453719,-0.17931 z m 7.780921,4.92063 c -0.01661,-0.005 -0.121957,0.0314 -0.15658,0.076 0.04108,-0.0161 0.08301,-0.0301 0.122473,-0.0496 0.03261,-0.0161 0.04052,-0.0243 0.03411,-0.0263 z" />
    </clipPath>
    <clipPath
       clipPathUnits="userSpaceOnUse"
       id="clipPath67">
      <path
         id="path68"
         style="fill:#ff0000;fill-opacity:1;fill-rule:nonzero;stroke:none;stroke-width:0.264583"
         d="m 521.91232,230.55234 -523.203714,5.3e-4 v 0.99529 c -0.00127,1.06951 0.045018,2.13853 0.072864,3.20756 0.027435,1.0528 0.037832,2.10588 0.044442,3.15898 -0.00611,1.0445 0.00981,2.08806 0.05271,3.13159 0.021159,0.63303 0.09605,1.26231 0.13952639,1.89394 0.0313077,0.72024 0.0696537,1.44003 0.10541992,2.16007 0.0553408,1.2361 0.0659162,2.47427 0.0785482,3.71141 0.0261789,1.40081 -0.0440299,2.80044 -0.098702,4.19974 -0.0522257,1.25417 -0.11493131,2.50855 -0.19120281,3.76153 -0.068715,1.07538 -0.1239626,2.15137 -0.2092896,3.22564 -0.1039019,1.10309 -0.1827756,2.20798 -0.2759521,3.31194 -0.089698,0.86206 -0.1298025,1.72788 -0.190686,2.59209 -0.031058,0.4109 -0.076002,0.82032 -0.1193726,1.22992 0.00102,0.0262 4.657e-4,0.0524 0.00155,0.0785 0.028057,0.59224 0.079058,1.18401 0.080098,1.77715 0.00437,0.56264 0.00956,1.1254 0.029455,1.68775 0.020953,0.55946 0.053404,1.11808 0.094568,1.6764 0.024749,0.43259 0.028509,0.86627 0.066663,1.2981 0.033111,0.35832 0.090887,0.71271 0.1343587,1.06971 0.045122,0.37804 0.1189724,0.75142 0.1658814,1.12913 0.072333,0.51621 0.18228,1.02582 0.260966,1.54099 0.093258,0.61667 0.1935079,1.23494 0.22996005,1.85777 0.024743,0.4403 0.055458,0.88062 0.0444417,1.32189 -0.0319083,1.27823 -1.32591195,1.27815 -1.29139395,0 0.00663,-0.24564 -0.012901,-0.49035 -0.025322,-0.73536 -0.033693,0.0381 -0.070183,0.0735 -0.1038696,0.11163 -2.98e-5,0.51295 8.8e-6,1.02597 0,1.53889 -1.3e-6,0.0832 4e-7,0.16643 0,0.24961 H 521.91232 Z m -547.441511,5.3e-4 v 10.39007 c 0.842631,-0.17756 1.704495,-0.25178 2.567285,-0.2651 0.437285,-0.006 0.874251,-0.007 1.311548,-0.003 0.930589,0.009 1.86082,0.0464 2.791044,0.0791 0.601354,-0.54551 1.21669,-1.07571 1.862935,-1.56735 1.094066,-0.8129 2.235109,-1.59992 3.541386,-2.03036 0.190696,-0.055 0.378639,-0.12035 0.572058,-0.16485 0.39828,-0.0919 0.80681,-0.10794 1.214397,-0.11059 -0.0015,-0.80886 -0.03093,-1.61785 -0.07803,-2.42517 -0.04526,-0.62453 -0.105913,-1.24776 -0.232544,-1.86191 -0.137169,-0.6652 0.157827,-1.04236 0.502812,-1.06195 0.304398,-0.0173 0.648172,0.24381 0.768428,0.83096 0.135051,0.65936 0.200188,1.32854 0.249598,1.99885 0.05564,0.92653 0.09602,1.85489 0.08992,2.78329 -0.0017,0.10028 -0.0069,0.2005 -0.0098,0.30075 0.01325,0.0726 0.01204,0.14614 -0.0072,0.21756 -0.0061,0.17537 -0.01042,0.3508 -0.01757,0.52607 -0.05146,1.26208 -1.30198,1.21528 -1.282092,-0.0176 -0.336108,0.003 -0.671937,0.0182 -1.000972,0.0961 -0.135435,0.032 -0.265184,0.0842 -0.397909,0.12609 -1.157598,0.39385 -2.169904,1.10372 -3.14141,1.82883 -0.253861,0.19343 -0.502432,0.39312 -0.748792,0.59583 2.067167,0.0877 4.134444,0.17503 6.201172,0.27181 2.1435706,0.11071 4.2848022,0.25762 6.4275147,0.38034 0.653156,0.0274 1.3067811,0.0487 1.9606038,0.0486 -0.00887,-0.13985 -0.022473,-0.27945 -0.026872,-0.41961 -0.043489,-1.05849 -0.059874,-2.11713 -0.053744,-3.17655 -0.00654,-1.0446 -0.016728,-2.08937 -0.043925,-3.13366 -0.028115,-1.08024 -0.075437,-2.16042 -0.073897,-3.24115 v -0.99529 H -13.708663 c 0.01134,0.0761 0.01816,0.15771 0.01809,0.24598 -5.29e-4,0.64132 -0.132805,1.27513 -0.287838,1.89446 -0.199488,0.69409 -0.38738,1.39188 -0.610299,2.07894 -0.07292,0.20899 -0.14343,0.41909 -0.21394,0.62891 -0.407311,1.21191 -1.631563,0.80062 -1.224215,-0.41135 0.06919,-0.20585 0.138037,-0.41205 0.209807,-0.61702 0.215191,-0.65953 0.393024,-1.3307 0.586527,-1.99677 0.132345,-0.51461 0.244347,-1.04381 0.248047,-1.57717 6.09e-4,-0.0882 0.0077,-0.16992 0.01964,-0.24598 z m 3.879866,11.41326 c -0.43111,-0.004 -0.862363,-0.004 -1.293461,0.003 -0.867931,0.0225 -1.742784,0.0886 -2.586405,0.30024 v 27.15599 c 0.0049,-0.007 0.0096,-0.0146 0.01447,-0.0217 0.703398,-1.04209 0.708562,-0.99036 1.545126,-1.9704 0.337511,-0.35814 0.660847,-0.73097 1.012858,-1.07487 0.573534,-0.56037 1.781225,-1.59555 2.411739,-2.05778 0.410267,-0.30076 0.844138,-0.56846 1.276408,-0.83664 0.449543,-0.2789 0.899866,-0.55839 1.368392,-0.80408 0.12327,-0.0646 0.251112,-0.12003 0.377754,-0.17777 -0.130244,-0.0678 -0.259559,-0.13707 -0.380338,-0.22014 -1.048051,-0.72081 -1.557817,-1.92478 -1.866553,-3.11092 -0.06633,-0.31812 -0.151234,-0.63302 -0.198954,-0.95447 -0.07084,-0.47713 -0.109526,-0.97264 -0.127124,-1.47381 -4.76e-4,-10e-5 -0.0011,-5.3e-4 -0.0016,-5.3e-4 -0.193795,-0.0415 -0.367253,-0.14915 -0.55087,-0.22375 -0.198991,-0.10839 -0.4083,-0.19991 -0.596863,-0.32557 -0.155188,-0.10343 -0.294535,-0.22986 -0.429431,-0.35863 -0.652225,-0.62263 -1.053589,-1.39189 -1.307931,-2.25154 -0.07032,-0.25653 -0.15346,-0.51024 -0.21084,-0.76998 -0.338288,-1.53136 -0.306896,-3.12289 -0.01137,-4.65708 0.07632,-0.35203 0.136606,-0.7081 0.228926,-1.05627 0.430775,-1.62456 1.180244,-3.16062 2.265495,-4.44727 0.179498,-0.208 0.355721,-0.41908 0.538985,-0.62374 -0.492886,-0.0139 -0.985487,-0.0376 -1.478463,-0.0424 z m 3.272152,0.0935 c -0.07023,0.066 -0.144324,0.12771 -0.21394,0.19431 -0.195142,0.18669 -0.396053,0.36843 -0.580327,0.56585 -0.195584,0.20954 -0.372053,0.43617 -0.558105,0.65423 -0.976103,1.15336 -1.632893,2.5381 -2.014864,3.99614 -0.0808,0.30843 -0.131167,0.62386 -0.196887,0.93586 -0.265451,1.37387 -0.287301,2.79832 0.02119,4.16822 0.04886,0.21698 0.121668,0.42785 0.182418,0.64182 0.23647,0.76035 0.617372,1.52123 1.314131,1.9606 0.107134,0.0676 0.227747,0.11076 0.343132,0.1633 0.03045,-0.66933 0.08736,-1.33453 0.17725,-1.96629 0.06386,-0.44886 0.165417,-0.89159 0.248047,-1.33738 0.109999,-0.46435 0.197242,-0.93422 0.329696,-1.39268 0.187383,-0.64859 0.606059,-1.759 0.964282,-2.33578 0.173164,-0.27882 0.852237,-0.84655 1.105875,-0.99994 0.162053,-0.098 0.35232,-0.13812 0.52865,-0.20722 0.22699,-0.0388 0.451013,-0.10679 0.681096,-0.11679 0.173214,-0.008 0.345928,0.0327 0.516247,0.0651 0.867217,0.16493 1.650151,0.5909 2.407605,1.02733 0.232581,0.14687 0.471337,0.28441 0.697632,0.4408 0.906395,0.62638 1.887737,1.45428 2.550232,2.33939 0.1363863,0.18222 0.2348219,0.3896 0.3524332,0.58446 0.096285,0.24601 0.2259655,0.48188 0.2888713,0.73846 0.043347,0.1768 0.040662,0.36375 0.025839,0.54519 -0.018441,0.22567 -0.052977,0.45302 -0.1250569,0.66766 -0.052554,0.15647 -0.1510612,0.29449 -0.2439128,0.43098 -0.3343354,0.49149 -0.3686103,0.47182 -0.8087358,0.85007 -0.187262,0.13216 -0.365906,0.27724 -0.561723,0.39636 -0.49625,0.30188 -1.026961,0.53235 -1.574064,0.72141 0.03406,1.30524 0.10879,2.60872 0.158647,3.91345 0.01824,0.48211 0.02261,0.96457 0.031,1.44694 0.109739,0.0398 0.201183,0.12339 0.302308,0.18397 0.03213,0.14373 0.08126,0.2856 0.122473,0.4284 0.07369,-0.0903 0.16613,-0.20127 0.214974,-0.26149 0.816076,-0.97575 1.38258,-2.10358 1.8779208,-3.26595 0.2636094,-0.64897 0.4934789,-1.31173 0.5927289,-2.00659 0.01292,-0.21434 -0.032875,-0.41153 -0.098702,-0.61237 -0.2240019,-0.68342 0.07886,-1.10637 0.4516519,-1.12758 0.2899489,-0.0165 0.6221841,0.21027 0.7823811,0.74621 0.1156748,0.387 0.1856722,0.77422 0.1426271,1.18081 -0.1199007,0.80438 -0.3724227,1.57568 -0.6831624,2.32647 -0.5436753,1.27177 -1.1715638,2.50402 -2.0629224,3.57291 -0.226988,0.27971 -0.529373,0.658 -0.767396,0.93172 -0.06426,0.0739 -0.132081,0.14486 -0.201021,0.21446 -0.01138,0.0114 -0.02403,0.0214 -0.03617,0.032 0.172031,0.0849 0.369331,0.13359 0.527616,0.22686 0.54951,0.24356 1.097055,0.49148 1.6484779,0.73071 0.094129,-0.7734 0.2169885,-1.54284 0.3917074,-2.30322 0.062879,-0.25737 0.1176229,-0.51681 0.1886191,-0.77205 0.2025282,-0.72812 0.4918363,-1.43014 0.784448,-2.12545 0.1859815,-0.44194 0.4692703,-0.64664 0.7245035,-0.66766 0.4253889,-0.035 0.772777,0.43973 0.4625041,1.17616 -0.2775833,0.65883 -0.55148,1.32454 -0.7425901,2.01486 -0.06199,0.22393 -0.1082472,0.45202 -0.1622642,0.67799 -0.1915642,0.84003 -0.3180998,1.69112 -0.4113443,2.54663 0.056431,0.027 0.1153406,0.0485 0.1715656,0.076 0.5267942,0.2445 1.0602794,0.47982 1.5678629,0.76324 0.2315096,0.12927 0.4945253,0.2722 0.6924643,0.45836 0.1100125,0.10354 0.2056877,0.22117 0.3085084,0.33179 0.289613,0.58108 0.2245665,0.92707 -0.1147217,1.44796 -0.3534127,0.52422 -0.7444928,1.0223 -1.1451497,1.51104 -0.3003323,0.3407 -0.5505032,0.72059 -0.8278564,1.0795 0.2040972,0.22756 0.4057351,0.47381 0.6340697,0.80203 0.2470759,0.35515 0.4976561,0.7149 0.6692098,1.11207 0.1215951,0.28151 0.1326584,0.59875 0.1989543,0.89813 -0.026117,0.35798 0.017611,0.72792 -0.078032,1.07386 -0.065947,0.2385 -0.2390092,0.43595 -0.3927409,0.62992 -0.1823677,0.23005 -0.3796477,0.45347 -0.6102985,0.63511 -0.2067784,0.16282 -0.4506814,0.27445 -0.6883302,0.38756 -0.1547622,0.0737 -0.2582238,0.11869 -0.3653522,0.16536 0.8715163,0.12055 1.7461079,0.22368 2.6055256,0.41704 0.733515,0.16639 1.4598901,0.36399 2.1698934,0.61185 3.704e-4,-0.40669 3.704e-4,-0.81346 0.00206,-1.22008 0.00284,-0.62555 0.00697,-1.25089 0.017052,-1.87637 0.01302,-0.75044 0.031495,-1.50087 0.06873,-2.25052 0.033436,-0.71675 0.062168,-1.43298 0.059428,-2.15077 0.012256,-0.6659 0.027644,-1.33223 0.082682,-1.99625 0.022876,-0.27641 0.051641,-0.55214 0.080615,-0.82786 -0.026565,-0.72948 -0.035918,-1.45955 -0.042375,-2.18953 -0.0067,-0.81396 -0.00844,-1.62775 -0.00982,-2.44172 -0.00114,-0.74157 -0.00132,-1.48309 -0.00156,-2.22467 -1.915e-4,-0.6825 3.23e-5,-1.36542 0,-2.04794 -0.0035,-0.6775 0.045239,-1.3538 0.073897,-2.03036 0.025696,-0.60261 0.036058,-1.20561 0.043408,-1.80868 0.0069,-0.62832 0.00853,-1.2568 0.00982,-1.88516 0.00228,-0.80018 0.04768,-1.59973 0.075448,-2.39933 0.029108,-0.72835 0.027739,-1.45708 0.055811,-2.1854 0.033221,-0.66138 0.069512,-1.32255 0.093018,-1.98437 0.012562,-0.51206 0.069852,-1.02186 0.1038696,-1.53273 0.023932,-0.35301 0.035052,-0.70675 0.044442,-1.0604 0.00566,-0.21314 0.084153,-0.33553 0.1477945,-0.47594 -0.6064352,-0.005 -1.2126625,-0.0254 -1.8184935,-0.0506 -2.1469178,-0.12244 -4.2921741,-0.27 -6.4399164,-0.38086 -2.309931,-0.10813 -4.62045,-0.20586 -6.930844,-0.30385 -0.202124,-0.007 -0.404516,-0.01 -0.606681,-0.0171 z m 2.179195,6.20686 c -0.08599,0.007 -0.161375,0.0624 -0.241845,0.0935 -0.108765,0.0477 -0.228729,0.0752 -0.326079,0.14315 -0.08255,0.0577 -0.642672,0.67261 -0.649572,0.68471 -0.140918,0.24607 -0.215966,0.52446 -0.313676,0.79065 -0.462649,1.26043 -0.351525,0.98228 -0.668693,2.35283 -0.07845,0.42583 -0.174788,0.84868 -0.235128,1.27744 -0.08669,0.616 -0.141492,1.2734 -0.165365,1.93477 0.310934,-0.001 0.614356,-0.006 0.656291,-0.008 0.987998,-0.0507 1.959435,-0.2029 2.931087,-0.37827 0.459179,-0.0983 0.923011,-0.20559 1.383378,-0.32608 -0.0067,-0.62807 -0.01135,-1.25617 -0.02636,-1.88413 -0.01228,-0.43575 -0.02115,-0.8737 -0.07751,-1.30638 -0.09289,-0.71319 0.269521,-1.0825 0.634586,-1.04386 v -5.3e-4 c 0.283947,0.0301 0.569325,0.30705 0.643889,0.86145 0.06469,0.48103 0.07657,0.96748 0.09043,1.45211 0.01229,0.50336 0.01643,1.00694 0.02119,1.5105 0.344025,-0.1388 0.678785,-0.2986 0.99632,-0.49453 0.143197,-0.0884 0.2709,-0.20018 0.406178,-0.30025 0.336972,-0.2957 0.322956,-0.23206 0.5271,-0.5731 0.0546,-0.0912 0.122378,-0.17917 0.148827,-0.28215 0.01607,-0.0626 -0.01947,-0.12804 -0.02687,-0.19224 -0.05033,-0.43852 0.03131,-0.20931 -0.208257,-0.60409 -0.09228,-0.1471 -0.16994,-0.30458 -0.276986,-0.44132 -0.136123,-0.17388 -0.295186,-0.32891 -0.449585,-0.48679 -0.541197,-0.5534 -1.137842,-1.05752 -1.776119,-1.49655 -0.196541,-0.13519 -0.404726,-0.25265 -0.607198,-0.37879 -0.635465,-0.3475 -1.28286,-0.74713 -2.009696,-0.86196 -0.126091,-0.0199 -0.253124,-0.0525 -0.380338,-0.0419 z m 2.400371,7.89254 c -0.395095,0.097 -0.791555,0.186 -1.184941,0.26924 -1.044289,0.18616 -2.087778,0.34932 -3.149679,0.39842 -0.200055,0.009 -0.429105,0.0114 -0.663525,0.009 0.01948,0.42326 0.05315,0.84045 0.113688,1.24023 0.04114,0.27171 0.117477,0.53718 0.176217,0.80564 0.205873,0.69791 0.155944,0.65467 0.469739,1.26917 0.08651,0.1694 0.168286,0.34361 0.280603,0.49713 0.105795,0.14461 0.539786,0.53213 0.685746,0.62683 0.130269,0.0845 0.278392,0.13781 0.417545,0.20671 0.25834,0.11428 0.531283,0.20884 0.80977,0.28008 0.344329,-0.14066 0.640943,-0.24791 1.299662,-0.42529 0.296318,-0.0798 0.606486,-0.15653 0.919841,-0.20981 -0.01009,-0.45753 -0.01165,-0.91525 -0.02894,-1.37253 -0.04575,-1.19839 -0.108422,-2.39597 -0.145727,-3.59461 z m 0.214974,6.87348 c -0.590332,0.0955 -1.179377,0.17527 -1.78077,0.12248 -0.118233,-0.0104 -0.235956,-0.0311 -0.353467,-0.0506 -0.150628,0.0642 -0.201639,0.0856 -0.479041,0.20051 -0.390417,0.17719 -0.791564,0.33157 -1.170988,0.53123 -0.427146,0.22476 -0.835643,0.48408 -1.244885,0.74001 -0.414103,0.25896 -0.831282,0.51521 -1.224731,0.80461 -0.558469,0.41074 -1.751966,1.44429 -2.254643,1.93683 -0.326263,0.31967 -0.624644,0.66654 -0.936894,0.99994 -0.792215,0.93031 -0.782384,0.86146 -1.434021,1.83452 -0.444909,0.66437 -0.542403,0.7902 -0.783931,1.50016 -0.222206,0.65315 -0.195597,0.46926 -0.104387,1.01751 0.04435,0.12874 0.05019,0.27778 0.132809,0.38602 0.06847,0.0898 0.195851,0.11272 0.292488,0.17106 0.157912,0.0952 0.300362,0.22018 0.471289,0.28937 0.217177,0.0879 0.451705,0.12663 0.680579,0.17674 0.993843,0.21747 0.815012,0.15664 1.922363,0.18603 0.535485,0 1.069712,-0.0327 1.602487,-0.0806 -0.339863,-1.38826 -0.358907,-2.84884 -0.281637,-4.26537 0.04398,-0.3652 0.06203,-0.73438 0.131775,-1.09553 0.05852,-0.30303 0.145947,-0.60095 0.251664,-0.89091 0.115613,-0.31708 0.234943,-0.63751 0.410828,-0.92551 0.263203,-0.43109 0.831808,-0.89868 1.281575,-1.09297 0.223254,-0.0965 0.478175,-0.0888 0.717269,-0.13332 0.294892,0.003 0.59213,-0.0322 0.884701,0.005 0.295776,0.0374 0.581447,0.13305 0.867647,0.21653 0.812177,0.23696 1.591035,0.56414 2.351278,0.93276 0.01894,-0.32557 0.04873,-0.6505 0.05788,-0.97668 0.02233,-0.80351 -0.0027,-1.60754 -0.0047,-2.41123 -5.03e-4,-0.0427 -0.0021,-0.0854 -0.0026,-0.12816 z m 1.704805,0.29508 c -0.0081,0.0108 -0.04837,2.6e-4 -0.03927,0.0103 0.01828,0.0201 0.03842,0.0371 0.05891,0.0543 -0.0064,-0.0216 -0.01225,-0.0434 -0.01964,-0.0646 z m -0.408244,1.30432 c 0.0012,0.32469 0.01,0.64947 0.0016,0.97409 -0.01499,0.53252 -0.05678,1.06352 -0.09405,1.59475 0.0997,0.0553 0.201115,0.10766 0.30024,0.1638 0.566698,-0.17976 0.966825,-0.2245 1.524455,0.0455 0.09992,0.0484 0.170995,0.14243 0.256315,0.21342 0.08982,0.1166 0.194035,0.22285 0.269235,0.34932 0.1279933,0.21535 0.1697541,0.45988 0.1927527,0.70644 0.021217,-0.47683 0.045132,-0.9535 0.072347,-1.42989 0.032194,-0.48185 0.067409,-0.96406 0.1085207,-1.44592 -0.6778834,-0.30038 -1.3559344,-0.60028 -2.0339844,-0.90072 -0.201329,-0.0838 -0.405064,-0.1688 -0.59738,-0.27077 z m 3.8814171,1.73529 c -0.024789,0.32269 -0.048818,0.6454 -0.07028,0.9679 -0.045561,0.80849 -0.084337,1.61766 -0.1090372,2.42724 0.00533,0.004 0.011176,0.01 0.016537,0.014 0.2698313,-0.3447 0.5083749,-0.71337 0.7978841,-1.04233 0.3629967,-0.44738 0.7208385,-0.90029 1.0423136,-1.37871 0.019315,-0.0327 0.038748,-0.065 0.057878,-0.0977 -0.00289,-0.006 -0.00566,-0.0122 -0.00827,-0.0156 -0.01556,0.003 -0.032891,0.0122 -0.046509,0.005 -0.062062,-0.0351 -0.1144799,-0.0855 -0.1715656,-0.12816 -0.096773,-0.0535 -0.1929461,-0.10795 -0.2904215,-0.16018 -0.398313,-0.21349 -0.8088585,-0.40119 -1.2185303,-0.59118 z m -8.7576051,0.28681 c -0.182515,-0.0217 -0.36686,0.0212 -0.550354,0.032 -0.162506,0.0362 -0.339455,0.032 -0.487309,0.10851 -0.105542,0.0546 -0.161205,0.17473 -0.237195,0.26614 -0.106662,0.12825 -0.232735,0.24469 -0.310575,0.39222 -0.09558,0.18119 -0.142804,0.38439 -0.202571,0.58034 -0.264078,0.86569 -0.197643,0.69299 -0.296623,1.64483 -0.06685,1.31617 -0.0453,2.67436 0.290938,3.95947 0.718054,-0.11377 1.43162,-0.25805 2.134237,-0.44286 0.31445,-0.0827 0.628254,-0.16833 0.938961,-0.26408 6.09e-4,-0.0119 9.26e-4,-0.0238 0.0016,-0.0356 0.03661,-0.76671 0.05946,-0.70588 0.24908,-1.41904 0.08554,-0.24376 0.155384,-0.49342 0.256315,-0.73123 0.369651,-0.87096 0.94404,-1.6727 1.629358,-2.32595 0.01202,-0.15645 0.01596,-0.3134 0.02946,-0.46975 -0.857021,-0.44378 -1.737919,-0.83957 -2.665987,-1.10431 -0.257175,-0.0734 -0.513729,-0.15899 -0.779281,-0.19069 z m 10.5642131,0.47593 c 0.00486,-0.013 -0.017095,0.0241 -0.029972,0.03 -0.00475,0.003 -0.00638,-0.019 -0.00723,-0.014 -0.00302,0.018 -0.00225,0.0367 -0.00206,0.0553 0.014213,-0.023 0.029892,-0.0459 0.039274,-0.0713 z m -5.5567671,1.67588 c -0.04931,0.0326 -0.08921,0.0651 -0.295072,0.21291 -0.01473,0.0111 -0.02828,0.0238 -0.04289,0.0351 -0.03669,0.5492 -0.08123,1.09792 -0.104386,1.64796 -0.0086,0.20643 -0.009,0.41309 -0.01499,0.6196 0.487449,-0.35914 0.932782,-0.77041 1.240751,-1.30225 0.06886,-0.11891 0.103339,-0.25453 0.155029,-0.38188 0.01665,-0.0662 0.03557,-0.13739 0.05374,-0.20928 -0.247545,-0.15851 -0.476197,-0.29996 -0.942061,-0.59378 -0.01655,-0.01 -0.03357,-0.0188 -0.05013,-0.0284 z m 2.091862,1.41644 c -0.08586,0.18902 -0.160429,0.38415 -0.267684,0.56174 -0.530631,0.87842 -1.424435,1.58369 -2.317171,2.11717 -0.0041,0.38534 -0.0066,0.7706 -0.0078,1.15599 -10e-4,0.38182 -0.0011,0.76388 -0.0016,1.14567 v 0.0873 c 0.148281,0.0458 0.296167,0.0935 0.447518,0.12713 0.123004,0.003 0.245984,0.003 0.36897,0.005 0.02733,-0.0589 0.04189,-0.13115 0.06873,-0.18553 0.295963,-0.61864 0.590632,-1.23788 0.889351,-1.85517 0.283592,-0.60167 0.638214,-1.16404 0.9865028,-1.72961 -0.0018,-0.10353 -0.0061,-0.20699 -0.0062,-0.31057 4.21e-5,-0.328 0.00388,-0.65601 0.010335,-0.98393 -0.054981,-0.0431 -0.1132968,-0.0895 -0.1710498,-0.13539 z m -3.824572,0.43048 c -0.126648,0.21765 -0.239272,0.44341 -0.335897,0.6759 -0.07616,0.18325 -0.124352,0.37688 -0.186552,0.56537 -0.07456,0.28641 -0.112436,0.40449 -0.137459,0.52294 0.0024,0 0.0048,-0.003 0.0072,-0.003 0.204619,-0.0965 0.411558,-0.18846 0.6165,-0.28422 0.0087,-0.49239 0.01578,-0.9848 0.03617,-1.4769 z m 5.4570309,1.05987 c -0.018399,0.0278 -0.04274,0.0512 -0.060978,0.079 -0.038368,0.0605 -0.068275,0.12595 -0.1064535,0.18656 0.0244,0.68165 0.083539,1.36192 0.1679485,2.03864 0.016169,0.11496 0.031891,0.22974 0.048059,0.34468 0.039609,0.28159 0.00461,0.50628 -0.07183,0.67646 0.025807,-0.013 0.026929,-0.007 0.054777,-0.0212 0.1892758,-0.0968 0.3880247,-0.18447 0.5519042,-0.31988 0.1202304,-0.0993 0.1986163,-0.24051 0.2847372,-0.37052 0.093161,-0.14068 0.2222963,-0.27364 0.2516642,-0.43977 0.022987,-0.13004 -0.071309,-0.25424 -0.1069702,-0.38137 -0.054649,-0.20807 -0.068183,-0.43156 -0.1638144,-0.62426 -0.1293323,-0.26056 -0.3243641,-0.48331 -0.5007446,-0.71469 -0.1154203,-0.15134 -0.2298568,-0.30435 -0.3482991,-0.45371 z m -5.5133589,1.84795 c -0.03863,0.0177 -0.07785,0.0342 -0.116272,0.0522 -0.14722,0.0585 -0.293456,0.12038 -0.439766,0.18137 0.02259,0.0513 0.04605,0.10247 0.06821,0.15348 0.06654,0.15312 0.118904,0.31642 0.219625,0.44958 0.0709,0.0937 0.16937,0.16195 0.264066,0.23358 1.3e-4,-0.1922 1.22e-4,-0.38439 5.29e-4,-0.57672 5.03e-4,-0.16446 0.0027,-0.32898 0.0036,-0.4935 z m 4.2095624,0.41392 c -0.2319796,0.47974 -0.4611204,0.96059 -0.6909134,1.44126 0.07594,-0.008 0.151516,-0.0188 0.226342,-0.0357 0.0486,-0.0172 0.09712,-0.0345 0.145728,-0.0517 0.3532013,-0.12528 0.635547,-0.1 0.8309568,0.004 8.467e-4,-1.9e-4 0.00228,0 0.0031,0 -0.20556,-0.1165 -0.3834923,-0.37397 -0.4418335,-0.79013 -0.017071,-0.12179 -0.034088,-0.24408 -0.05116,-0.36586 -0.00826,-0.0669 -0.014404,-0.1341 -0.02222,-0.20104 z m -5.9650104,0.25013 c -0.272698,0.0797 -0.546756,0.15426 -0.821655,0.22583 -0.647419,0.16854 -1.303971,0.30173 -1.963705,0.41494 0.06365,0.131 0.126685,0.23043 0.320394,0.42117 0.07943,0.0782 0.156391,0.16377 0.253731,0.21807 0.06819,0.038 0.1519,0.035 0.22841,0.0506 0.433023,0.0884 0.259209,0.061 0.753959,0.0755 0.688042,-0.018 1.374111,-0.0669 2.06034,-0.1142 -0.17728,-0.18396 -0.366722,-0.35822 -0.511597,-0.56793 -0.129795,-0.1879 -0.210224,-0.40703 -0.286804,-0.62219 -0.01194,-0.0335 -0.02152,-0.0681 -0.03307,-0.10179 z m -9.829891,0.15553 v 0.003 7.35357 h 21.1351439 c 0.049289,-0.18664 0.097533,-0.37357 0.1529623,-0.55862 0.1111115,-0.33753 0.2466808,-0.66601 0.3700034,-0.99944 0.036676,-0.11985 0.1211659,-0.20973 0.1865518,-0.31162 -0.3000734,-0.10023 -0.594197,-0.21778 -0.8909018,-0.32711 -0.4674251,-0.16449 -0.936245,-0.32879 -1.4149006,-0.45783 -0.3412038,-0.0829 -0.6861353,-0.14124 -1.015442,-0.26615 -0.5953572,-0.27617 -0.3875905,-0.49789 0.085783,-0.94876 -0.5156226,-0.0822 -1.0336318,-0.14889 -1.5508097,-0.22067 -0.6534785,-0.0714 -1.3052578,-0.15737 -1.9585373,-0.23048 -0.412104,-0.0589 -0.821789,-0.11644 -1.194759,-0.3085 -0.08182,-0.0732 -0.170883,-0.13904 -0.245463,-0.21963 -0.03311,-0.0358 -0.0058,-0.0846 -0.03101,-0.12248 -0.12077,-0.0156 -0.241807,-0.0322 -0.362251,-0.0532 -0.252356,-0.003 -0.504663,-0.006 -0.75706,-0.003 -1.326805,0.0331 -2.645722,0.19304 -3.972884,0.21085 -0.67537,-0.0433 -1.190812,-0.0707 -1.782837,-0.4563 -0.148515,-0.0967 -0.271165,-0.22992 -0.38964,-0.36174 -0.409312,-0.4554 -0.413093,-0.53917 -0.653191,-1.04127 -0.689185,0.0733 -1.381857,0.11155 -2.075842,0.10851 -0.425028,-0.0169 -0.852398,-0.006 -1.275374,-0.0506 -0.328874,-0.035 -0.654077,-0.10512 -0.974101,-0.18862 -0.342968,-0.0894 -0.689061,-0.18042 -1.010791,-0.32917 -0.121821,-0.0563 -0.248613,-0.13179 -0.374654,-0.21913 z" />
    </clipPath>
    <clipPath
       clipPathUnits="userSpaceOnUse"
       id="clipPath70">
      <path
         id="path71"
         style="fill:#ff0000;fill-opacity:1;fill-rule:nonzero;stroke:none;stroke-width:0.264583"
         d="M -28.300082,228.99687 V 285.75 H 0 v -56.75313 z m 16.973642,7.87704 v 0.002 c 1.278498,0.0155 1.278452,1.3108 0,1.29191 -0.45498,-0.007 -0.913469,-0.005 -1.359607,0.10026 -0.135435,0.032 -0.265184,0.0842 -0.397909,0.12609 -1.157598,0.39385 -2.169904,1.10372 -3.14141,1.82883 -0.827459,0.63049 -1.614256,1.31245 -2.365747,2.0314 -0.195142,0.18669 -0.396053,0.36843 -0.580327,0.56585 -0.195584,0.20954 -0.372053,0.43617 -0.558105,0.65423 -0.976103,1.15336 -1.632893,2.5381 -2.014864,3.99614 -0.0808,0.30843 -0.131167,0.62386 -0.196887,0.93586 -0.265451,1.37387 -0.287301,2.79832 0.02119,4.16822 0.04886,0.21698 0.121668,0.42785 0.182418,0.64182 0.23647,0.76035 0.617372,1.52123 1.314131,1.9606 0.107134,0.0676 0.227746,0.11076 0.343132,0.1633 0.03045,-0.66933 0.08736,-1.33453 0.17725,-1.96629 0.06386,-0.44886 0.165417,-0.89159 0.248047,-1.33738 0.109999,-0.46435 0.197242,-0.93422 0.329696,-1.39268 0.187384,-0.64859 0.60606,-1.759 0.964282,-2.33578 0.173164,-0.27882 0.852236,-0.84655 1.105875,-0.99994 0.162053,-0.098 0.352319,-0.13812 0.52865,-0.20722 0.22699,-0.0389 0.451014,-0.10679 0.681096,-0.11679 0.173214,-0.007 0.345927,0.0327 0.516247,0.0651 0.867217,0.16493 1.650151,0.5909 2.407605,1.02733 0.232581,0.14687 0.471337,0.28441 0.697632,0.4408 0.906395,0.62638 1.887736,1.45428 2.550232,2.33939 0.1363863,0.18222 0.2348219,0.3896 0.3524332,0.58446 0.096285,0.24601 0.2259655,0.48188 0.2888713,0.73846 0.043347,0.1768 0.040662,0.36375 0.025839,0.54519 -0.018441,0.22566 -0.052977,0.45302 -0.1250569,0.66766 -0.052553,0.15647 -0.1510612,0.29449 -0.2439128,0.43098 -0.3343352,0.49149 -0.3686101,0.47183 -0.8087358,0.85007 -0.187262,0.13217 -0.365907,0.27724 -0.561723,0.39636 -1.22378,0.74444 -2.653326,1.06594 -4.036446,1.35858 -1.044289,0.18616 -2.087778,0.34932 -3.149679,0.39842 -0.200056,0.009 -0.429106,0.0114 -0.663525,0.009 0.01948,0.42326 0.05315,0.84045 0.113688,1.24023 0.04114,0.27171 0.117477,0.53718 0.176217,0.80564 0.205873,0.69791 0.155944,0.65467 0.469739,1.26917 0.08651,0.1694 0.168286,0.34361 0.280603,0.49713 0.105795,0.14461 0.539786,0.53213 0.685746,0.62683 0.130269,0.0845 0.278391,0.13781 0.417545,0.20671 0.258339,0.11428 0.531283,0.20884 0.80977,0.28008 0.344328,-0.14066 0.640943,-0.24791 1.299662,-0.42529 0.693342,-0.18672 1.456665,-0.38499 2.180746,-0.20102 0.12579,0.032 0.222493,0.13328 0.33383,0.19998 0.06559,0.29337 0.202387,0.57948 0.196887,0.88005 -0.0022,0.11898 -0.130415,0.20217 -0.218075,0.28267 -0.382406,0.35111 -0.963783,0.3954 -1.439188,0.52142 -0.621838,0.10228 -1.241512,0.19099 -1.874821,0.13539 -0.118233,-0.0104 -0.235956,-0.0311 -0.353467,-0.0506 -0.150628,0.0642 -0.20164,0.0856 -0.479041,0.2005 -0.390418,0.17719 -0.791565,0.33158 -1.170988,0.53124 -0.427147,0.22476 -0.835643,0.48407 -1.244885,0.74 -0.414103,0.25895 -0.831281,0.51522 -1.224731,0.8046 -0.558468,0.41073 -1.751965,1.44428 -2.254643,1.93682 -0.326262,0.31973 -0.624645,0.66657 -0.936894,0.99994 -0.792216,0.93033 -0.782385,0.86146 -1.434021,1.83452 -0.44491,0.66437 -0.542403,0.79026 -0.783931,1.50019 -0.222206,0.65315 -0.195597,0.46926 -0.104387,1.01748 0.04435,0.12874 0.05019,0.27778 0.132809,0.38603 0.06847,0.0897 0.19585,0.11273 0.292488,0.17105 0.157912,0.0952 0.300361,0.22019 0.471289,0.28937 0.217176,0.0879 0.451706,0.12663 0.680579,0.17675 0.993843,0.21746 0.815012,0.15663 1.922363,0.18602 0.535484,0 1.069712,-0.0326 1.602487,-0.0806 -0.339863,-1.38829 -0.358907,-2.84885 -0.281637,-4.26537 0.04398,-0.36518 0.06202,-0.73441 0.131775,-1.09556 0.05852,-0.303 0.145948,-0.60092 0.251664,-0.89088 0.115613,-0.3171 0.234943,-0.63701 0.410828,-0.92501 0.263204,-0.43109 0.831807,-0.89921 1.281575,-1.09347 0.223253,-0.0965 0.478175,-0.0888 0.717269,-0.13332 0.294891,0.003 0.59213,-0.0322 0.884701,0.005 0.295777,0.0374 0.581448,0.13303 0.867647,0.21651 1.374785,0.40108 2.662006,1.04413 3.906221,1.74874 0.566697,-0.17973 0.966824,-0.22447 1.524455,0.0455 0.09992,0.0484 0.170995,0.14243 0.256315,0.21341 0.08982,0.1166 0.194035,0.22283 0.269235,0.34933 0.1144177,0.19249 0.1675812,0.40603 0.1963697,0.62479 0.020423,-0.44961 0.043068,-0.89903 0.068729,-1.34824 0.1142325,-1.70979 0.2535769,-3.42656 0.6382041,-5.10046 0.062879,-0.25737 0.1176229,-0.51681 0.1886191,-0.77205 0.2025282,-0.72812 0.4918363,-1.43014 0.784448,-2.12545 0.1859815,-0.44194 0.4692703,-0.64664 0.7245035,-0.66766 0.4253889,-0.035 0.772777,0.43973 0.4625041,1.17616 -0.2775833,0.65883 -0.55148,1.32454 -0.7425901,2.01486 -0.06199,0.22393 -0.1082472,0.45202 -0.1622642,0.67799 -0.3654825,1.60268 -0.4962306,3.24594 -0.6051309,4.88239 -0.045561,0.80849 -0.084337,1.61766 -0.1090372,2.42723 0.6500497,0.54658 1.0495558,0.93065 1.5895669,1.70688 0.2470759,0.35515 0.4976559,0.71491 0.6692098,1.11207 0.1215949,0.28152 0.1326587,0.59876 0.1989543,0.89813 -0.026117,0.35798 0.017611,0.72792 -0.078032,1.07387 -0.065947,0.23849 -0.2390092,0.43598 -0.3927409,0.62992 -0.1823677,0.23008 -0.3796477,0.45347 -0.6102985,0.6351 -0.2067782,0.16283 -0.4506814,0.27446 -0.6883302,0.38756 -0.8396806,0.39968 -0.8142732,0.33814 -1.7032552,0.5111 -0.3220659,0.0361 -0.6420623,0.0939 -0.9658323,0.108 -0.539596,0.0236 -1.12351,-0.014 -1.698087,-0.11422 -0.252356,-0.003 -0.504663,-0.006 -0.75706,-0.003 -1.326804,0.0331 -2.645721,0.19304 -3.972884,0.21084 -0.675369,-0.0433 -1.190811,-0.0707 -1.782837,-0.4563 -0.148515,-0.0967 -0.271164,-0.22992 -0.38964,-0.36173 -0.409312,-0.45541 -0.413094,-0.53917 -0.653191,-1.04127 -0.689186,0.0733 -1.381856,0.11155 -2.075842,0.1085 -0.425028,-0.0169 -0.852397,-0.006 -1.275374,-0.0506 -0.328874,-0.035 -0.654077,-0.10512 -0.974101,-0.18862 -0.342967,-0.0894 -0.689061,-0.18042 -1.010791,-0.32917 -0.478943,-0.22137 -1.03884,-0.72591 -1.299662,-1.17255 -0.116582,-0.19966 -0.122884,-0.44537 -0.184484,-0.66818 -0.0069,-0.27951 -0.05521,-0.56126 -0.02066,-0.8387 0.0327,-0.26268 0.129606,-0.51433 0.219625,-0.76325 0.108874,-0.30107 0.226399,-0.60047 0.375688,-0.88368 0.159994,-0.30353 0.357363,-0.58587 0.54932,-0.87021 0.703397,-1.04214 0.708563,-0.99092 1.545126,-1.97096 0.337511,-0.35814 0.660847,-0.73097 1.012858,-1.07487 0.573534,-0.56036 1.781226,-1.59555 2.411739,-2.05775 0.410268,-0.30076 0.844138,-0.56846 1.276408,-0.83664 0.449543,-0.2789 0.899866,-0.55839 1.368392,-0.80408 0.123271,-0.0646 0.251112,-0.12003 0.377754,-0.17777 -0.130244,-0.0678 -0.259559,-0.13707 -0.380338,-0.22014 -1.048051,-0.72081 -1.557817,-1.92478 -1.866553,-3.11092 -0.06633,-0.31812 -0.151234,-0.63302 -0.198954,-0.95447 -0.07084,-0.47713 -0.109526,-0.97264 -0.127124,-1.47381 -4.76e-4,-1e-4 -0.0011,-5.3e-4 -0.0016,-5.3e-4 -0.193796,-0.0415 -0.367253,-0.14915 -0.55087,-0.22375 -0.198991,-0.10839 -0.4083,-0.19991 -0.596863,-0.32557 -0.155188,-0.10343 -0.294535,-0.22986 -0.429431,-0.35863 -0.652224,-0.62263 -1.05359,-1.39189 -1.307931,-2.25154 -0.07031,-0.25653 -0.15346,-0.51024 -0.21084,-0.76998 -0.338289,-1.53136 -0.306897,-3.12289 -0.01137,-4.65708 0.07632,-0.35203 0.136605,-0.7081 0.228925,-1.05627 0.430775,-1.62456 1.180244,-3.16062 2.265496,-4.44727 0.212292,-0.246 0.415227,-0.50061 0.637169,-0.73794 0.189948,-0.20312 0.396268,-0.38981 0.59738,-0.58188 0.787491,-0.75209 1.612011,-1.46647 2.478918,-2.12597 1.094066,-0.8129 2.235108,-1.59992 3.541386,-2.03036 0.190695,-0.055 0.378638,-0.12035 0.572058,-0.16485 0.509813,-0.11759 1.036754,-0.12176 1.556495,-0.11576 z m -4.871538,11.39259 c -0.08599,0.007 -0.161375,0.0624 -0.241845,0.0935 -0.108765,0.0477 -0.228729,0.0751 -0.326079,0.14315 -0.08255,0.0577 -0.642672,0.67261 -0.649572,0.68471 -0.140918,0.24607 -0.215966,0.52446 -0.313676,0.79065 -0.462649,1.26043 -0.351525,0.98228 -0.668693,2.35283 -0.07845,0.42583 -0.174788,0.84868 -0.235128,1.27744 -0.08669,0.616 -0.141492,1.2734 -0.165365,1.93477 0.310934,-0.001 0.614356,-0.006 0.656291,-0.008 0.987998,-0.0507 1.959435,-0.2029 2.931087,-0.37827 1.25448,-0.26851 2.558392,-0.548 3.665926,-1.23145 0.143196,-0.0884 0.270901,-0.20017 0.406177,-0.30024 0.336973,-0.2957 0.322957,-0.23206 0.5271,-0.5731 0.0546,-0.0912 0.122378,-0.17917 0.148828,-0.28215 0.01607,-0.0626 -0.01947,-0.12804 -0.02687,-0.19224 -0.05033,-0.43853 0.03131,-0.20931 -0.208256,-0.60409 -0.09228,-0.1471 -0.169941,-0.30458 -0.276986,-0.44132 -0.136124,-0.17387 -0.295186,-0.32891 -0.449585,-0.48679 -0.541197,-0.5534 -1.137842,-1.05752 -1.776119,-1.49655 -0.196542,-0.13519 -0.404728,-0.25266 -0.607198,-0.37879 -0.635466,-0.34751 -1.28286,-0.74714 -2.009696,-0.86196 -0.126091,-0.0199 -0.253124,-0.0525 -0.380339,-0.0419 z m 3.428215,13.19713 c -0.01661,-0.005 -0.121957,0.0314 -0.15658,0.076 0.04108,-0.0161 0.08301,-0.0301 0.122473,-0.0496 0.03261,-0.0161 0.04052,-0.0243 0.03411,-0.0263 z m -4.392497,5.19039 c -0.182515,-0.0217 -0.36686,0.0212 -0.550354,0.032 -0.162506,0.0362 -0.339455,0.032 -0.487309,0.1085 -0.105542,0.0546 -0.161205,0.17473 -0.237195,0.26615 -0.106662,0.12824 -0.232735,0.24468 -0.310575,0.39221 -0.09558,0.18119 -0.142802,0.38442 -0.202571,0.58034 -0.264077,0.86569 -0.197643,0.693 -0.296623,1.64484 -0.06685,1.31617 -0.0453,2.67435 0.290938,3.95946 0.718055,-0.11377 1.431621,-0.25802 2.134237,-0.44286 0.31445,-0.0827 0.628254,-0.16833 0.938961,-0.26408 6.09e-4,-0.0119 9.26e-4,-0.0238 0.0016,-0.0356 0.03661,-0.76668 0.05946,-0.70588 0.24908,-1.41904 0.08554,-0.24376 0.155384,-0.49339 0.256315,-0.73123 0.383588,-0.90379 0.984341,-1.73709 1.704289,-2.40294 0.08766,-0.0811 0.182469,-0.15447 0.278019,-0.22636 -0.957803,-0.5126 -1.944831,-0.97271 -2.989481,-1.27071 -0.257175,-0.0734 -0.51373,-0.15899 -0.779281,-0.19068 z m 5.007446,2.1518 c -0.04931,0.0326 -0.08921,0.0651 -0.295072,0.21291 -0.781515,0.59248 -1.396418,1.40256 -1.773535,2.30992 -0.07616,0.18325 -0.124352,0.3769 -0.186552,0.56536 -0.07456,0.28644 -0.112437,0.40449 -0.137459,0.52295 0.0024,0 0.0048,-0.003 0.0072,-0.003 0.323766,-0.15274 0.657121,-0.28622 0.971,-0.45836 0.270297,-0.14822 0.524833,-0.32446 0.777731,-0.50075 0.558283,-0.38915 1.074186,-0.83823 1.420068,-1.43558 0.06886,-0.1189 0.10334,-0.25453 0.155029,-0.38187 0.01665,-0.0662 0.03557,-0.13737 0.05374,-0.20929 -0.247545,-0.15851 -0.476196,-0.29995 -0.942061,-0.59377 -0.01655,-0.0101 -0.03356,-0.0188 -0.05013,-0.0284 z m 2.091862,1.41645 c -0.08586,0.18901 -0.160429,0.38417 -0.267684,0.56173 -0.604452,1.00066 -1.68016,1.79118 -2.688724,2.3404 -0.336604,0.18328 -0.693799,0.32552 -1.040764,0.48837 -0.147219,0.0585 -0.293456,0.12038 -0.439766,0.18137 0.02259,0.0513 0.04605,0.10245 0.06821,0.15349 0.06654,0.15311 0.118904,0.31644 0.219625,0.44958 0.0911,0.12041 0.229594,0.19719 0.344165,0.29559 0.154593,0.11284 0.294074,0.24945 0.463537,0.33848 0.185275,0.0973 0.390677,0.15126 0.590145,0.21444 0.199743,0.0634 0.400151,0.12616 0.604614,0.17159 0.333525,0.004 0.66695,0.0101 1.000456,0.013 0.337143,0.003 0.68023,0.0238 1.010274,-0.0501 0.0486,-0.0172 0.09712,-0.0345 0.145728,-0.0517 0.3532011,-0.12528 0.635547,-0.1 0.8309568,0.004 0.00122,-2.6e-4 0.00241,0 0.00362,0 -0.2057345,-0.11639 -0.3839705,-0.37367 -0.4423503,-0.79012 -0.017071,-0.12179 -0.034088,-0.24408 -0.05116,-0.36587 -0.1161648,-0.94025 -0.1892427,-1.88597 -0.1901693,-2.83392 4.21e-5,-0.32801 0.00388,-0.65601 0.010335,-0.98394 -0.054981,-0.0431 -0.1132962,-0.0895 -0.1710492,-0.13538 z m 1.4557254,1.28674 c 0.00924,0.83863 0.073482,1.67593 0.1772502,2.50786 0.016169,0.11496 0.031891,0.22973 0.048059,0.34467 0.040048,0.28472 0.00385,0.51136 -0.074414,0.68215 0.023209,-0.0116 0.03252,-0.0138 0.057361,-0.0265 0.1892758,-0.0968 0.3880244,-0.18447 0.5519042,-0.31988 0.1202301,-0.0993 0.1986163,-0.24101 0.2847372,-0.37103 0.093161,-0.14065 0.2222965,-0.2731 0.2516642,-0.43923 0.022987,-0.13004 -0.071309,-0.25424 -0.1069702,-0.38137 -0.054649,-0.20807 -0.068182,-0.43156 -0.1638144,-0.62426 -0.1293323,-0.26056 -0.3243644,-0.48334 -0.5007446,-0.71469 -0.1700239,-0.22302 -0.341308,-0.44609 -0.5250326,-0.65784 z m -7.0920734,2.71561 c -0.272698,0.0797 -0.546756,0.15425 -0.821655,0.22582 -0.647419,0.16857 -1.303972,0.30176 -1.963705,0.41495 0.06365,0.13099 0.126685,0.23042 0.320394,0.42116 0.07943,0.0782 0.156391,0.16375 0.253731,0.21807 0.06819,0.038 0.1519,0.0351 0.22841,0.0506 0.433023,0.0884 0.259209,0.061 0.753959,0.0755 0.688042,-0.018 1.374111,-0.0669 2.06034,-0.11419 -0.17728,-0.18397 -0.366722,-0.35822 -0.511597,-0.56793 -0.129795,-0.18788 -0.210224,-0.40704 -0.286804,-0.6222 -0.01194,-0.0335 -0.02152,-0.068 -0.03307,-0.10178 z" />
    </clipPath>
  </defs>
  <g
     inkscape:label="Ebene 1"
     inkscape:groupmode="layer"
     id="layer1">
    <rect
       style="fill:#abdff5;fill-opacity:1;stroke-width:1.735;stroke-linejoin:round"
       id="rect1"
       width="508"
       height="95.25"
       x="0"
       y="0" />
    <rect
       style="fill:#c83737;stroke-width:1.735;stroke-linejoin:round"
       id="rect1-8"
       width="508"
       height="95.25"
       x="0"
       y="95" />
    <rect
       style="fill:#008033;stroke-width:1.735;stroke-linejoin:round"
       id="rect1-6"
       width="508"
       height="95.25"
       x="0"
       y="190" />
    <path
       id="path1"
       style="fill:#57bded;fill-opacity:1;stroke-width:1.735;stroke-linejoin:round"
       d="M 36.680965,16.01556 C 10.690175,16.01556 1.2250696,23.381032 0,24.423315 V 54.565662 L 508,66.649679 V 18.922876 C 471.46213,26.715373 496.23951,39.78756 440.17003,40.297282 383.34067,40.813911 354.92584,17.048821 289.83037,16.01556 224.73495,14.982299 194.77015,36.680946 137.42417,34.614425 80.07819,32.5479 64.579009,16.01556 36.680965,16.01556 Z" />
    <path
       id="path2"
       style="fill:#37a6de;fill-opacity:1;stroke-width:1.735;stroke-linejoin:round"
       d="M 76.561218,35.260897 C 32.927302,35.623269 1.5497762,50.629985 1.5497762,50.629985 L 0,54.019958 v 14.795997 l 508,7.837764 V 51.460942 c -8.3369,1.436806 -18.80734,3.111908 -29.08246,4.335135 C 457.21907,58.37923 427.77068,47.013334 379.72411,39.780518 331.67752,32.547695 271.74825,42.88038 231.96775,48.04668 192.18724,53.21298 167.90504,47.529947 108.4926,37.713977 97.352774,35.873484 86.630584,35.177272 76.561218,35.260897 Z" />
    <path
       id="path3"
       style="fill:#0779bf;fill-opacity:1;stroke-width:1.735;stroke-linejoin:round"
       d="M 45.725891,50.999988 C 20.581814,50.84667 7.1960882,56.745141 0,63.355823 V 100.23161 L 73.878178,102.29298 508,98.359888 V 60.939433 C 503.44733,59.90471 498.51994,58.974475 492.86656,58.379382 463.41863,55.279598 439.13681,68.712256 402.45605,73.36193 365.77527,78.011604 318.76133,57.346199 280.53068,52.696525 242.30003,48.046853 236.10055,64.579174 191.15371,69.228849 146.20685,73.878525 159.63884,65.095792 73.878178,53.213289 63.158096,51.727977 53.834568,51.049431 45.725891,50.999988 Z" />
    <path
       id="path4"
       style="fill:#015f9d;fill-opacity:1;stroke-width:1.735;stroke-linejoin:round"
       d="M 244.59696,74.823857 C 204.11012,75.226464 155.11825,95.060254 101.77622,98.676664 40.813873,102.80971 0,80.594564 0,80.594564 v 21.698416 20.80597 L 508,115.6963 V 87.906779 c -8.32028,1.82582 -18.27024,3.963852 -31.149,6.636804 C 422.08822,105.90944 304.81246,82.66091 261.41557,75.944718 255.99094,75.105195 250.38078,74.766341 244.59696,74.823857 Z" />
    <path
       id="path5"
       style="fill:#015f9d;fill-opacity:1;stroke-width:1.735;stroke-linejoin:round"
       d="M 508,110.20516 0,113.07837 v 23.25801 l 508,-1.90634 z" />
    <path
       id="path6"
       style="fill:#1b457f;fill-opacity:1;stroke-width:1.735;stroke-linejoin:round"
       d="M 177.71577,103.45673 C 93.382301,102.9456 1.0830357,110.43487 0,110.52297 v 39.62084 7.21144 l 508,-7.64656 v -41.66567 c -3.60105,1.02064 -7.27859,2.15347 -11.00036,3.54913 -20.6652,7.74947 -135.8747,14.98254 -218.5355,-1.03301 -25.7271,-4.98462 -62.41498,-6.87007 -100.74837,-7.10241 z" />
    <path
       id="rect1-4"
       style="fill:#abdff5;fill-opacity:1;stroke-width:1.735;stroke-linejoin:round"
       d="M 0,202.46516 V 285.75 h 508 v -83.28484 z" />
    <path
       id="path1-1"
       clip-path="url(#clipPath67)"
       style="fill:#57bded;fill-opacity:1;stroke-width:1.735;stroke-linejoin:round"
       d="m 0,231.05411 v 47.84928 c 37.284778,-7.77891 11.980139,-20.97342 68.310042,-21.48551 56.828998,-0.51663 85.244628,23.24845 150.339658,24.28172 65.09508,1.03326 95.06058,-20.66538 152.4062,-18.59886 57.3457,2.06645 72.84535,18.59886 100.74321,18.59886 24.21673,0 33.92997,-6.31192 36.20089,-8.05842 v -30.50305 z" />
    <path
       id="path2-4"
       clip-path="url(#clipPath62)"
       style="fill:#37a6de;fill-opacity:1;stroke-width:1.735;stroke-linejoin:round"
       d="m 0,221.05421 v 25.32248 c 7.8868234,-1.40527 17.62007,-3.0364 29.562537,-4.45812 21.69842,-2.58316 51.146937,8.78272 99.193433,16.01556 48.04649,7.23279 107.97593,-3.09985 147.75635,-8.26617 39.78043,-5.16626 64.06283,0.51676 123.47515,10.33271 59.41234,9.81594 106.94283,-12.91549 106.94283,-12.91549 L 508,244.74527 v -15.8533 z" />
    <path
       id="path3-9"
       clip-path="url(#clipPath49)"
       style="fill:#0779bf;fill-opacity:1;stroke-width:1.735;stroke-linejoin:round"
       d="M 434.6019,195.42166 0,199.35941 v 37.18739 c 4.6411115,1.12968 9.640932,2.16028 15.613517,2.78898 29.447845,3.09979 53.729872,-10.33287 90.410503,-14.98255 36.68066,-4.64964 83.69484,16.01573 121.92537,20.66541 38.23058,4.64963 44.43024,-11.88264 89.37698,-16.53233 44.94669,-4.64963 31.51509,4.13308 117.27553,16.01556 43.15798,5.97973 63.6578,-1.12637 73.3981,-9.65987 v -37.37188 z" />
    <path
       id="path4-3"
       style="fill:#015f9d;fill-opacity:1;stroke-width:1.735;stroke-linejoin:round"
       d="M 508,174.62345 0,182.0261 v 27.88408 c 8.384649,-1.84174 18.551817,-4.02445 31.629077,-6.7386 54.762765,-11.36587 172.038513,11.88214 215.435433,18.59835 43.3969,6.71618 98.67701,-18.5984 159.63935,-22.73143 59.00859,-4.00059 98.78449,16.50921 101.29614,17.83922 z" />
    <path
       id="path5-8"
       style="fill:#015f9d;fill-opacity:1;stroke-width:1.735;stroke-linejoin:round"
       d="M 508,161.38033 0,163.28616 v 24.22591 l 508,-2.87218 z" />
    <path
       id="path74"
       style="fill:#1b457f;fill-opacity:1;stroke-width:1.735;stroke-linejoin:round"
       d="M 2.5833049,135.87388 0,136.33638 v 26.94978 c 0,0 8.782905,21.66802 102.80975,18.05161 94.02684,-3.61642 103.32614,-20.14894 185.98709,-9.29969 82.66096,10.84926 152.40661,20.14897 188.05416,13.43277 12.63576,-2.38065 22.95026,-4.94567 31.149,-7.27863 v -41.19231 l -213.51978,0.94051 z" />
  </g>
</svg>
