<?xml version="1.0" encoding="UTF-8" standalone="no"?>
<!-- Created with Inkscape (http://www.inkscape.org/) -->

<svg
   width="421.65359"
   height="432.00912"
   viewBox="0 0 111.56251 114.30241"
   version="1.1"
   id="svg1"
   inkscape:version="1.3.2 (091e20e, 2023-11-25, custom)"
   sodipodi:docname="exit_button.svg"
   xml:space="preserve"
   inkscape:export-filename="button_exit.png"
   inkscape:export-xdpi="96"
   inkscape:export-ydpi="96"
   xmlns:inkscape="http://www.inkscape.org/namespaces/inkscape"
   xmlns:sodipodi="http://sodipodi.sourceforge.net/DTD/sodipodi-0.dtd"
   xmlns="http://www.w3.org/2000/svg"
   xmlns:svg="http://www.w3.org/2000/svg"><sodipodi:namedview
     id="namedview1"
     pagecolor="#ffffff"
     bordercolor="#000000"
     borderopacity="0.25"
     inkscape:showpageshadow="2"
     inkscape:pageopacity="0.0"
     inkscape:pagecheckerboard="0"
     inkscape:deskcolor="#d1d1d1"
     inkscape:document-units="mm"
     inkscape:zoom="0.50049902"
     inkscape:cx="187.81256"
     inkscape:cy="309.69092"
     inkscape:window-width="2880"
     inkscape:window-height="1514"
     inkscape:window-x="2869"
     inkscape:window-y="-11"
     inkscape:window-maximized="1"
     inkscape:current-layer="layer1"
     showgrid="true" /><defs
     id="defs1" /><g
     inkscape:label="Ebene 1"
     inkscape:groupmode="layer"
     id="layer1"
     transform="translate(-172.17446,-68.859775)"><ellipse
       style="fill:#83161a;fill-opacity:1;stroke:#000000;stroke-width:3.04629;stroke-linejoin:round;stroke-dasharray:none"
       id="path1-9"
       cx="227.95572"
       cy="133.40041"
       rx="54.258114"
       ry="48.238636" /><path
       id="path1-9-7-6"
       style="fill:#7e171a;fill-opacity:1;stroke:#000000;stroke-width:1.09153;stroke-linejoin:round;stroke-dasharray:none"
       d="m 181.41422,107.42542 a 55.188683,48.460201 0 0 0 -7.44451,16.23363 54.24136,51.329235 0 0 0 54.06388,48.97479 54.24136,51.329235 0 0 0 53.99929,-48.12988 55.188683,48.460201 0 0 0 -7.30188,-16.39228 47.125462,43.296669 0 0 1 0.42788,5.16041 47.125462,43.296669 0 0 1 -47.12529,43.29658 47.125462,43.296669 0 0 1 -47.12528,-43.29658 47.125462,43.296669 0 0 1 0.50591,-5.84667 z" /><ellipse
       style="fill:none;fill-opacity:1;stroke:#000000;stroke-width:3.04629;stroke-linejoin:round;stroke-dasharray:none"
       id="path1-9-9"
       cx="227.95572"
       cy="133.40041"
       rx="54.258114"
       ry="48.238636" /><ellipse
       style="fill:#d92e32;fill-opacity:1;stroke:#000000;stroke-width:2.64583;stroke-linejoin:round;stroke-dasharray:none"
       id="path1-4"
       cx="227.95572"
       cy="118.91732"
       rx="47.125462"
       ry="41.897289" /><ellipse
       style="fill:#fe4f50;fill-opacity:1;stroke:#000000;stroke-width:2.64583;stroke-linejoin:round;stroke-dasharray:none"
       id="path1"
       cx="227.95572"
       cy="112.07998"
       rx="47.125462"
       ry="41.897289" /><path
       id="path1-6-4"
       style="fill:#d92e32;fill-opacity:1;stroke:none;stroke-width:2.56079;stroke-linejoin:round;stroke-dasharray:none"
       d="m 228.06877,74.875503 a 46.3372,39.914908 0 0 0 -1.07823,0.06669 46.3372,36.782231 0 0 1 1.01117,-0.05762 46.3372,36.782231 0 0 1 3.8551,0.135199 46.3372,39.914908 0 0 0 -3.78804,-0.144269 z m 4.45926,0.186908 a 46.3372,36.782231 0 0 1 0.31404,0.02995 46.3372,39.914908 0 0 0 -0.31404,-0.02995 z m 41.76599,37.107879 a 46.3372,36.782231 0 0 1 -46.29231,36.27857 46.3372,36.782231 0 0 1 -46.16732,-34.89667 46.3372,39.914908 0 0 0 -0.10266,1.23808 46.3372,39.914908 0 0 0 46.33704,39.91522 46.3372,39.914908 0 0 0 46.33754,-39.91522 46.3372,39.914908 0 0 0 -0.11229,-2.61998 z" /><ellipse
       style="fill:none;fill-opacity:1;stroke:#000000;stroke-width:2.64583;stroke-linejoin:round;stroke-dasharray:none"
       id="path1-3"
       cx="227.94615"
       cy="112.16765"
       rx="47.125462"
       ry="41.897289" /><path
       id="path10"
       style="fill:#fffefe;fill-opacity:1;stroke:none;stroke-width:10.9813;stroke-linecap:butt;stroke-linejoin:round;stroke-dasharray:none"
       d="m 243.89583,91.707513 a 4.9366483,4.9366483 0 0 0 -2.08042,0.42824 c -0.43107,0.127612 -1.05699,0.437682 -1.50493,0.674177 -3.50301,1.540345 -8.33139,4.963065 -13.22543,8.84581 -3.98462,-2.774925 -7.64091,-5.20006 -9.9997,-6.73034 -0.7063,-0.612534 -1.76275,-1.293027 -2.3521,-1.657202 a 4.9366483,4.9366483 0 0 0 -2.7918,-0.905096 4.9366483,4.9366483 0 0 0 -4.93656,4.936573 4.9366483,4.9366483 0 0 0 1.55068,3.578205 l -0.0422,0.0329 c 0,0 0.11137,0.0449 0.12507,0.05 a 4.9366483,4.9366483 0 0 0 2.50797,1.17464 c 0.7087,0.36077 1.47704,0.71901 2.19912,0.98373 1.93029,0.98511 4.34195,2.32791 7.04417,4.07008 -4.51433,3.86627 -8.55977,7.5658 -10.99845,9.83739 -0.76573,0.53638 -1.68267,1.3963 -2.17909,1.87954 a 4.9366483,4.9366483 0 0 0 -1.55568,2.48795 h -7.1e-4 a 4.9366483,4.9366483 0 0 0 3.58964,5.98751 4.9366483,4.9366483 0 0 0 3.84774,-0.63486 l 0.0221,0.0493 c 0,0 0.0703,-0.0974 0.0786,-0.10942 a 4.9366483,4.9366483 0 0 0 1.74872,-2.14763 c 0.52212,-0.59984 1.05628,-1.25842 1.48847,-1.89456 2.37291,-2.72062 6.03733,-6.49284 10.96984,-10.42649 4.10854,3.25809 8.47371,7.30609 12.64708,12.27387 0.27267,0.41173 0.92232,1.37857 1.23895,1.7294 a 4.9366483,4.9366483 0 0 0 3.93496,2.02182 4.9366483,4.9366483 0 0 0 4.93657,-4.93658 4.9366483,4.9366483 0 0 0 -1.05165,-2.97409 c -0.2285,-0.38715 -0.68128,-0.91908 -1.0195,-1.29617 -2.61357,-3.37018 -7.88899,-7.76742 -13.50711,-11.98217 2.75854,-1.78107 5.77739,-3.51704 9.06957,-5.12101 0.46562,-0.1645 1.56096,-0.55948 1.9782,-0.78142 a 4.9366483,4.9366483 0 0 0 2.91762,-3.325845 4.9366483,4.9366483 0 0 0 -3.58966,-5.988233 4.9366483,4.9366483 0 0 0 -1.06023,-0.130116 z" /><path
       id="path10-9"
       style="fill:#df302f;fill-opacity:1;stroke:none;stroke-width:12.1514;stroke-linecap:butt;stroke-linejoin:round;stroke-dasharray:none"
       d="m 245.73375,90.082176 a 5.4626757,5.4626757 0 0 0 -2.3021,0.473872 c -0.47701,0.141209 -1.16962,0.484319 -1.66529,0.746014 -3.87628,1.704477 -9.21915,5.491907 -14.63468,9.788378 -4.4092,-3.070606 -8.45509,-5.754153 -11.06522,-7.447493 -0.78156,-0.677803 -1.95058,-1.430806 -2.60273,-1.833786 a 5.4626757,5.4626757 0 0 0 -3.08928,-1.001539 5.4626757,5.4626757 0 0 0 -5.46258,5.462592 5.4626757,5.4626757 0 0 0 1.71591,3.959486 l -0.0467,0.0364 c 0,0 0.12323,0.0497 0.13839,0.0553 a 5.4626757,5.4626757 0 0 0 2.77521,1.2998 c 0.78422,0.39921 1.63443,0.79563 2.43345,1.08856 2.13597,1.09008 4.80461,2.57596 7.79477,4.50377 -4.99536,4.27824 -9.47186,8.37198 -12.1704,10.88562 -0.84732,0.59353 -1.86197,1.54508 -2.41128,2.07981 a 5.4626757,5.4626757 0 0 0 -1.72145,2.75306 h -7.9e-4 a 5.4626757,5.4626757 0 0 0 3.97214,6.62551 5.4626757,5.4626757 0 0 0 4.25774,-0.70251 l 0.0245,0.0546 c 0,0 0.0778,-0.10778 0.087,-0.12108 a 5.4626757,5.4626757 0 0 0 1.93505,-2.37647 c 0.57776,-0.66376 1.16884,-1.39252 1.64708,-2.09644 2.62576,-3.01052 6.68064,-7.18469 12.13874,-11.53749 4.54632,3.60526 9.37663,8.08459 13.99469,13.58172 0.30173,0.4556 1.0206,1.52546 1.37097,1.91368 a 5.4626757,5.4626757 0 0 0 4.35425,2.23726 5.4626757,5.4626757 0 0 0 5.46259,-5.46261 5.4626757,5.4626757 0 0 0 -1.16371,-3.291 c -0.25285,-0.4284 -0.75387,-1.01701 -1.12813,-1.43428 -2.89206,-3.72929 -8.72961,-8.59508 -14.94637,-13.25894 3.05248,-1.97085 6.393,-3.8918 10.03598,-5.66668 0.51524,-0.18203 1.72729,-0.6191 2.18899,-0.86469 a 5.4626757,5.4626757 0 0 0 3.22851,-3.680231 5.4626757,5.4626757 0 0 0 -3.97216,-6.626313 5.4626757,5.4626757 0 0 0 -1.1732,-0.14398 z" /><path
       id="path18"
       style="fill:#fffefe;fill-opacity:1;stroke:none;stroke-width:6.06215;stroke-linecap:butt;stroke-linejoin:round;stroke-dasharray:none"
       d="m 210.52211,92.843698 a 3.2474246,3.2474246 0 0 0 -3.24786,3.247347 3.2474246,3.2474246 0 0 0 2.56728,3.166732 c 4.45612,2.253813 21.18103,11.387163 34.52399,27.652053 a 3.2474246,3.2474246 0 0 0 2.86598,1.73685 3.2474246,3.2474246 0 0 0 3.24735,-3.24786 3.2474246,3.2474246 0 0 0 -1.44591,-2.70165 C 239.34908,111.20892 215.68889,95.716508 212.95917,93.946473 a 3.2474246,3.2474246 0 0 0 -2.43706,-1.102775 z" /><path
       id="path18-3"
       style="fill:#fffefe;fill-opacity:1;stroke:none;stroke-width:6.06215;stroke-linecap:butt;stroke-linejoin:round;stroke-dasharray:none"
       d="m 205.19574,123.69201 a 3.2474246,3.2474246 0 0 0 2.408,3.91092 3.2474246,3.2474246 0 0 0 3.6747,-1.76515 c 3.22345,-3.81393 15.97778,-17.97258 34.88796,-27.191394 a 3.2474246,3.2474246 0 0 0 2.35269,-2.386498 3.2474246,3.2474246 0 0 0 -2.40864,-3.910554 3.2474246,3.2474246 0 0 0 -2.96282,0.781772 c -13.41669,6.763848 -33.96184,26.198764 -36.3153,28.445024 a 3.2474246,3.2474246 0 0 0 -1.63659,2.11588 z" /><path
       style="fill:#df302f;fill-opacity:1;stroke:none;stroke-width:7.9375;stroke-linecap:butt;stroke-linejoin:round;stroke-dasharray:none"
       d="m 242.90965,127.99673 c 0,0 -2.54408,-2.47799 -3.10576,-3.60135 -0.56168,-1.12336 1.9824,1.12336 1.9824,1.12336 z"
       id="path24" /><ellipse
       style="fill:#ffffff;fill-opacity:1;stroke:none;stroke-width:6.59781;stroke-linecap:butt;stroke-linejoin:round;stroke-dasharray:none"
       id="path25-2"
       cx="234.86862"
       cy="76.427116"
       rx="3.4510481"
       ry="3.3849683" /><ellipse
       style="fill:#ffffff;fill-opacity:1;stroke:none;stroke-width:6.59781;stroke-linecap:butt;stroke-linejoin:round;stroke-dasharray:none"
       id="path25-7-3"
       cx="259.39194"
       cy="88.88858"
       rx="3.4510481"
       ry="3.3849683" /><ellipse
       style="fill:#ffffff;fill-opacity:1;stroke:none;stroke-width:6.59781;stroke-linecap:butt;stroke-linejoin:round;stroke-dasharray:none"
       id="path25-4-5"
       cx="265.49951"
       cy="97.631462"
       rx="3.4510481"
       ry="3.3849683" /><path
       id="path26-5"
       style="fill:#ffffff;fill-opacity:1;stroke:none;stroke-width:7.9375;stroke-linecap:butt;stroke-linejoin:round;stroke-dasharray:none"
       d="m 235.08821,73.054844 -0.4625,0.272851 v 6.302975 c 14.18909,2.713294 22.40121,11.79463 22.40121,11.79463 0,0 0.74719,0.26949 1.78387,0.58446 v -5.14439 h 3.25924 c -0.20211,-0.19609 -0.39447,-0.38638 -0.61599,-0.59428 C 249.62575,75.169691 235.08821,73.054844 235.08821,73.054844 Z" /></g></svg>
