<?xml version="1.0" encoding="UTF-8" standalone="no"?>
<!-- Created with Inkscape (http://www.inkscape.org/) -->

<svg
   width="750.47797"
   height="679.30151"
   viewBox="0 0 198.56396 179.73186"
   version="1.1"
   id="svg1"
   xml:space="preserve"
   inkscape:version="1.3.2 (091e20e, 2023-11-25, custom)"
   sodipodi:docname="icon_sound.svg"
   inkscape:export-filename="icon_sound.png"
   inkscape:export-xdpi="96"
   inkscape:export-ydpi="96"
   xmlns:inkscape="http://www.inkscape.org/namespaces/inkscape"
   xmlns:sodipodi="http://sodipodi.sourceforge.net/DTD/sodipodi-0.dtd"
   xmlns="http://www.w3.org/2000/svg"
   xmlns:svg="http://www.w3.org/2000/svg"><sodipodi:namedview
     id="namedview1"
     pagecolor="#ffffff"
     bordercolor="#000000"
     borderopacity="0.25"
     inkscape:showpageshadow="2"
     inkscape:pageopacity="0.0"
     inkscape:pagecheckerboard="0"
     inkscape:deskcolor="#d1d1d1"
     inkscape:document-units="mm"
     showguides="false"
     inkscape:zoom="1.272138"
     inkscape:cx="501.51792"
     inkscape:cy="433.91519"
     inkscape:window-width="1920"
     inkscape:window-height="974"
     inkscape:window-x="2869"
     inkscape:window-y="-11"
     inkscape:window-maximized="1"
     inkscape:current-layer="layer1" /><defs
     id="defs1" /><g
     inkscape:label="Ebene 1"
     inkscape:groupmode="layer"
     id="layer1"
     transform="translate(-84.710205,-44.699762)"><g
       id="g2"
       style="fill:#ffffff"><rect
         style="fill:#ffffff;stroke-width:1.42939;stroke-linecap:round;stroke-linejoin:round"
         id="rect1"
         width="96.146622"
         height="72.0625"
         x="84.710205"
         y="98.534439"
         ry="16.190691" /><rect
         style="fill:#ffffff;stroke-width:1.75447;stroke-linecap:round;stroke-linejoin:round"
         id="rect2"
         width="161.92422"
         height="30.883928"
         x="-210.16199"
         y="172.06761"
         ry="15.441964"
         transform="rotate(-90)"
         inkscape:transform-center-x="-55.885204"
         inkscape:transform-center-y="79.151471" /><rect
         style="fill:#ffffff;stroke-width:1.32292;stroke-linecap:round;stroke-linejoin:round"
         id="rect2-3"
         width="92.063515"
         height="30.883928"
         x="-8.6301956"
         y="169.35651"
         ry="15.441964"
         transform="rotate(-52.012116)" /><rect
         style="fill:#ffffff;stroke-width:1.32292;stroke-linecap:round;stroke-linejoin:round"
         id="rect2-3-5"
         width="92.063515"
         height="30.883928"
         x="-283.31528"
         y="-42.113041"
         ry="15.441964"
         transform="matrix(-0.61549483,-0.78814093,-0.78814093,0.61549483,0,0)" /><rect
         style="fill:#ffffff;stroke-width:1.42939;stroke-linecap:round;stroke-linejoin:round"
         id="rect1-8"
         width="96.146622"
         height="72.0625"
         x="84.710205"
         y="-170.59694"
         ry="16.190691"
         transform="scale(1,-1)" /><rect
         style="fill:#ffffff;stroke-width:1.75447;stroke-linecap:round;stroke-linejoin:round"
         id="rect2-1"
         width="161.92422"
         height="30.883928"
         x="58.969406"
         y="172.06763"
         ry="15.441964"
         transform="matrix(0,1,1,0,0,0)"
         inkscape:transform-center-x="-55.885204"
         inkscape:transform-center-y="-79.15147" /><rect
         style="fill:#ffffff;stroke-width:1.32292;stroke-linecap:round;stroke-linejoin:round"
         id="rect2-3-3"
         width="92.063515"
         height="30.883928"
         x="203.48326"
         y="3.7075343"
         ry="15.441964"
         transform="matrix(0.61549483,0.78814093,0.78814093,-0.61549483,0,0)" /><rect
         style="fill:#ffffff;stroke-width:1.32292;stroke-linecap:round;stroke-linejoin:round"
         id="rect2-3-5-4"
         width="92.063515"
         height="30.883928"
         x="-71.201851"
         y="-207.76201"
         ry="15.441964"
         transform="rotate(127.98788)" /></g><path
       style="fill:#ffffff;stroke-width:1.32292;stroke-linecap:round;stroke-linejoin:round"
       d="m 218.79832,109.60714 c 0,0 -5.40756,-2.91176 -3.43173,-7.3834 1.97584,-4.47164 7.69538,-6.338686 13.10295,-3.689302 5.40756,2.649382 22.67016,22.820952 20.38235,39.565002 -2.28782,16.74405 -2.80778,18.5119 -10.19118,30.26295 -7.3834,11.75105 -19.34244,9.35925 -19.34244,9.35925 0,0 -8.73529,-3.43173 -0.51995,-11.33509 8.21533,-7.90336 13.72689,-17.55542 13.72689,-26.45503 0,-8.89962 -4.26366,-25.43677 -13.72689,-30.32438 z"
       id="path5" /><path
       style="fill:#ffffff;stroke-width:1.32292;stroke-linecap:round;stroke-linejoin:round"
       d="m 233.14916,80.593487 c 0,0 -3.22374,-4.887605 1.14391,-8.111344 4.36764,-3.223742 8.21533,-3.639706 13.41491,0.72794 5.19958,4.367646 35.35713,25.345459 35.56512,64.408547 0.20799,39.06309 -30.05357,61.31729 -30.05357,61.31729 l -9.15126,6.75946 c 0,0 -8.31932,1.03991 -9.7752,-2.39181 -1.45589,-3.43172 -4.67963,-4.47164 7.17541,-13.72689 11.85505,-9.25525 25.37394,-34.10925 24.23004,-50.22794 -1.1439,-16.1187 -2.28781,-38.16492 -32.54936,-58.755253 z"
       id="path6" /></g></svg>
