<?xml version="1.0" encoding="UTF-8" standalone="no"?>
<!-- Created with Inkscape (http://www.inkscape.org/) -->

<svg
   width="959.69666"
   height="902.76373"
   viewBox="0 0 253.91974 238.85624"
   version="1.1"
   id="svg1"
   inkscape:version="1.3.2 (091e20e, 2023-11-25, custom)"
   sodipodi:docname="pop-up_window_settings.svg"
   inkscape:export-filename="popup_settings.png"
   inkscape:export-xdpi="96"
   inkscape:export-ydpi="96"
   xmlns:inkscape="http://www.inkscape.org/namespaces/inkscape"
   xmlns:sodipodi="http://sodipodi.sourceforge.net/DTD/sodipodi-0.dtd"
   xmlns:xlink="http://www.w3.org/1999/xlink"
   xmlns="http://www.w3.org/2000/svg"
   xmlns:svg="http://www.w3.org/2000/svg">
  <sodipodi:namedview
     id="namedview1"
     pagecolor="#ffffff"
     bordercolor="#000000"
     borderopacity="0.25"
     inkscape:showpageshadow="2"
     inkscape:pageopacity="0.0"
     inkscape:pagecheckerboard="0"
     inkscape:deskcolor="#d1d1d1"
     inkscape:document-units="mm"
     showgrid="true"
     inkscape:zoom="1.4887191"
     inkscape:cx="396.31384"
     inkscape:cy="313.02076"
     inkscape:window-width="2880"
     inkscape:window-height="1514"
     inkscape:window-x="2869"
     inkscape:window-y="-11"
     inkscape:window-maximized="1"
     inkscape:current-layer="layer1" />
  <defs
     id="defs1">
    <linearGradient
       id="linearGradient10"
       inkscape:collect="always">
      <stop
         style="stop-color:#232323;stop-opacity:1;"
         offset="0"
         id="stop10" />
      <stop
         style="stop-color:#000000;stop-opacity:1"
         offset="1"
         id="stop11" />
    </linearGradient>
    <linearGradient
       id="linearGradient8"
       inkscape:collect="always">
      <stop
         style="stop-color:#665b52;stop-opacity:1;"
         offset="0"
         id="stop8" />
      <stop
         style="stop-color:#422c21;stop-opacity:1;"
         offset="1"
         id="stop9" />
    </linearGradient>
    <linearGradient
       id="linearGradient6"
       inkscape:collect="always">
      <stop
         style="stop-color:#665b52;stop-opacity:1;"
         offset="0"
         id="stop6" />
      <stop
         style="stop-color:#422c21;stop-opacity:1;"
         offset="1"
         id="stop7" />
    </linearGradient>
    <linearGradient
       id="linearGradient4"
       inkscape:collect="always">
      <stop
         style="stop-color:#665b52;stop-opacity:1;"
         offset="0"
         id="stop4" />
      <stop
         style="stop-color:#422c21;stop-opacity:1;"
         offset="1"
         id="stop5" />
    </linearGradient>
    <linearGradient
       id="linearGradient2"
       inkscape:collect="always">
      <stop
         style="stop-color:#422c21;stop-opacity:1;"
         offset="0"
         id="stop2" />
      <stop
         style="stop-color:#665b52;stop-opacity:1;"
         offset="1"
         id="stop3" />
    </linearGradient>
    <linearGradient
       inkscape:collect="always"
       xlink:href="#linearGradient2"
       id="linearGradient3"
       x1="76.800804"
       y1="142.18266"
       x2="83.199196"
       y2="142.18266"
       gradientUnits="userSpaceOnUse" />
    <linearGradient
       inkscape:collect="always"
       xlink:href="#linearGradient4"
       id="linearGradient5"
       x1="33.199196"
       y1="-250"
       x2="26.800804"
       y2="-250"
       gradientUnits="userSpaceOnUse"
       gradientTransform="matrix(1.0300647,0,0,0.73777775,-0.90194106,-26.126037)" />
    <linearGradient
       inkscape:collect="always"
       xlink:href="#linearGradient6"
       id="linearGradient7"
       x1="416.80081"
       y1="137.5"
       x2="423.19919"
       y2="137.5"
       gradientUnits="userSpaceOnUse"
       gradientTransform="matrix(0.98650005,0,0,1.1505028,-96.374794,-30.675311)" />
    <linearGradient
       inkscape:collect="always"
       xlink:href="#linearGradient8"
       id="linearGradient9"
       x1="241.8008"
       y1="-233.38829"
       x2="248.19919"
       y2="-233.38829"
       gradientUnits="userSpaceOnUse"
       gradientTransform="matrix(1.0325317,0,0,0.71835322,-7.9702605,-28.060603)" />
    <linearGradient
       inkscape:collect="always"
       xlink:href="#linearGradient10"
       id="linearGradient11"
       x1="91"
       y1="30"
       x2="94"
       y2="30"
       gradientUnits="userSpaceOnUse" />
    <linearGradient
       inkscape:collect="always"
       xlink:href="#linearGradient10"
       id="linearGradient12"
       gradientUnits="userSpaceOnUse"
       x1="91"
       y1="30"
       x2="94"
       y2="30"
       gradientTransform="translate(-49.68935,-109.25438)" />
    <linearGradient
       inkscape:collect="always"
       xlink:href="#linearGradient10"
       id="linearGradient13"
       gradientUnits="userSpaceOnUse"
       x1="91"
       y1="30"
       x2="94"
       y2="30"
       gradientTransform="translate(-325.91331,50.24921)" />
    <linearGradient
       inkscape:collect="always"
       xlink:href="#linearGradient10"
       id="linearGradient14"
       gradientUnits="userSpaceOnUse"
       gradientTransform="translate(-5.4066593,217.52307)"
       x1="91"
       y1="30"
       x2="94"
       y2="30" />
    <linearGradient
       inkscape:collect="always"
       xlink:href="#linearGradient10"
       id="linearGradient15"
       gradientUnits="userSpaceOnUse"
       x1="91"
       y1="30"
       x2="94"
       y2="30"
       gradientTransform="translate(-397.55805,-275.79916)" />
    <linearGradient
       inkscape:collect="always"
       xlink:href="#linearGradient10"
       id="linearGradient16"
       gradientUnits="userSpaceOnUse"
       gradientTransform="translate(-332.71029,283.19527)"
       x1="91"
       y1="30"
       x2="94"
       y2="30" />
    <linearGradient
       inkscape:collect="always"
       xlink:href="#linearGradient10"
       id="linearGradient17"
       gradientUnits="userSpaceOnUse"
       x1="91"
       y1="30"
       x2="94"
       y2="30"
       gradientTransform="translate(-53.221466,-413.80678)" />
    <linearGradient
       inkscape:collect="always"
       xlink:href="#linearGradient10"
       id="linearGradient18"
       gradientUnits="userSpaceOnUse"
       gradientTransform="translate(-464.39993,-63.606731)"
       x1="91"
       y1="30"
       x2="94"
       y2="30" />
  </defs>
  <g
     inkscape:label="Ebene 1"
     inkscape:groupmode="layer"
     id="layer1"
     transform="translate(-72.109095,-14.947973)">
    <rect
       style="fill:#4b4b4b;fill-opacity:1;stroke:none;stroke-width:3.5684;stroke-linejoin:round"
       id="rect1"
       width="235.69316"
       height="215"
       x="80"
       y="30"
       ry="0" />
    <rect
       style="fill:url(#linearGradient3);fill-opacity:1;stroke:#000000;stroke-width:1.5;stroke-linejoin:miter;stroke-dasharray:none"
       id="rect2"
       width="6.3983898"
       height="176.19913"
       x="76.800804"
       y="50"
       ry="0" />
    <rect
       style="fill:url(#linearGradient5);fill-opacity:1;stroke:#000000;stroke-width:1.30763;stroke-linejoin:miter;stroke-dasharray:none"
       id="rect2-6"
       width="6.5907555"
       height="221.33334"
       x="26.70462"
       y="-321.23715"
       ry="0"
       transform="rotate(90)" />
    <rect
       style="fill:url(#linearGradient9);fill-opacity:1;stroke:#000000;stroke-width:1.29185;stroke-linejoin:miter;stroke-dasharray:none"
       id="rect2-6-5"
       width="6.6065402"
       height="215.50597"
       x="241.69672"
       y="-315.40189"
       ry="0"
       transform="rotate(90)" />
    <rect
       style="fill:url(#linearGradient7);fill-opacity:1;stroke:#000000;stroke-width:1.59803;stroke-linejoin:miter;stroke-dasharray:none"
       id="rect2-9"
       width="6.3120122"
       height="201.33797"
       x="314.79922"
       y="26.849819"
       ry="0" />
    <path
       id="rect9"
       style="fill:#353535;fill-opacity:1;stroke:#000000;stroke-width:1.7822;stroke-linejoin:round;stroke-dasharray:none"
       d="m 73.000195,23.000146 v 13.999663 12.29434 H 86.999858 V 36.999809 H 99.317452 V 23.000146 H 86.999858 Z" />
    <path
       id="rect9-9"
       style="fill:none;fill-opacity:1;stroke:#232323;stroke-width:1.62174;stroke-linejoin:round;stroke-dasharray:none;stroke-opacity:1"
       d="m 73.996349,23.884211 v 12.610008 11.07396 H 86.865883 V 36.494219 H 98.189134 V 23.884211 H 86.865883 Z" />
    <path
       id="rect9-0"
       style="fill:none;fill-opacity:1;stroke:#000000;stroke-width:1.7822;stroke-linejoin:round;stroke-dasharray:none"
       d="M 73.000339,22.853167 V 36.85283 49.14717 H 87.000002 V 36.85283 h 12.31759 V 22.853167 h -12.31759 z" />
    <path
       id="rect9-3"
       style="fill:#353535;fill-opacity:1;stroke:#000000;stroke-width:1.7822;stroke-linejoin:round;stroke-dasharray:none"
       d="M 73.24936,252.91311 H 87.24902 99.543358 V 238.91345 H 87.24902 v -12.3176 H 73.24936 v 12.3176 z" />
    <path
       id="rect9-5"
       style="fill:#353535;fill-opacity:1;stroke:#000000;stroke-width:1.7822;stroke-linejoin:round;stroke-dasharray:none"
       d="m 390.72469,19.252687 h -13.99967 -12.29434 v 13.99966 h 12.29434 v 12.31759 h 13.99967 v -12.31759 z" />
    <path
       id="rect9-2"
       style="fill:#353535;fill-opacity:1;stroke:#000000;stroke-width:1.7822;stroke-linejoin:round;stroke-dasharray:none"
       d="m 324.96,253.24228 v -13.99966 -12.29434 h -13.99967 v 12.29434 h -12.31759 v 13.99966 h 12.31759 z" />
    <circle
       style="fill:#232323;fill-opacity:1;stroke:#000000;stroke-width:0.3;stroke-linejoin:round;stroke-dasharray:none;stroke-opacity:1"
       id="path9"
       cx="80"
       cy="30"
       r="3.0000017" />
    <circle
       style="fill:url(#linearGradient11);fill-opacity:1;stroke:#000000;stroke-width:0.3;stroke-linejoin:round;stroke-dasharray:none;stroke-opacity:1"
       id="path9-8"
       cx="91.200005"
       cy="30"
       r="3.0000017" />
    <circle
       style="fill:url(#linearGradient12);fill-opacity:1;stroke:#000000;stroke-width:0.3;stroke-linejoin:round;stroke-dasharray:none;stroke-opacity:1"
       id="path9-8-6"
       cx="41.510654"
       cy="-79.254379"
       r="3.0000017"
       transform="rotate(88.952501)" />
    <path
       id="rect9-6"
       style="fill:#353535;fill-opacity:1;stroke:#000000;stroke-width:1.7822;stroke-linejoin:round;stroke-dasharray:none"
       d="M 73.24936,252.91311 H 87.24902 99.54336 V 238.91345 H 87.24902 v -12.3176 H 73.24936 v 12.3176 z" />
    <path
       id="rect9-9-9"
       style="fill:none;fill-opacity:1;stroke:#232323;stroke-width:1.62174;stroke-linejoin:round;stroke-dasharray:none;stroke-opacity:1"
       d="M 74.13342,251.91696 H 86.74343 97.81739 V 239.04742 H 86.74343 V 227.72417 H 74.13342 v 11.32325 z" />
    <path
       id="rect9-0-0"
       style="fill:none;fill-opacity:1;stroke:#000000;stroke-width:1.7822;stroke-linejoin:round;stroke-dasharray:none"
       d="M 73.10238,252.91297 H 87.10204 99.39638 V 238.9133 H 87.10204 V 226.59571 H 73.10238 v 12.31759 z" />
    <circle
       style="fill:#232323;fill-opacity:1;stroke:#000000;stroke-width:0.3;stroke-linejoin:round;stroke-dasharray:none;stroke-opacity:1"
       id="path9-81"
       cx="-245.91331"
       cy="80.249207"
       r="3.0000017"
       transform="rotate(-90)" />
    <circle
       style="fill:url(#linearGradient13);fill-opacity:1;stroke:#000000;stroke-width:0.3;stroke-linejoin:round;stroke-dasharray:none;stroke-opacity:1"
       id="path9-8-9"
       cx="-234.7133"
       cy="80.249207"
       r="3.0000017"
       transform="rotate(-90)" />
    <circle
       style="fill:url(#linearGradient14);fill-opacity:1;stroke:#000000;stroke-width:0.3;stroke-linejoin:round;stroke-dasharray:none;stroke-opacity:1"
       id="path9-8-6-5"
       cx="85.79335"
       cy="247.52309"
       r="3.0000017"
       transform="rotate(-1.047499)" />
    <path
       id="rect9-31"
       style="fill:#353535;fill-opacity:1;stroke:#000000;stroke-width:1.7822;stroke-linejoin:round;stroke-dasharray:none"
       d="m 324.55785,252.79901 v -13.99966 -12.29434 h -13.99966 v 12.29434 H 298.2406 v 13.99966 h 12.31759 z" />
    <path
       id="rect9-9-6"
       style="fill:none;fill-opacity:1;stroke:#232323;stroke-width:1.62174;stroke-linejoin:round;stroke-dasharray:none;stroke-opacity:1"
       d="m 323.5617,251.91495 v -12.61001 -11.07396 h -12.86953 v 11.07396 h -11.32325 v 12.61001 h 11.32325 z" />
    <path
       id="rect9-0-6"
       style="fill:none;fill-opacity:1;stroke:#000000;stroke-width:1.7822;stroke-linejoin:round;stroke-dasharray:none"
       d="m 324.55771,252.94599 v -13.99966 -12.29434 h -13.99966 v 12.29434 h -12.31759 v 13.99966 h 12.31759 z" />
    <circle
       style="fill:#232323;fill-opacity:1;stroke:#000000;stroke-width:0.3;stroke-linejoin:round;stroke-dasharray:none;stroke-opacity:1"
       id="path9-4"
       cx="-317.55804"
       cy="-245.79918"
       r="3.0000017"
       transform="scale(-1)" />
    <circle
       style="fill:url(#linearGradient15);fill-opacity:1;stroke:#000000;stroke-width:0.3;stroke-linejoin:round;stroke-dasharray:none;stroke-opacity:1"
       id="path9-8-1"
       cx="-306.35803"
       cy="-245.79918"
       r="3.0000017"
       transform="scale(-1)" />
    <circle
       style="fill:url(#linearGradient16);fill-opacity:1;stroke:#000000;stroke-width:0.3;stroke-linejoin:round;stroke-dasharray:none;stroke-opacity:1"
       id="path9-8-6-1"
       cx="-241.51027"
       cy="313.19528"
       r="3.0000017"
       transform="rotate(-91.047499)" />
    <path
       id="rect9-22"
       style="fill:#353535;fill-opacity:1;stroke:#000000;stroke-width:1.7822;stroke-linejoin:round;stroke-dasharray:none"
       d="m 390.80664,19.778734 h -13.99967 -12.29434 v 13.99966 h 12.29434 v 12.31759 h 13.99967 v -12.31759 z" />
    <path
       id="rect9-9-1"
       style="fill:none;fill-opacity:1;stroke:#232323;stroke-width:1.62174;stroke-linejoin:round;stroke-dasharray:none;stroke-opacity:1"
       d="M 389.92257,20.774884 H 377.31256 366.2386 v 12.86953 h 11.07396 v 11.32325 h 12.61001 v -11.32325 z" />
    <path
       id="rect9-0-8"
       style="fill:none;fill-opacity:1;stroke:#000000;stroke-width:1.7822;stroke-linejoin:round;stroke-dasharray:none"
       d="m 390.95362,19.778874 h -13.99967 -12.29434 v 13.99966 h 12.29434 v 12.31759 h 13.99967 v -12.31759 z" />
    <circle
       style="fill:#232323;fill-opacity:1;stroke:#000000;stroke-width:0.3;stroke-linejoin:round;stroke-dasharray:none;stroke-opacity:1"
       id="path9-1"
       cx="26.778521"
       cy="-383.80679"
       r="3.0000017"
       transform="rotate(90)" />
    <circle
       style="fill:url(#linearGradient17);fill-opacity:1;stroke:#000000;stroke-width:0.3;stroke-linejoin:round;stroke-dasharray:none;stroke-opacity:1"
       id="path9-8-3"
       cx="37.978531"
       cy="-383.80679"
       r="3.0000017"
       transform="rotate(90)" />
    <circle
       style="fill:url(#linearGradient18);fill-opacity:1;stroke:#000000;stroke-width:0.3;stroke-linejoin:round;stroke-dasharray:none;stroke-opacity:1"
       id="path9-8-6-12"
       cx="-373.19992"
       cy="-33.606724"
       r="3.0000017"
       transform="rotate(178.9525)" />
    <path
       style="fill:#de8b01;fill-opacity:1;stroke:none;stroke-width:2.11667;stroke-linejoin:round;stroke-dasharray:none"
       d="m 197.93445,152.66461 -28.221,-3.61642"
       id="path13" />
    <path
       id="path4"
       style="fill:#ffa204;fill-opacity:1;stroke:#000000;stroke-width:2.24477;stroke-linejoin:round;stroke-dasharray:none"
       inkscape:transform-center-x="-7.899699e-06"
       inkscape:transform-center-y="-2.5667082"
       d="m 115.44358,18.879785 5.90762,7.699919 2.95381,3.850219 -2.95381,3.850219 -5.90762,7.699919 h 11.81524 11.81583 16.06729 V 18.879785 l -16.06729,-10e-6 h -11.81582 z" />
    <path
       style="fill:#f19902;fill-opacity:1;stroke:none;stroke-width:2.27355;stroke-linejoin:round;stroke-dasharray:none"
       d="m 122.76996,33.590154 c 0.4117,-0.02154 0.90847,0.01834 1.2682,-0.13658 0.063,-0.02712 0.14135,0.007 0.21137,0 0.18149,0.05693 0.31443,-0.07368 0.47558,-0.09103 0.0874,-0.009 0.17702,0.01077 0.26421,0 0.11247,-0.01386 0.34298,-0.158933 0.42272,-0.227647 0.0814,-0.07009 0.13004,-0.203069 0.21137,-0.273159 0.0279,-0.02403 0.0839,-0.01734 0.10565,-0.04556 0.0195,-0.02522 -0.0115,-0.06232 0,-0.09103 0.0134,-0.03459 0.1826,-0.384954 0.21138,-0.40975 0.0125,-0.01077 0.0404,0.01077 0.0529,0 0.0705,-0.06072 -0.11213,-0.04367 0.0529,-0.09103 0.0335,-0.01 0.0742,0.01356 0.10565,0 0.0446,-0.01924 0.0642,-0.0672 0.10565,-0.09103 0.0798,-0.04586 0.27694,-0.05902 0.3699,-0.09103 0.0953,-0.03291 0.16885,-0.103719 0.26421,-0.13658 0.0834,-0.02871 0.17708,-0.02672 0.26421,-0.04556 0.15227,-0.0328 0.24229,-0.08166 0.36989,-0.13658 0.0413,-0.01774 0.61138,-0.04556 0.73979,-0.04556 0.0215,0 0.20477,-0.01137 0.21137,0 0.0157,0.02712 -0.0249,0.06959 0,0.09103 0.0393,0.0339 0.11915,0.01157 0.15853,0.04556 0.0271,0.02333 0.0325,0.119103 0.0529,0.13659 0.0279,0.02403 0.0778,0.02154 0.10565,0.04556 0.0299,0.02572 0.0663,0.148195 0.10565,0.182114 0.0125,0.01077 0.0404,-0.01077 0.0529,0 0.0449,0.03868 0.0675,0.09282 0.10566,0.136579 0.1214,0.139461 -0.0338,-0.07467 0.15853,0.09103 0.0125,0.01077 -0.0125,0.03479 0,0.04556 0.0125,0.01077 0.0404,-0.01077 0.0529,0 0.0125,0.01077 -0.008,0.03191 0,0.04556 0.0317,0.05463 0.12682,0.08196 0.15854,0.13658 0.0345,0.05942 0.11548,0.281634 0.15852,0.318693 0.0264,0.02273 0.0793,0.02273 0.10565,0.04556 0.0176,0.01516 0.0353,0.121406 0.0529,0.13658 0.0125,0.01077 0.0404,-0.01077 0.0529,0 0.0125,0.01077 -0.009,0.0329 0,0.04556 0.0277,0.03569 0.0781,0.05533 0.10565,0.09103 0.0472,0.06092 0.0672,0.161386 0.10564,0.227637 0.0365,0.06272 0.12393,0.06122 0.15853,0.09103 0.0176,0.01515 0.0351,0.121405 0.0529,0.136579 0.0249,0.02144 0.0807,-0.02144 0.10564,0 0.0125,0.01077 -0.008,0.03191 0,0.04556 0.0284,0.04895 0.0607,0.09791 0.10565,0.13659 0.0121,0.01037 0.19327,0.131375 0.21137,0.13658 0.0335,0.01 0.0724,-0.01 0.10566,0 0.0815,0.02343 0.1987,0.148115 0.31704,0.182113 0.10808,0.03101 0.22209,-0.02214 0.31706,-0.04556 0.0336,-0.008 0.46759,-0.08076 0.47558,-0.09103 0.0309,-0.03998 0.022,-0.09661 0.0529,-0.13659 0.008,-0.01007 0.14646,-0.03509 0.15853,-0.04556 0.10935,-0.09421 -0.16707,0.004 0.0529,-0.09103 0.0326,-0.01405 0.19178,-0.02861 0.21137,-0.04556 0.0125,-0.01077 -0.0125,-0.03479 0,-0.04556 0.0249,-0.02144 0.0742,0.01356 0.10565,0 0.0917,-0.03948 0.0467,-0.104456 0.15854,-0.136579 0.0335,-0.01 0.0742,0.01356 0.10565,0 0.0157,-0.007 -0.0125,-0.03479 0,-0.04556 0.0249,-0.02144 0.0742,0.01356 0.10565,0 0.21992,-0.09471 -0.0564,0.003 0.0529,-0.09103 0.0176,-0.01516 0.14091,-0.03041 0.15853,-0.04556 0.0125,-0.01077 -0.0125,-0.0348 0,-0.04556 0.0643,-0.05543 0.19982,-0.08116 0.26421,-0.13659 0.0125,-0.01077 -0.0157,-0.03868 0,-0.04556 0.0315,-0.01356 0.0724,0.01 0.10565,0 0.0982,-0.02821 0.0134,-0.09681 0.10564,-0.136579 0.0389,-0.01675 0.19439,-0.03091 0.21137,-0.04556 0.0225,-0.01934 0.0843,-0.150139 0.15853,-0.182103 0.34063,-0.14675 0.0115,-0.05045 0.21136,-0.13659 0.0157,-0.007 0.0404,0.01077 0.0529,0 0.0125,-0.01077 -0.0125,-0.03479 0,-0.04556 0.0249,-0.02144 0.0808,0.02144 0.10565,0 0.0125,-0.01077 -0.0125,-0.03479 0,-0.04556 0.0249,-0.02144 0.0808,0.02144 0.10565,0 0.21137,-0.182103 -0.22897,0.07587 0.0529,-0.04556 0.0635,-0.02732 0.0951,-0.109261 0.15853,-0.136579 0.0645,-0.02781 0.22167,-0.05443 0.26421,-0.09103 0.0125,-0.01077 -0.0125,-0.0348 0,-0.04556 0.0264,-0.02274 0.1321,0.02274 0.15852,0 0.0125,-0.01077 -0.0125,-0.03479 0,-0.04556 0.0244,-0.02104 0.12664,0.01376 0.15853,0 0.10554,-0.04546 0.21119,-0.04546 0.31705,-0.09103 0.0803,-0.03459 0.23082,0.01854 0.31706,0 0.054,-0.01167 0.10362,-0.03758 0.15852,-0.04556 0.19547,-0.02802 0.68294,0.06999 0.84548,0 0.0223,-0.01 0.0292,-0.03878 0.0529,-0.04556 0.046,-0.01326 0.93118,-0.03141 1.004,0 0.0661,0.02851 0.38731,0.212133 0.42274,0.27317 0.008,0.01356 -0.0125,0.03479 0,0.04556 0.0372,0.03211 0.18142,0.01366 0.21136,0.09103 0.0115,0.02881 -0.0157,0.0639 0,0.09103 0.008,0.01356 0.0404,-0.01077 0.0529,0 0.0691,0.05952 0.0895,0.41668 0.10566,0.500807 0.0294,0.151584 0.0506,0.31285 0.10565,0.455273 0.0575,0.148734 0,0.55941 0,0.728442 0,0.170219 0.0246,0.376231 0,0.54633 -0.0287,0.198115 -0.077,0.393738 -0.10565,0.591853 -0.08,0.551832 0.0362,1.146008 0.10565,1.684521 0.0175,0.135743 -0.0175,0.273998 0,0.40975 0.008,0.06222 0.0438,0.120019 0.0529,0.182104 0.0446,0.307427 0,0.646957 0,0.956078 0,0.682909 0,1.36583 0,2.048739 0,0.008 0.006,0.540845 0,0.546329 -0.0125,0.01077 -0.0404,-0.01077 -0.0529,0 -0.0125,0.01077 0.0125,0.0348 0,0.04556 -0.0866,0.07467 -0.26756,0.09252 -0.36989,0.13659 -0.43875,0.189001 -0.71719,0.19642 -1.16253,0.273159 -0.51018,0.08793 0.43327,0.005 -0.26421,0.09103 -0.1395,0.01715 -0.28182,0 -0.42273,0 -0.72627,0 -1.44151,0.05813 -2.16653,0.09103 -0.50907,0.02313 -1.02382,-0.02921 -1.53242,0 -1.08094,0.06212 0.32009,0.03629 -0.95115,0.09103 -0.54361,0.02343 -1.09404,0 -1.6381,0 -1.004,0 -2.00799,0 -3.01199,0 -0.69677,0 0.11803,-0.01844 -0.47558,0.04556 -0.34008,0.03659 -0.71498,0 -1.05683,0 -0.3295,0 -0.67625,0.02562 -1.00401,0 -0.21341,-0.01675 -0.42045,-0.07687 -0.63411,-0.09103 -0.21073,-0.01396 -0.42273,0 -0.63409,0 -0.79264,0 -1.58527,0 -2.3779,0 -0.38782,0 -0.8319,0.05503 -1.21536,0 -0.43228,-0.06212 -0.87797,-0.104766 -1.32106,-0.136581 -0.69676,0 0.11805,0.01844 -0.47558,-0.04556 -0.15648,-0.01685 -0.70675,0.05972 -0.84547,0 -0.14799,-0.06381 -0.19149,-0.214286 -0.2642,-0.318692 -0.0257,-0.03679 -0.08,-0.05423 -0.10565,-0.09103 -0.0765,-0.10986 -0.0389,-0.203609 -0.10565,-0.318694 -0.0621,-0.107087 0.0248,-0.926567 0.0529,-1.047135 0.0226,-0.09791 0.12877,-0.105214 0.15852,-0.182103 0.0115,-0.02881 -0.008,-0.06162 0,-0.09103 0.0457,-0.157477 0.86847,-1.11248 1.004,-1.229248 0.14133,-0.121765 0.15962,-0.04696 0.26421,-0.182104 0.0788,-0.101804 0.12418,-0.222113 0.21137,-0.318693 0.039,-0.04317 0.11364,-0.05235 0.15853,-0.09103 0.17153,-0.147806 0.27485,-0.377277 0.47558,-0.500806 0.0641,-0.03948 0.15085,-0.04766 0.21136,-0.09103 0.0489,-0.03499 0.0561,-0.102402 0.10564,-0.13659 0.0435,-0.03001 0.11503,-0.01555 0.15852,-0.04556 0.0496,-0.03419 0.0561,-0.102402 0.10566,-0.136589 0.0435,-0.03001 0.11661,-0.01396 0.15853,-0.04556 0.10352,-0.07807 0.17281,-0.184577 0.2642,-0.27316 0.19482,-0.188833 0.40897,-0.384695 0.63411,-0.54633 0.0975,-0.07009 0.22724,-0.104735 0.31705,-0.182113 0.0279,-0.02403 0.0311,-0.06281 0.0529,-0.09103 0.0642,-0.08305 0.15882,-0.10655 0.26422,-0.227637 0.0529,-0.06072 0.15853,-0.07587 0.21136,-0.136579 0.0335,-0.03838 0.0194,-0.0982 0.0529,-0.13659 0.0236,-0.02712 0.0779,-0.02154 0.10566,-0.04556 0.0557,-0.04795 0.05,-0.134117 0.10565,-0.182113 0.0125,-0.01077 0.0404,0.01077 0.0529,0 0.031,-0.02662 0.1281,-0.142781 0.15853,-0.182104 0.0571,-0.07377 0.36859,-0.590746 0.36989,-0.591862 0.0125,-0.01077 0.045,0.01356 0.0529,0 0.0157,-0.02712 -0.0157,-0.0639 0,-0.09103 0.008,-0.01356 0.0404,0.01077 0.0529,0 0.0485,-0.04178 0.2954,-0.545223 0.31706,-0.591853 z"
       id="path8" />
    <path
       style="fill:#de8b01;fill-opacity:1;stroke:none;stroke-width:2.27355;stroke-linejoin:round;stroke-dasharray:none"
       d="m 118.58426,39.406748 c 0.54264,0.03938 1.0422,-0.191415 1.4946,-0.38631 0.33318,-0.143529 0.42098,-0.567656 0.7473,-0.708244 0.0452,-0.01954 0.19288,-0.03739 0.22419,-0.0644 0.0176,-0.01516 -0.0176,-0.04925 0,-0.06441 0.0176,-0.01516 0.0524,0.01 0.0748,0 0.11957,-0.05155 0.17936,-0.206032 0.29891,-0.257538 0.0949,-0.04088 0.44175,-0.05862 0.52312,-0.128772 0.0176,-0.01516 -0.0115,-0.04516 0,-0.06441 0.0837,-0.144197 0.37796,-0.292522 0.52311,-0.38631 0.0856,-0.05533 0.35966,-0.167687 0.44837,-0.19316 0.0709,-0.02034 0.15735,0.02881 0.2242,0 0.0315,-0.01356 0.0413,-0.05474 0.0748,-0.06441 0.0709,-0.02034 0.15735,0.02881 0.22419,0 0.20817,-0.08963 0.42821,-0.09371 0.67257,-0.128774 0.15204,0.02234 0.24211,-0.1061 0.37365,-0.128762 0.18101,-0.03121 0.42102,-0.01366 0.59783,-0.06441 0.0529,-0.01516 0.0945,-0.05653 0.14947,-0.06441 0.27028,-0.03878 0.54937,0.02353 0.82203,0 0.15285,-0.01316 1.86392,-0.325652 2.0177,-0.19316 0.0176,0.01516 -0.0176,0.04925 0,0.06441 0.0434,0.03739 0.23613,0.03729 0.29892,0.0644 0.13996,0.06032 0.30226,0.215583 0.44838,0.257547 0.0472,0.01356 0.10796,-0.02383 0.14946,0 0.0463,0.02662 0.0352,0.09481 0.0748,0.128763 0.0176,0.01516 0.0571,-0.01515 0.0748,0 0.004,0.004 0.20644,0.291375 0.22417,0.321934 0.0299,0.05155 -0.0299,0.141644 0,0.19315 0.0115,0.01924 0.0572,-0.01516 0.0748,0 0.0529,0.04556 -0.0414,0.139591 0,0.19316 0.0308,0.03998 0.11856,0.02443 0.14946,0.06441 0.0483,0.06252 0.0137,0.204964 0.0748,0.257546 0.0176,0.01516 0.0572,-0.01516 0.0748,0 0.0176,0.01516 -0.0176,0.04925 0,0.06441 0.18184,0.156679 0.76557,0.06441 0.97148,0.06441 0.13081,0 0.5458,0.05463 0.67258,0 0.0315,-0.01356 0.0413,-0.05474 0.0748,-0.06441 0.0472,-0.01356 0.10798,0.02383 0.14947,0 0.0464,-0.02662 0.0438,-0.08883 0.0748,-0.128764 -0.007,-0.127557 0.11004,-0.03041 0.14946,-0.06441 0.0176,-0.01515 -0.0176,-0.04925 0,-0.06441 0.0433,-0.03729 0.25559,-0.09143 0.29891,-0.128773 0.004,-0.004 0.14658,-0.188195 0.14946,-0.19316 0.1555,-0.267956 -0.004,0.06879 0.14947,-0.06441 0.0176,-0.01515 -0.0176,-0.04925 0,-0.06441 0.0469,-0.04038 0.31586,-0.01465 0.37363,-0.0644 0.15463,-0.133221 -0.23627,0.005 0.0748,-0.128773 0.0812,-0.035 0.41824,-0.03838 0.44839,-0.06441 0.0176,-0.01516 -0.0223,-0.05474 0,-0.06441 0.0669,-0.02881 0.17134,0.04556 0.22418,0 0.15462,-0.13321 -0.23628,0.005 0.0748,-0.128774 0.0256,-0.01097 0.51967,-0.125801 0.52311,-0.128762 0.0393,-0.0339 0.0354,-0.09481 0.0748,-0.128774 0.0577,-0.04975 0.28283,-0.02532 0.37365,-0.06441 0.17729,-0.07637 0.40607,-0.110547 0.59785,-0.193159 0.0315,-0.01356 0.0405,-0.05703 0.0748,-0.06441 0.0725,-0.01565 0.15168,0.01565 0.22419,0 0.0341,-0.007 0.0431,-0.05085 0.0748,-0.06441 0.0446,-0.01924 0.11421,0.03041 0.14946,0 0.0176,-0.01516 -0.0176,-0.04925 0,-0.06441 0.0499,-0.04298 0.0996,0.04297 0.14946,0 0.0176,-0.01516 -0.0176,-0.04925 0,-0.06441 0.0529,-0.04556 0.15169,0.01565 0.2242,0 0.13013,-0.02801 0.25862,-0.06929 0.37364,-0.128773 0.14606,-0.07547 0.76754,-0.538553 0.97149,-0.450696 0.26864,0.115721 0.16677,0.208074 0.29891,0.321923 0.0557,0.04795 0.15666,0.02951 0.2242,0.06441 0.29045,0.150149 0.0318,0.100937 0.22419,0.321923 0.0335,0.03838 0.11005,0.03051 0.14946,0.06441 0.0788,0.0679 0.0877,0.177687 0.14945,0.257547 0.0391,0.05055 0.11795,0.07447 0.14946,0.128773 0.19732,0.339989 0.21185,0.74604 0.37366,1.094554 0.0523,0.112662 0.17677,0.219809 0.22418,0.321923 0.17388,0.374515 0.53575,1.898888 0.37366,2.31789 -0.11283,0.291654 -0.0212,0.009 -0.14946,0.193149 -0.24786,0.355912 -0.39056,0.613967 -0.82204,0.837018 -0.17989,0.09303 -0.22241,0.02452 -0.37364,0.128772 -0.27974,0.192802 -0.24156,0.257538 -0.59785,0.257538 -1.14877,0 -2.29284,-0.01 -3.43758,-0.06441 -0.80149,-0.03838 -0.37367,-0.07926 -1.12094,-0.128764 -0.83573,-0.05543 -1.71494,-0.01465 -2.54081,0.06441 -0.39381,0.03769 -0.80134,-0.034 -1.19568,0 -0.15077,0.01296 -0.29761,0.05145 -0.44838,0.06441 -0.1735,0.01496 -0.35213,-0.02951 -0.5231,0 -0.34778,0.05992 -0.67193,0.217237 -1.04622,0.257546 -0.19775,0.02134 -0.40127,-0.02821 -0.59785,0 -0.44263,0.06351 -0.89604,0.08036 -1.34513,0.128774 -0.34233,0.03689 -0.70287,-0.02692 -1.04622,0 -0.34993,0.02742 -0.69649,0.0986 -1.04622,0.128763 -0.65761,0.05663 -1.35756,0 -2.0177,0 -0.9779,0 -2.02411,0.07418 -2.98919,-0.06441 -0.26847,-0.03858 -0.55832,-0.008 -0.82204,-0.0644 -0.31443,-0.0677 -0.60369,-0.274905 -0.82203,-0.321933 -0.0408,-0.009 -0.27562,-0.02423 -0.29891,-0.06441 -0.0223,-0.03838 0.0351,-0.0984 0,-0.128764 -0.0354,-0.03041 -0.11421,0.03031 -0.14946,0 -0.0656,-0.05643 -0.0278,-0.305303 -0.0748,-0.38632 -0.25295,-0.435871 0.29699,-1.248082 0.7473,-1.480863 0.20416,-0.105543 0.51298,-0.217168 0.74731,-0.257546 0.0865,-0.01486 0.54779,-0.02124 0.59783,-0.06441 0.0176,-0.01516 0,-0.04288 0,-0.06441 0.12454,-0.02144 0.24909,-0.04287 0.37364,-0.06441 z"
       id="path14" />
    <path
       style="fill:#b36d01;fill-opacity:1;stroke:none;stroke-width:2.27355;stroke-linejoin:round;stroke-dasharray:none"
       d="m 138.61187,18.932128 0.22419,22.98566 -2.76499,-0.128773 c 0,0 -2.01772,-18.027967 0.14944,-22.663727 2.16717,-4.63576 3.06393,5.98786 3.06393,5.98786 l 0.59784,-5.60155 z"
       id="path17" />
    <path
       id="path4-1"
       style="fill:none;fill-opacity:1;stroke:#000000;stroke-width:2.24477;stroke-linejoin:round;stroke-dasharray:none"
       inkscape:transform-center-x="-7.899699e-06"
       inkscape:transform-center-y="-2.5667082"
       d="m 115.44358,18.879785 5.90762,7.699919 2.95381,3.850219 -2.95381,3.850219 -5.90762,7.699919 h 11.81524 11.81583 16.06729 V 18.879785 l -16.06729,-10e-6 h -11.81582 z" />
    <path
       id="path4-9"
       style="fill:#ffa204;fill-opacity:1;stroke:#000000;stroke-width:2.24477;stroke-linejoin:round;stroke-dasharray:none"
       inkscape:transform-center-x="1.0661148e-05"
       inkscape:transform-center-y="2.5667074"
       d="m 282.45315,41.550133 -5.90762,-7.699919 -2.95381,-3.850219 2.95381,-3.850219 5.90762,-7.699919 H 270.6379 258.82207 242.75479 v 23.100276 l 16.06728,10e-6 h 11.81582 z" />
    <path
       style="fill:#de8b01;fill-opacity:1;stroke:none;stroke-width:2.27355;stroke-linejoin:round;stroke-dasharray:none"
       d="m 257.72955,36.723337 c 0.0996,-0.04288 0.19925,-0.08584 0.29891,-0.128774 0,-0.02144 -0.0178,-0.04925 0,-0.06441 0.0284,-0.02463 0.34745,0 0.37366,0 0.42496,0 0.0492,0.02881 0.37364,-0.0644 0.20195,-0.05802 1.47725,-0.03968 1.56932,0 0.0629,0.02712 0.0811,0.114047 0.14945,0.128763 0.0726,0.01565 0.15171,-0.01565 0.2242,0 0.0555,0.01197 0.75451,0.28316 0.82201,0.321934 0.0586,0.03369 0.0908,0.09511 0.14948,0.128773 0.0927,0.05324 0.22014,0.06092 0.29892,0.128763 0.0162,0.01396 0.0602,0.122502 0.0748,0.128774 0.0446,0.01924 0.10488,-0.01924 0.14943,0 0.0223,0.01 -0.0115,0.04516 0,0.06441 0.15552,0.267954 -0.004,-0.06879 0.14948,0.0644 0.0175,0.01516 -0.0177,0.04925 0,0.06441 0.0433,0.03729 0.2556,0.09143 0.29893,0.128774 0.0175,0.01516 -0.0177,0.04925 0,0.06441 0.091,0.07846 0.28259,0.114705 0.37364,0.193159 0.0175,0.01516 -0.0177,0.04925 0,0.06441 0.0351,0.03031 0.10488,-0.01924 0.14945,0 0.19998,0.08614 0.42677,0.315712 0.67257,0.38631 0.0473,0.01356 0.10496,-0.01924 0.14947,0 0.063,0.02712 0.084,0.106231 0.14948,0.128773 0.46314,0.159621 1.6561,-0.267945 1.94296,-0.515083 0.0393,-0.0339 0.0353,-0.09481 0.0748,-0.128774 0.0636,-0.05473 0.16068,-0.07408 0.22417,-0.128772 0.0393,-0.0339 0.0353,-0.09481 0.0748,-0.128764 0.0393,-0.0339 0.1031,-0.03778 0.14943,-0.06441 0.0755,-0.04337 0.25701,-0.314087 0.29893,-0.38632 0.0573,-0.0986 0.13318,-0.05035 0.22421,-0.128763 0.0375,-0.03231 0.0257,-0.215334 0.0748,-0.257547 0.029,-0.02502 0.93766,-0.442372 0.97149,-0.450696 0.23395,-0.05762 0.22899,0.03011 0.44836,-0.06441 0.0817,-0.03519 1.24067,-0.03001 1.34514,0 0.10564,0.03031 0.19549,0.09313 0.29892,0.128774 0.21633,0.07457 0.46657,0.06959 0.67256,0.128772 0.0335,0.01 0.0406,0.05703 0.0748,0.06441 0.0725,0.01565 0.15091,-0.01267 0.22422,0 0.0546,0.009 0.0948,0.05494 0.14944,0.06441 0.55071,0.09491 1.16465,-0.07956 1.71879,0 0.22509,0.03231 0.44695,0.101007 0.67256,0.128773 0.24669,0.03041 0.44971,0.0328 0.67257,0.128774 0.19582,0.08434 0.17678,0.345452 0.22419,0.38631 0.0353,0.03041 0.11421,-0.03031 0.14946,0 0.0169,0.01446 0.038,0.225891 0.0748,0.257546 0.0178,0.01516 0.0571,-0.01516 0.0748,0 0.0175,0.01516 -0.0115,0.04516 0,0.06441 0.003,0.004 0.43752,0.441354 0.44836,0.450696 0.0393,0.0339 0.11006,0.03041 0.14948,0.06441 0.15461,0.13322 -0.23628,-0.005 0.0748,0.128774 0.0591,0.02542 0.16114,-0.01814 0.22418,0 0.0529,0.01515 0.0953,0.05274 0.14946,0.0644 0.11246,0.02423 0.26321,-0.03171 0.37364,0 0.0529,0.01516 0.0954,0.05275 0.14947,0.06441 0.0484,0.01047 0.10488,-0.01924 0.14946,0 0.063,0.02712 0.0908,0.09511 0.14947,0.128774 0.0414,0.02383 0.11421,-0.03031 0.14945,0 0.0178,0.01516 -0.0177,0.04925 0,0.06441 0.0223,0.01924 0.28927,-0.002 0.29893,0 0.31263,-0.11659 0.0864,0.101624 0.14945,0.128773 0.0446,0.01924 0.10214,-0.01356 0.14945,0 0.0744,0.02134 0.14976,0.107398 0.2242,0.128773 0.0472,0.01356 0.10111,-0.01037 0.14947,0 0.22912,0.04935 0.48138,0.110807 0.67257,0.19315 0.0996,0.04297 0.27398,-0.04287 0.37365,0 0.0315,0.01356 0.0497,0.04297 0.0747,0.06441 0.0499,0 0.10111,-0.01037 0.14947,0 0.14201,0.03061 0.80027,0.303179 0.89675,0.38632 0.0636,0.05473 0.0794,0.144815 0.14947,0.193149 0.0616,0.04238 0.16118,0.02363 0.22418,0.06441 0.0446,0.02881 0.0312,0.0988 0.0748,0.128774 0.087,0.05992 0.21194,0.06879 0.29892,0.128773 0.17478,0.120478 0.40475,0.681444 0.22416,0.837007 -0.0393,0.0339 -0.11004,0.03051 -0.14943,0.06441 -0.0177,0.01515 0,0.04297 0,0.0644 -0.0248,0.02144 -0.0466,0.04616 -0.0748,0.0644 -0.64672,0.417916 -1.28091,0.450697 -2.09244,0.450697 -0.66875,0 -1.28182,0.155184 -1.94297,0.19316 -0.34796,0.02004 -0.69839,-0.02144 -1.04622,0 -0.62343,0.03838 -1.24371,0.09711 -1.86823,0.128774 -0.62562,0.03171 -1.75119,0.06132 -2.39136,0 -0.12624,-0.01207 -0.24717,-0.05443 -0.37365,-0.0644 -0.71139,-0.05573 -1.45405,0 -2.16718,0 -0.91245,0 -1.85601,-0.06022 -2.765,0 -0.5494,0.03639 -1.09193,0.09711 -1.64407,0.128774 -0.76766,0.04406 -1.55064,-0.06002 -2.31661,0 -0.12648,0.01 -0.24726,0.05353 -0.37366,0.0644 -0.51758,0.04456 -1.0524,-0.04945 -1.56932,0 -0.0783,0.008 -0.14603,0.05593 -0.22416,0.06441 -0.4989,0.05374 -1.83827,0.06769 -2.24193,-0.193149 -0.19265,-0.124486 -0.41274,-0.260568 -0.52309,-0.450697 -0.0776,-0.133789 0,-1.822857 0,-2.060344 0,-0.124286 -0.0193,-1.786047 0,-1.802796 0.0175,-0.01516 0.0636,0.01924 0.0748,0 0.0487,-0.08394 -0.0786,-0.38297 0,-0.450697 0.0177,-0.01516 0.0499,0 0.0748,0 0.0748,-0.08584 0.14947,-0.171694 0.22422,-0.257546 z"
       id="path16" />
    <path
       style="fill:#b36d01;fill-opacity:1;stroke:none;stroke-width:2.27355;stroke-linejoin:round;stroke-dasharray:none"
       d="m 257.32941,41.168499 -0.2242,-22.985659 2.76501,0.128772 c 0,0 2.0177,18.027967 -0.14946,22.663727 -2.16716,4.63576 -3.06392,-5.98786 -3.06392,-5.98786 l -0.59784,5.60155 z"
       id="path17-8" />
    <path
       id="path4-9-7"
       style="fill:none;fill-opacity:1;stroke:#000000;stroke-width:2.24477;stroke-linejoin:round;stroke-dasharray:none"
       inkscape:transform-center-x="1.0661148e-05"
       inkscape:transform-center-y="2.5667074"
       d="m 282.45315,41.550133 -5.90762,-7.699919 -2.95381,-3.850219 2.95381,-3.850219 5.90762,-7.699919 H 270.6379 258.82207 242.75479 v 23.100276 l 16.06728,10e-6 h 11.81582 z" />
    <path
       id="rect3-7"
       style="fill:#ffa204;fill-opacity:1;stroke:#000000;stroke-width:1.96801;stroke-linejoin:round;stroke-dasharray:none"
       d="m 138.92213,15.931978 v 28.995646 h 118.0145 V 15.931978 Z" />
    <path
       id="path10"
       style="fill:#f19902;fill-opacity:1;stroke:none;stroke-width:2.27355;stroke-linejoin:round;stroke-dasharray:none"
       d="m 257.92055,25.689522 c -0.0702,0.07029 -0.16344,0.152078 -0.18914,0.19637 -0.0223,0.03843 0.0352,0.09836 0,0.128674 -0.0352,0.03041 -0.10474,-0.01924 -0.14934,0 -0.0439,0.01891 -0.8911,0.889077 -0.8971,0.901237 -0.037,0.07971 0.0315,0.176406 0,0.257866 -0.0446,0.115173 -0.22049,0.156332 -0.29869,0.257348 -0.12357,0.15972 -0.14166,0.379483 -0.29921,0.515214 -0.086,0.07408 -0.32633,0.117569 -0.44803,0.257349 -0.14945,0.171695 -0.21224,0.447314 -0.44856,0.515214 -0.0945,0.02712 -0.21579,-0.04766 -0.29869,0 -0.0927,0.05324 -0.0711,0.189449 -0.14986,0.257349 -0.52218,0.449897 -2.96285,1.726221 -3.58686,1.80299 -0.60474,0.07443 -1.38742,0.0309 -1.94303,-0.128674 -0.53542,-0.153778 -1.41039,0.05733 -1.94304,0 -0.38896,-0.04189 -0.72771,-0.249452 -1.04593,-0.38654 -0.10347,-0.04456 -1.15469,-0.221958 -1.19579,-0.257348 -0.0705,-0.06071 0.0705,-0.197146 0,-0.257866 -0.0802,-0.06914 -0.44794,-0.06406 -0.5979,-0.128674 -0.23477,-0.101135 -0.52112,-0.385324 -0.74724,-0.515214 -0.34221,-0.19656 0.0544,-0.133832 -0.2992,-0.514697 -0.11221,-0.120847 -0.30433,-0.165036 -0.44804,-0.257866 -0.11272,-0.07285 -0.17318,-0.203018 -0.2992,-0.257348 -0.37897,-0.16326 -0.94572,-0.214466 -1.34514,-0.38654 -0.12606,-0.0543 -0.17266,-0.203019 -0.29869,-0.257349 -0.18372,-0.07912 -0.40911,-0.05898 -0.5979,-0.128674 -0.41605,-0.153618 -0.68915,-0.438654 -1.04645,-0.643888 -0.27593,-0.158474 -2.14462,0.230828 -2.39106,0.257348 -0.37814,0.04068 -0.82641,-0.07956 -1.1958,0 -0.41797,0.09003 -0.94966,0.144286 -1.34513,0.257866 -0.0668,0.01919 -0.0995,0.0858 -0.14935,0.128674 -0.14947,0.04293 -0.2991,0.08579 -0.44855,0.128674 -0.0967,0.02084 -0.20419,-0.02712 -0.29869,0 -0.17041,0.04894 -0.2743,0.219859 -0.44855,0.257349 -0.145,0.03121 -0.30977,-0.04786 -0.44855,0 -0.13083,0.04509 -0.17264,0.203525 -0.29869,0.257865 -0.25068,0.107996 -0.65672,0.05069 -0.89659,0.257349 -0.0788,0.06787 -0.0711,0.189976 -0.14986,0.257865 -0.18551,0.159883 -0.48663,0.03327 -0.59738,0.128675 -0.0351,0.03037 0.0353,0.09836 0,0.128674 -0.0418,0.03605 -0.81736,-0.132511 -0.44855,0.257349 -0.29973,0.32281 -0.52396,0.902263 -0.89659,1.159102 -0.12302,0.08479 -0.30764,0.06795 -0.44855,0.128674 -0.22883,0.09861 -0.11716,0.229701 -0.29921,0.38654 -0.58328,0.502562 -0.0799,-0.02991 -0.44803,0.128674 -0.0872,0.03755 -1.01565,0.608499 -1.04645,0.643889 -0.0944,0.108584 -0.0548,0.277428 -0.14934,0.386023 -0.0668,0.07682 -0.21989,0.06129 -0.29869,0.129191 -0.18203,0.15684 -0.0703,0.287423 -0.29921,0.386023 -0.20421,0.08798 -0.4371,-0.108935 -0.5979,-0.128675 -0.2466,-0.03031 -0.50407,0.04656 -0.74724,0 -0.2175,-0.04163 -0.38926,-0.189948 -0.59789,-0.257348 -0.0333,-0.01076 -1.63583,-0.37954 -1.64383,-0.38654 -0.0705,-0.0607 0.0446,-0.180579 0,-0.257349 -0.003,-0.0054 -0.38825,-0.179905 -0.44855,-0.257865 -0.0186,-0.02399 -0.13405,-0.501537 -0.14935,-0.514697 -0.0352,-0.03031 -0.12704,0.03838 -0.14934,0 -0.0446,-0.07678 0.0315,-0.176406 0,-0.257866 -0.0273,-0.07049 -0.25731,-0.479124 -0.29921,-0.515214 -0.0353,-0.03031 -0.11404,0.03041 -0.14934,0 -0.0705,-0.0607 0.0446,-0.180578 0,-0.257348 -0.28023,-0.482881 -0.61335,-1.057031 -0.89659,-1.545126 -0.16425,-0.283009 -0.43175,0.01447 -0.5979,-0.128674 -0.0351,-0.03037 0.0353,-0.09888 0,-0.129191 -0.33194,-0.28599 -1.18617,-0.253201 -1.49448,-0.386023 -0.40657,-0.175144 -1.15945,-0.911824 -1.64434,-0.772563 -0.60537,0.173823 -1.98224,0.01689 -2.24173,0.128675 -0.004,0.0016 0.0161,1.002703 -0.14934,1.287776 -0.33464,0.576704 -1.09745,0.397418 -1.64435,0.515214 -0.0684,0.01473 -0.0863,0.101555 -0.14934,0.128675 -0.14091,0.06068 -0.31344,0.05878 -0.44855,0.128674 -0.8253,0.42669 -0.12504,0.08679 -0.29869,0.386023 -0.0498,0.0859 -0.24931,0.04335 -0.29921,0.129191 -0.0588,0.101327 0.0996,0.558049 0,0.643888 -0.0352,0.03031 -0.12704,-0.03838 -0.14934,0 -0.23685,0.408014 0.3094,0.119454 -0.14935,0.514698 -0.0233,0.02009 -0.42525,0.237825 -0.44855,0.257865 -0.0181,0.01564 -0.5445,0.726603 -0.5979,0.772563 -0.15753,0.135733 -0.44036,0.121616 -0.59789,0.257348 -0.15755,0.135742 -0.14114,0.379482 -0.29869,0.515214 -0.54719,0.471459 -2.39157,0.515304 -3.13883,0.38654 -0.55034,-0.09483 -1.16962,-0.310928 -1.64383,-0.515214 -0.0996,-0.04292 -0.0497,-0.214995 -0.14934,-0.257865 -0.0891,-0.03838 -0.21021,0.03838 -0.29921,0 -0.0685,-0.02949 -0.0124,-0.198329 -0.14934,-0.257349 -0.41737,-0.179776 0.24471,0.53905 -0.44855,-0.257349 -0.68814,-0.790506 0.29258,0.246319 -0.14935,-0.515214 -0.0223,-0.03838 -0.11424,0.03031 -0.14934,0 -0.17572,-0.151395 0.16716,-1.772303 0,-2.060339 -0.0897,-0.154525 -0.35885,-0.232013 -0.44855,-0.38654 -0.0223,-0.03844 0.0351,-0.09836 0,-0.128674 -0.0353,-0.03031 -0.11425,0.03031 -0.14935,0 -0.0351,-0.03037 0.0351,-0.09836 0,-0.128674 -0.0705,-0.06072 -0.22819,0.06072 -0.29869,0 -0.0351,-0.03037 0.0446,-0.109435 0,-0.128675 -0.17232,-0.07423 -0.73172,-0.122282 -1.04645,-0.257865 -0.18233,-0.07856 -2.11691,-0.04736 -2.39158,0 -0.15448,0.02662 -0.3366,0.03318 -0.44804,0.129191 -0.0351,0.03036 0.0446,0.109434 0,0.128674 -0.29892,0.128774 -0.22436,-0.06441 -0.44855,0 -0.2956,0.08489 -0.49891,0.150361 -0.74724,0.257349 -0.13369,0.05763 -0.30355,-0.03121 -0.44855,0 -0.41001,0.08832 -0.80015,0.401735 -1.19528,0.515214 -0.0945,0.02712 -0.2102,-0.03838 -0.2992,0 -0.12603,0.0543 -0.18598,0.184459 -0.29869,0.257349 -0.42339,0.273588 -0.15596,0.03346 -0.5979,0.128674 -0.26272,0.05659 -0.53266,0.29411 -0.74724,0.38654 -0.56937,0.245282 -0.86042,0.725675 -1.19579,1.159102 -0.0391,0.05051 -0.0996,0.0858 -0.14935,0.128674 -0.0499,0 -0.11476,-0.03041 -0.14986,0 -0.0351,0.03036 0.0223,0.0903 0,0.128675 -0.083,0.143102 -0.75162,0.518993 -0.89659,0.643888 -0.19937,0.171708 0.31719,0.12337 -0.14934,0.257349 -0.0945,0.02712 -0.20471,-0.02712 -0.29921,0 -0.23813,0.06839 -0.46873,0.32652 -0.74724,0.386539 -0.22563,0.04855 -4.1886,0.08464 -4.48345,0 -0.0668,-0.01919 -0.0808,-0.116804 -0.14986,-0.128674 -0.19539,-0.0337 -0.40833,0.05434 -0.59738,0 -0.13368,-0.03838 -0.17318,-0.203535 -0.2992,-0.257865 -0.32442,-0.139751 -0.72153,-0.117598 -1.04593,-0.257349 -0.0631,-0.02714 -0.083,-0.109434 -0.14987,-0.128674 -0.0945,-0.02712 -0.20969,0.03838 -0.29869,0 -0.0446,-0.0192 0.0472,-0.115115 0,-0.128675 -0.14179,-0.04068 -0.302,0.02522 -0.44855,0 -0.10925,-0.01882 -0.19304,-0.09888 -0.29869,-0.129191 -0.52805,-0.151654 -1.24807,0.09401 -1.79369,0 -0.49969,-0.0861 -0.92655,-0.205705 -1.34513,-0.386023 -0.0902,-0.03888 -0.37945,0.05952 -0.44855,0 -0.0788,-0.06788 -0.0567,-0.204108 -0.14935,-0.257348 -0.0829,-0.04766 -0.20969,0.03838 -0.29869,0 -0.22049,-0.09498 -1.22562,-1.494038 -1.34514,-1.802991 -0.0657,-0.16975 -0.0651,-0.498654 -0.14934,-0.643888 -0.0223,-0.03838 -0.11476,0.03031 -0.14986,0 -0.0705,-0.06071 0.0705,-0.196629 0,-0.257349 -0.19733,-0.17001 -0.35514,-0.146301 -0.44804,-0.38654 -0.0315,-0.08144 0.0446,-0.180578 0,-0.257348 -0.007,-0.01177 -1.24104,0 -1.64434,0 -0.93093,0 0.37218,-0.03848 -0.5979,0.128674 -0.24428,0.04208 -0.51092,-0.06789 -0.74724,0 -0.0668,0.0192 -0.0907,0.09497 -0.14934,0.128674 -0.39177,0.225036 -0.26114,0.04794 -0.74725,0.257349 -0.48956,0.210897 -0.86021,0.564187 -1.34513,0.773079 -0.72392,0.311863 -1.50745,0.485217 -2.24173,0.643372 -0.74831,0.161186 -1.49203,0.770849 -2.09289,1.159102 -0.60046,0.387995 0.0377,-0.141843 -0.74724,0.128675 -0.13083,0.04509 -0.17265,0.203535 -0.29869,0.257865 -0.21734,0.09362 -2.08906,0 -2.24173,0 -0.66196,0 -3.62884,0.02097 -3.88607,-0.643888 -0.0315,-0.08145 0.0315,-0.176406 0,-0.257866 -0.0765,-0.197815 -0.32648,-0.09958 -0.44855,-0.257348 -0.0553,-0.07144 0.0242,-0.174099 0,-0.257349 -0.092,-0.317157 -0.34046,-0.622283 -0.44855,-0.901754 -0.0931,-0.240646 -0.0813,-0.971238 -0.29869,-1.158585 -0.14992,-0.129173 -1.32697,0.228538 -1.49448,0.257348 -0.0817,0.01408 -1.13409,0.230829 -1.19579,0.257349 -0.2872,0.123719 -0.46003,0.391486 -0.74724,0.515214 -0.13367,0.05763 -0.31488,-0.05763 -0.44856,0 -0.18907,0.08145 -0.2595,0.30508 -0.44855,0.38654 -0.12782,0.05509 -0.32021,0.07364 -0.44803,0.128674 -0.0998,0.04292 -0.0497,0.214379 -0.14935,0.257349 -0.17533,0.07552 -0.55497,0.04562 -0.74775,0.128674 -0.26531,0.114307 -0.48193,0.272242 -0.74725,0.38654 -0.0891,0.03838 -0.22819,-0.06072 -0.29869,0 -0.0353,0.03037 0.0351,0.09826 0,0.128674 -0.0747,0.06441 -0.37375,-0.06441 -0.44855,0 -0.0351,0.03036 0.0351,0.09836 0,0.128674 -0.0704,0.06072 -0.20419,-0.02712 -0.29869,0 -0.3086,0.08862 -0.34603,0.278036 -0.59789,0.38654 -0.12839,0.05528 -0.23091,0.03496 -0.44855,0.128674 -0.15943,0.06869 -0.43848,-0.06869 -0.5979,0 -0.0631,0.02715 -0.0825,0.109435 -0.14935,0.128675 -0.42728,0.122711 -2.14829,-0.04819 -2.39106,-0.257349 -0.0352,-0.03037 0.0351,-0.09836 0,-0.128674 -0.0788,-0.06785 -0.20651,-0.07544 -0.29921,-0.128675 -0.0587,-0.03366 -0.0994,-0.08622 -0.14935,-0.129191 0,-0.04292 0.0351,-0.09836 0,-0.128674 -0.0352,-0.03041 -0.11404,0.03031 -0.14934,0 -0.0351,-0.03037 0.0353,-0.09836 0,-0.128674 -0.0352,-0.03031 -0.11425,0.03031 -0.14935,0 -0.0496,-0.04272 -0.2551,-0.439144 -0.2992,-0.515214 -0.311,-0.535921 0.0105,0.137754 -0.29869,-0.128675 -0.30925,-0.266546 0.47216,0.01061 -0.14986,-0.257348 -0.20612,-0.08879 -0.13345,0.15605 -0.29869,-0.128675 -0.0223,-0.03843 0.0351,-0.09888 0,-0.129191 -0.0352,-0.03031 -0.11415,0.03031 -0.14935,0 -0.11133,-0.09593 -0.2148,-0.441907 -0.2992,-0.514697 -0.0352,-0.03041 -0.11425,0.03031 -0.14935,0 -0.35964,-0.309859 -0.56458,-0.773079 -1.04645,-0.773079 h -2.39107 c -0.0615,0 -0.40905,-0.0341 -0.44855,0 -0.0351,0.03037 0.0351,0.09878 0,0.129191 -0.0705,0.06072 -0.20949,-0.03838 -0.29869,0 -0.43026,0.185343 -0.70272,0.506382 -0.89658,0.901237 -0.0996,0.171694 -0.21641,0.336989 -0.29921,0.515214 -0.0185,0.03984 0.0351,0.09836 0,0.128674 -0.0352,0.03031 -0.11424,-0.03031 -0.14934,0 -0.21681,0.186789 0.14039,0.917168 0,1.159102 -0.0315,0.0543 -0.11785,0.07434 -0.14935,0.128675 -0.16902,0.291246 0,2.997948 0,3.47679 v 8.627381 c 0,0.757972 -0.0661,1.560968 0.29869,2.18953 0.0446,0.07679 -0.0705,0.196629 0,0.257349 0.0675,0.05812 3.2327,0 3.73672,0 h 10.4619 c 0.7072,0 3.97746,-0.145463 4.48396,0 0.0668,0.01919 0.0864,0.101554 0.14935,0.128674 0.1118,0.0482 3.67482,0.128674 3.73672,0.128674 h 7.17372 c 1.14225,0 2.52301,0.177007 3.58738,-0.128674 0.26903,-0.07727 0.62757,0.07727 0.89659,0 0.0668,-0.0192 0.0824,-0.109434 0.14934,-0.128674 0.31279,-0.08983 0.72113,0.05603 1.04645,0 0.60474,-0.104207 1.20936,-0.131596 1.79317,-0.257349 0.52642,-0.113423 0.84671,0.08553 1.34514,-0.129191 0.27162,-0.117009 3.69874,0 4.33462,0 h 4.63331 c 1.05617,0 1.96093,-0.01843 2.98896,0.129191 0.14742,0.02114 0.30356,-0.03121 0.44855,0 0.0684,0.01473 0.0824,0.109434 0.14935,0.128674 0.47566,0.13661 1.28788,0 1.79369,0 h 4.3341 c 0.57173,0 0.95213,0.05082 1.49448,0.128675 1.14128,0.163887 2.69781,0 3.88607,0 h 7.17424 c 1.50749,0 3.18309,0.183697 4.63331,-0.128675 0.61386,-0.132223 2.04052,0.215582 2.54093,0 0.0446,-0.01919 -0.0446,-0.109434 0,-0.128674 0.21841,-0.09411 0.6543,0.04178 0.89658,0 0.41007,-0.07066 0.78575,-0.187176 1.1958,-0.257865 0.8618,-0.148505 2.64851,0 3.58686,0 1.41828,0 3.62033,-0.161446 4.932,0 0.15595,0.01919 0.2957,0.09577 0.44855,0.128674 0.75041,0.161644 1.63213,-0.130857 2.39158,0 1.22657,0.211333 2.50838,-0.04712 3.73621,0.129191 1.46587,0.210487 2.9958,0.140789 4.48396,0.257349 0.15688,0.01229 0.29354,0.102054 0.44804,0.128674 0.33436,0.05762 0.71025,-0.04825 1.04644,0 0.50408,0.07238 0.99267,0.171425 1.49449,0.257865 1.12923,0.194586 2.44379,-0.08953 3.58737,0 0.25299,0.01982 0.49448,0.106935 0.74725,0.128675 1.07598,0.09273 2.20659,0 3.28817,0 1.47596,0 3.04922,0.118473 4.48344,-0.128675 0.89545,-0.154297 2.74155,0 3.73673,0 h 1.53427 z" />
    <path
       id="path15"
       style="fill:#de8b01;fill-opacity:1;stroke:none;stroke-width:2.27355;stroke-linejoin:round;stroke-dasharray:none"
       d="m 160.88151,33.096821 c -0.0631,0.02715 -0.0824,0.109435 -0.14934,0.128675 -0.14179,0.04068 -0.3429,-0.09103 -0.44855,0 -0.0351,0.03036 0.0472,0.115631 0,0.129191 -0.14179,0.04078 -0.30979,-0.04786 -0.44856,0 -0.13083,0.04509 -0.18598,0.184459 -0.29869,0.257348 -0.0479,0.03097 -0.58989,0.242499 -0.59789,0.257349 -0.0446,0.07678 0.0446,0.181096 0,0.257866 -0.0223,0.03838 -0.10475,-0.01924 -0.14935,0 -0.27978,0.120528 -0.37738,0.453908 -0.59789,0.643888 -0.0788,0.06785 -0.24951,0.04283 -0.29921,0.128674 -0.0446,0.07678 0.0446,0.180579 0,0.257349 -0.0223,0.03838 -0.10474,-0.01924 -0.14934,0 -0.0996,0.04293 -0.0497,0.214895 -0.14935,0.257865 -0.0891,0.03838 -0.22871,-0.06072 -0.29921,0 -0.42774,0.36856 0.37304,0.160989 -0.14934,0.386023 -0.22437,0.09666 -0.60831,0.275833 -0.74724,0.515214 -0.0223,0.03844 0.0351,0.09836 0,0.128674 -0.0788,0.06785 -0.31359,-0.126429 -0.29869,0.128675 -0.0619,0.07986 -0.0711,0.189965 -0.14986,0.257865 -0.0352,0.03031 -0.10795,-0.02383 -0.14935,0 -0.23131,0.13285 -0.37542,0.37094 -0.59789,0.514697 -0.14371,0.09285 -0.3403,0.134058 -0.44804,0.257866 -0.0598,0.06868 0.0446,0.180579 0,0.257349 -0.0498,0.08589 -0.22041,0.06077 -0.29921,0.128674 -0.68357,0.58894 -1.42431,1.030428 -2.39106,1.030428 -0.61052,0 -1.48975,0.1298 -2.09238,0 -0.38322,-0.08254 -0.68405,-0.179289 -1.04645,-0.257349 -0.57071,-0.122921 -0.0605,-0.219382 -0.44855,-0.386539 -0.12052,-0.0519 -0.5332,-0.01718 -0.5979,-0.128675 -0.0446,-0.07678 0.0446,-0.181095 0,-0.257865 -0.0445,-0.07677 -0.22819,0.06072 -0.29869,0 -0.0663,-0.05716 -0.40965,-0.610389 -0.44855,-0.643889 -0.0705,-0.06072 -0.22819,0.06072 -0.29869,0 -0.0351,-0.03037 0.0223,-0.09029 0,-0.128674 -0.0479,-0.08252 -0.81289,-0.619858 -0.89659,-0.643888 -0.0945,-0.02712 -0.2162,0.04766 -0.2992,0 -0.0927,-0.05324 -0.0567,-0.204109 -0.14935,-0.257349 -0.0968,-0.05558 -0.49294,-0.03834 -0.59789,-0.128674 -0.35281,-0.304006 0.83386,0.0674 -0.29869,-0.257866 -0.52096,-0.14961 -2.21416,0 -2.84014,0 -0.19929,0 -0.45698,-0.121405 -0.5979,0 -0.19935,0.171706 0.31717,0.123889 -0.14934,0.257866 -0.0945,0.02712 -0.20959,-0.03838 -0.29869,0 -0.0291,0.01255 -0.11695,0.229439 -0.14935,0.257348 -0.0704,0.06072 -0.2287,-0.06072 -0.2992,0 -0.0352,0.03037 0.0223,0.09029 0,0.128675 -0.25051,0.431663 -0.77174,0.663512 -0.74724,1.287777 1e-5,0.487486 -0.06,1.005236 -0.29869,1.416451 -0.0943,0.162571 0.14348,0.648943 0,0.772562 -0.0353,0.03041 -0.11466,-0.03031 -0.14986,0 -0.0696,0.05988 -0.0512,0.861335 -0.14935,1.030428 -0.0223,0.03838 -0.11424,-0.03031 -0.14934,0 -0.12455,0.107308 0.12454,0.536581 0,0.643889 -0.0353,0.03031 -0.11425,-0.03041 -0.14935,0 -0.10565,0.09105 0,0.257249 0,0.386023 0,0.341992 -0.006,1.79799 0,1.80299 0.0352,0.03031 0.11415,-0.03031 0.14935,0 0.0996,0.08585 -0.0996,0.429374 0,0.515214 0.0747,0.06441 0.37375,-0.06441 0.44855,0 0.0352,0.03037 -0.0351,0.09837 0,0.128675 0.11929,0.102781 0.59044,-0.06759 0.74724,0 0.0631,0.02715 0.0863,0.101554 0.14934,0.128674 0.51022,0.219789 1.87883,-0.220668 2.39107,0 0.77566,0.334145 2.49292,0.128674 3.43803,0.128674 h 5.08135 c 0.64315,0 1.47653,0.132652 2.09238,0 0.45615,-0.09825 0.4678,-0.128674 0.8971,-0.128674 h 11.50834 4.03541 c 0.42034,0 0.93439,-0.07079 1.34514,0 0.969,0.166942 1.9014,-0.006 2.83962,0.128674 1.64379,0.236051 3.39888,0.129191 5.08135,0.129191 h 11.95689 c 0.77455,0 3.0533,0.147208 3.73672,0 0.0684,-0.01472 0.0825,-0.109951 0.14935,-0.129191 0.71814,-0.20624 1.90851,0.134716 2.69027,0 0.15448,-0.02661 0.29407,-0.102054 0.44855,-0.128674 0.33305,-0.05743 0.71708,0.07079 1.04593,0 1.66512,-0.358664 3.48194,-0.257349 5.23121,-0.257349 0.1696,0 0.80608,-0.07796 0.89658,0 0.0351,0.03037 -0.0446,0.109435 0,0.128675 0.0891,0.03838 0.20471,-0.02712 0.29921,0 0.0668,0.01919 0.0864,0.101554 0.14935,0.128674 0.2641,0.113767 0.75522,-0.06272 1.04644,0 0.10807,0.02328 0.18946,0.109834 0.29869,0.128674 0.5771,0.09946 1.07465,-0.03427 1.64383,0.129191 0.20441,0.05872 4.52643,0.07377 4.78317,0 0.48151,-0.138774 0.65746,-0.06299 1.19528,-0.129191 0.15596,-0.01919 0.29259,-0.109434 0.44855,-0.128674 2.56337,-0.315477 5.16349,-0.257349 7.77213,-0.257349 1.00904,0 2.13986,-0.122892 3.13831,0 0.20335,0.02504 0.39456,0.103655 0.5979,0.128675 0.29591,0.03639 0.60348,-0.05055 0.89659,0 0.10924,0.01882 0.18995,0.109834 0.2992,0.128674 0.54503,0.09392 1.23631,0 1.79369,0 h 3.43752 c 1.19824,0 2.89072,0.164375 4.03541,0 0.15541,-0.02232 0.29208,-0.109434 0.44804,-0.128674 0.87641,-0.107876 1.81737,0.125343 2.69027,0 0.15537,-0.02231 0.29175,-0.115115 0.44855,-0.128675 1.01662,-0.08764 2.11156,0 3.13883,0 h 6.12779 4.18476 c 0.53265,0 1.53132,-0.120848 2.09238,0 0.0684,0.01472 0.081,0.113915 0.14934,0.128675 0.145,0.03121 0.29908,0 0.44855,0 0.0498,0.04293 0.0864,0.101554 0.14935,0.128674 0.26738,0.115173 0.59965,-0.02562 0.8971,0 0.11449,0.0099 0.22569,0.03879 0.33848,0.05839 v -3.617867 c -0.26308,0.01217 -0.50356,0.01179 -0.63769,-0.04599 -0.0106,-0.0046 -0.26719,-0.488094 -0.29869,-0.515214 -0.0915,-0.07887 -0.39135,-0.109434 -0.44855,-0.257348 -0.0315,-0.08145 0.0446,-0.181096 0,-0.257866 -0.0114,-0.01961 -1.03313,-0.458667 -1.19579,-0.514697 -0.58614,-0.202003 -1.88623,0.112822 -2.54093,0 -0.15447,-0.02662 -0.29355,-0.102571 -0.44804,-0.129191 -0.17916,-0.03091 -0.57646,0.07358 -0.74724,0 -0.0631,-0.02714 -0.0825,-0.111225 -0.14986,-0.128674 -0.43994,-0.113718 -0.90615,-0.140969 -1.34514,-0.257349 -0.91661,-0.243 -1.37802,-0.620111 -2.09237,-1.030428 -0.35381,-0.203229 -0.37672,-0.06678 -0.74725,-0.386023 -0.41799,-0.360129 -0.43257,-0.982952 -1.04593,-1.159103 -0.32302,-0.09277 -0.60216,0.362754 -0.8971,0.515215 -0.3444,0.178055 -0.67676,0.378893 -1.04593,0.515214 -0.18883,0.06974 -0.42175,0.03764 -0.5979,0.128674 -0.17237,0.08911 -0.30317,0.38999 -0.44855,0.515214 -0.28616,0.246569 -0.72854,0.332404 -1.04593,0.514697 -0.17586,0.101016 -0.27269,0.285523 -0.44855,0.38654 -0.13111,0.07533 -0.32254,0.04721 -0.44855,0.128674 -0.14651,0.09466 -0.0923,0.32722 -0.29869,0.38654 -0.0945,0.02712 -0.21001,-0.03838 -0.29921,0 -0.0446,0.0192 0.0351,0.09836 0,0.128674 -0.21073,0.181555 -1.14647,-0.0859 -1.34514,-0.128674 -0.19335,-0.04168 -0.40195,0.0337 -0.59738,0 -0.15446,-0.02662 -0.29571,-0.09629 -0.44855,-0.129191 -0.0967,-0.02084 -0.2102,0.03838 -0.2992,0 -0.0631,-0.02714 -0.0824,-0.109435 -0.14935,-0.128674 -0.11727,-0.0337 -2.1347,-0.07358 -2.39107,0 -0.81508,0.234086 -1.68374,0.624855 -2.54093,0.772562 -0.19541,0.0337 -0.40884,-0.05433 -0.59789,0 -0.51528,0.147995 -0.99248,0.298963 -1.49449,0.515214 -0.38023,0.163808 -0.56558,0.526512 -0.74724,0.643889 -0.12603,0.08141 -0.31346,0.05888 -0.44855,0.128674 -0.12084,0.06246 -0.17785,0.195355 -0.29869,0.257865 -0.22152,0.114526 -0.79298,0.331393 -1.04645,0.386023 -0.39713,0.08554 -0.78985,-0.128674 -1.19579,-0.128674 -0.10991,0 -1.42088,-0.09696 -1.49448,-0.128674 -0.14828,-0.06388 -0.29373,-0.213406 -0.44855,-0.257866 -0.0945,-0.02712 -0.22819,0.06072 -0.29869,0 -0.43141,-0.371649 0.57116,-0.198556 -0.29921,-0.386023 -0.0604,-0.01301 -0.57338,-0.107934 -0.59738,-0.128674 -0.086,-0.07408 -0.13696,-0.281696 -0.2992,-0.38654 -0.5244,-0.338862 -1.48686,-0.985195 -2.09238,-1.159102 -0.13452,-0.03858 -0.31405,0.03868 -0.44856,0 -0.81529,-0.234107 -1.96748,-0.257349 -2.83962,-0.257349 -0.0628,0 -1.93153,-0.01 -1.94303,0 -0.0351,0.03037 0.0351,0.09837 0,0.128675 -0.0352,0.03031 -0.10474,-0.01924 -0.14934,0 -0.17409,0.07499 -0.27446,0.182895 -0.44856,0.257865 -0.13369,0.05763 -0.30624,-0.04068 -0.44803,0 -0.17703,0.05085 -0.28048,0.313633 -0.44855,0.386023 -0.0445,0.01924 -0.11425,-0.03041 -0.14935,0 -0.0351,0.03036 0.0351,0.09836 0,0.128674 -0.0352,0.03041 -0.10474,-0.01924 -0.14934,0 -0.29595,0.127497 -0.5305,0.585859 -0.5979,0.643889 -0.0352,0.03041 -0.10526,-0.01924 -0.14986,0 -0.62201,0.267916 0.1599,-0.0086 -0.14934,0.257865 -0.10362,0.08927 -1.28473,0.583668 -1.49449,0.643888 -0.17293,0.04965 -0.43728,-0.06919 -0.59789,0 -0.30501,0.131395 -0.51718,0.148386 -0.89659,0.257349 -0.39119,0.112343 -1.22067,0.439869 -1.64434,0.257349 -0.41282,-0.177824 -0.51316,-0.03684 -1.04593,-0.128675 -0.13938,-0.02402 -0.99075,-0.426874 -1.1958,-0.515214 -0.15941,-0.06869 -0.43847,0.06869 -0.59789,0 -0.43982,-0.189471 -1.0456,-0.411329 -1.49449,-0.643371 -0.42537,-0.2199 -0.13522,-0.28694 -0.59789,-0.38654 -0.0967,-0.02084 -0.20419,0.02712 -0.29869,0 -0.0669,-0.0192 -0.083,-0.109434 -0.14986,-0.128674 -0.3917,-0.112492 -1.10464,0 -1.49449,0 h -3.58686 c -0.86878,0 -0.91528,0.48685 -1.64434,0.643888 -0.0967,0.02084 -0.20419,-0.02712 -0.29869,0 -0.0669,0.01919 -0.0825,0.109434 -0.14935,0.128674 -0.14033,0.04033 -0.8621,0.09846 -0.8971,0.128675 -0.0351,0.03037 0.0351,0.09836 0,0.128674 -0.16755,0.144366 -0.82552,-0.09491 -1.04593,0 -0.1741,0.075 -0.27444,0.182895 -0.44855,0.257865 -0.42959,0.185047 -3.21854,0.321049 -3.73621,0.257349 -0.20334,-0.02502 -0.39455,-0.103654 -0.59789,-0.128674 -1.86194,-0.229137 -5.15091,0.420527 -6.72569,-0.257866 -0.0891,-0.03838 -0.21021,0.03838 -0.29921,0 -0.20602,-0.08873 -0.20089,-0.301683 -0.29869,-0.386023 -0.10385,-0.08947 -0.45664,-0.01393 -0.59789,-0.257348 -0.0446,-0.07678 0.0705,-0.197146 0,-0.257866 -0.0352,-0.03031 -0.11425,0.03041 -0.14935,0 -0.0351,-0.03036 0.0223,-0.09029 0,-0.128674 -0.31103,-0.535921 0.01,0.137756 -0.2992,-0.128674 -0.0866,-0.07464 -0.21209,-0.440545 -0.29869,-0.515214 -0.0788,-0.06785 -0.22041,-0.06077 -0.29921,-0.128675 -0.0351,-0.03037 0.0277,-0.09298 0,-0.128674 -0.14634,-0.18913 -0.18098,-0.216595 -0.24236,-0.282153 2e-4,-0.03995 0.0108,-0.0596 -0.0563,-0.233061 -0.0925,-0.239007 -0.31805,-0.03248 -0.44855,-0.257349 -0.0451,-0.07775 0.0691,-0.32702 0,-0.386539 -0.0747,-0.06437 -0.22389,-0.06428 -0.29869,-0.128675 -0.0788,-0.06787 -0.0824,-0.181095 -0.14935,-0.257865 -0.0846,-0.09713 -0.1996,-0.171509 -0.2992,-0.257349 -0.0498,0 -0.11425,0.03041 -0.14935,0 -0.0788,-0.06787 -0.0875,-0.177489 -0.14934,-0.257348 -0.19503,-0.252054 -0.48135,-0.271994 -0.74724,-0.38654 -0.20299,-0.08744 -0.99202,-0.05852 -1.1958,0 -0.21303,0.06119 -0.2155,0.185259 -0.2992,0.257348 -0.0705,0.06072 -0.22819,-0.06072 -0.29869,0 -0.0351,0.03037 0.0353,0.09878 0,0.129192 -0.12786,0.110168 -0.95852,0.249743 -1.1958,0.386023 -0.17662,0.101455 -0.20899,0.309269 -0.29869,0.386539 -0.0788,0.06785 -0.2204,0.06077 -0.2992,0.128675 -0.0351,0.03037 0.0351,0.09836 0,0.128674 -0.084,0.07234 -0.63938,0.09766 -0.74724,0.128674 -0.0668,0.01919 -0.0994,0.08631 -0.14935,0.129191 0,0.04293 0.0446,0.109435 0,0.128675 -0.23512,0.101296 -1.41766,0.0651 -1.64434,0 -0.0668,-0.01919 -0.0864,-0.101555 -0.14935,-0.128675 -0.35525,-0.153031 -0.95348,-0.33031 -1.34513,-0.386539 -0.66013,-0.09479 -1.30798,-0.120551 -1.94304,-0.257349 -0.45531,-0.09811 -1.04932,0.127855 -1.49448,0 -0.0668,-0.01919 -0.0825,-0.109951 -0.14935,-0.129191 -0.5063,-0.145403 -1.31933,0.204346 -1.79369,0 -0.684,-0.294636 0.63457,0.05357 -0.44803,-0.257349 -0.0473,-0.01356 -0.11476,0.03041 -0.14986,0 -0.12027,-0.10362 -0.29776,-0.770979 -0.44804,-1.029911 -0.15691,-0.270379 0.11167,-0.741815 0,-1.030428 -0.0352,-0.09106 -0.12806,-0.163239 -0.14986,-0.257349 -0.0586,-0.252542 0.0945,-0.528236 0,-0.772562 -0.15166,-0.391992 -0.53536,-0.794019 -0.74724,-1.159103 -0.0771,-0.132822 -0.0877,-0.29561 -0.29869,-0.38654 -0.016,-0.007 -2.02278,-0.03001 -2.09238,0 z" />
    <rect
       style="fill:none;fill-opacity:1;stroke:#000000;stroke-width:1.96801;stroke-linejoin:round;stroke-dasharray:none"
       id="rect3-7-1"
       width="118.01475"
       height="28.995796"
       x="138.92188"
       y="15.93202" />
    <path
       style="fill:none;fill-opacity:1;stroke:none;stroke-width:2.27355;stroke-linejoin:round;stroke-dasharray:none"
       d="m 121.424,34.899761 c 2.08689,-0.224755 -0.19532,0.099 0.82203,-0.19316 0.0709,-0.02034 0.15092,0.01266 0.22419,0 0.0998,-0.01715 0.34098,-0.100618 0.37365,-0.128773 0.0176,-0.01515 -0.0223,-0.05483 0,-0.0644 0.0886,-0.03818 0.18977,0.01485 0.37365,-0.06441 0.0949,-0.04088 0.27432,0.02851 0.37365,0 0.16627,-0.04775 0.0833,-0.200578 0.14945,-0.257547 0.0352,-0.03031 0.10496,0.01924 0.14947,0 0.0359,-0.01545 0.0804,-0.326869 0.14946,-0.38631 0.0176,-0.01515 0.0572,0.01516 0.0748,0 0.0314,-0.02702 0.052,-0.154137 0.0748,-0.19316 0.082,-0.141415 0.3742,-0.193628 0.44839,-0.257547 0.0176,-0.01515 -0.0223,-0.05483 0,-0.0644 0.0446,-0.01924 0.10215,0.01356 0.14947,0 0.0885,-0.02542 0.14015,-0.156948 0.22417,-0.193149 0.18023,-0.07767 0.37924,-0.06441 0.59784,-0.06441 0.0662,0 0.25256,-0.01994 0.29893,0 0.0223,0.01 -0.0176,0.04925 0,0.06441 0.0433,0.03729 0.25561,0.09143 0.29891,0.128773 0.0176,0.01516 -0.0176,0.04925 0,0.06441 0.0176,0.01516 0.0524,-0.01 0.0748,0 0.0914,0.03938 0.48953,0.457248 0.5231,0.515094 0.0482,0.08305 0.0309,0.24639 0.0748,0.321924 0.0115,0.01924 0.0572,-0.01516 0.0748,0 0.0351,0.03031 -0.0223,0.09043 0,0.128772 0.037,0.06391 0.12366,0.126461 0.14945,0.193161 0.0593,0.153 -0.0884,0.116939 0.0748,0.257536 0.0176,0.01516 0.0524,-0.01 0.0748,0 0.103,0.04436 0.10059,0.151006 0.14947,0.19316 0.0499,0.04297 0.2491,-0.04287 0.29892,0 0.0217,0.01874 0.0628,0.133868 0.22418,0.0644 0.27585,-0.118833 0.31705,-0.417556 0.44838,-0.643857 0.0315,-0.05434 0.11795,-0.07447 0.14947,-0.128773 0.0314,-0.05403 0.0337,-0.28653 0.0748,-0.321924 0.0176,-0.01516 0.0572,0.01516 0.0748,0 0.15461,-0.133219 -0.23628,0.005 0.0748,-0.128773 0.0223,-0.01 0.0572,0.01516 0.0748,0 0.0176,-0.01515 -0.0176,-0.04925 0,-0.06441 0.0176,-0.01515 0.0572,0.01516 0.0748,0 0.0176,-0.01515 -0.0176,-0.04925 0,-0.0644 0.0351,-0.03031 0.1142,0.03031 0.14946,0 0.0176,-0.01516 -0.0176,-0.04925 0,-0.06441 0.0266,-0.02294 0.22155,-0.06212 0.22418,-0.06441 0.0373,-0.03221 0.0373,-0.09661 0.0748,-0.128774 0.0277,-0.02383 0.25276,-0.04447 0.29893,-0.06441 0.063,-0.02712 0.0864,-0.101614 0.14946,-0.128762 0.0446,-0.01924 0.11421,0.03031 0.14945,0 0.0176,-0.01516 -0.0223,-0.05483 0,-0.06441 0.0598,-0.02572 0.16442,0.02572 0.22419,0 0.20833,-0.08973 0.24438,-0.02044 0.44839,-0.06441 0.54147,-0.116629 1.30251,-0.15325 1.79351,0.128774 0.40423,0.232183 0.10006,0.687565 0.29891,1.030166 0.0223,0.03838 -0.0351,0.0984 0,0.128773 0.0352,0.03031 0.10496,-0.01924 0.14947,0 0.063,0.02712 0.084,0.106222 0.14946,0.128774 0.0953,0.03291 0.20452,0.02951 0.29893,0.06441 0.0825,0.03051 0.14079,0.10004 0.22417,0.128772 0.0706,0.02433 0.24046,0.01396 0.29893,0.06441 0.0249,0.02144 0.0497,0.171695 0.0748,0.193161 0.0176,0.01516 0.0572,-0.01516 0.0748,0 0.0517,0.04457 0.0787,0.166161 0.14945,0.257536 0.11086,0.143299 0.0382,-0.004 0.22419,0.06441 0.55301,0.204207 0.20131,0.19316 0.44838,0.19316 0.28089,0 0.60783,0.05573 0.82204,-0.128774 0.0176,-0.01516 -0.0176,-0.04925 0,-0.06441 0.0176,-0.01515 0.0524,0.01 0.0748,0 0.16523,-0.07119 0.0232,-0.03998 0.0748,-0.128774 0.0473,-0.08146 0.16558,-0.117387 0.2242,-0.193149 0.0793,-0.102512 0.0866,-0.133899 0.22418,-0.193161 0.0945,-0.04068 0.16557,-0.117387 0.22419,-0.193159 0.0137,-0.01785 -0.0223,-0.05484 0,-0.06441 0.0669,-0.02881 0.17135,0.04556 0.2242,0 0.0724,-0.06232 0.022,-0.102204 0.0748,-0.19316 0.003,-0.005 0.53036,-0.238165 0.59784,-0.257547 0.0472,-0.01356 0.10496,0.01924 0.14946,0 0.0223,-0.01 -0.0176,-0.04925 0,-0.06441 0.0223,-0.01924 0.94414,-0.175882 0.97148,-0.128764 0.0223,0.03838 -0.0121,0.08714 0,0.128764 0.0445,0.15317 0.11986,0.362083 0.14946,0.515093 0.101,0.522043 -0.101,1.087595 0,1.609636 0.16474,0.851604 0.35178,1.663027 0.59784,2.511041 0.0868,0.299211 0,0.849897 0,1.158939 0,0.173789 0.007,1.475141 0,1.480864 -0.0176,0.01516 -0.0572,-0.01515 -0.0748,0 -0.0351,0.03041 0.0446,0.10958 0,0.128773 -0.0446,0.01924 -0.51281,0.06312 -0.5231,0.06441 -0.98639,0.121405 0.34786,0.004 -0.37365,0.128774 -0.21419,0.03689 -0.37906,0.01725 -0.59785,0.0644 -0.36276,0.07816 -1.80925,0 -2.24188,0 -0.84694,0 -1.69388,0 -2.54083,0 -0.41269,0 -0.86119,0.04407 -1.2704,0 -1.03248,-0.111195 -2.09427,-0.0644 -3.13865,-0.0644 -0.4896,0 0.0434,-0.02034 -0.44839,0.0644 -0.45508,0.07836 -0.96477,-0.07846 -1.41986,0 -0.0546,0.009 -0.0949,0.05494 -0.14946,0.06441 -0.14656,0.02522 -0.30182,-0.02522 -0.44838,0 -0.0546,0.009 -0.0949,0.05494 -0.14947,0.06441 -0.45783,0.07886 -1.02503,0 -1.49459,0 -1.07113,0 -2.14225,0 -3.21338,0 -0.96324,0 -1.97049,0.07119 -2.91446,-0.06441 -0.13534,-0.01944 -0.39708,0.05423 -0.52311,0 -0.0155,-0.007 -0.36163,-0.247188 -0.37366,-0.257546 -0.0176,-0.01516 0.0176,-0.04925 0,-0.06441 -0.0176,-0.01516 -0.0572,0.01516 -0.0748,0 -0.0176,-0.01516 0.0176,-0.04925 0,-0.06441 -0.0351,-0.03031 -0.11422,0.03041 -0.14945,0 -0.19711,-0.16981 -0.33595,-0.450108 -0.44839,-0.643857 -0.0221,-0.03798 0,-0.149879 0,-0.193149 0,-0.45285 0.33775,-0.45321 0.52311,-0.77263 0.10645,-0.18346 0.0785,-0.293808 0.22419,-0.450696 0.0881,-0.09481 0.19928,-0.171696 0.29892,-0.257548 0.0393,-0.0339 0.12455,-0.02144 0.14946,-0.06441 0.0996,-0.171695 -0.10566,-0.08953 0.0748,-0.19315 0.0654,-0.03768 0.16849,-0.01635 0.2242,-0.06441 0.13636,-0.117487 0.27813,-0.327247 0.37365,-0.450706 0.0664,-0.08584 0.2433,-0.161695 0.29892,-0.257537 0.0115,-0.01924 -0.0176,-0.04925 0,-0.0644 0.0393,-0.0339 0.11004,-0.03041 0.14946,-0.06441 0.0788,-0.0679 0.0826,-0.180757 0.14945,-0.257547 0.13739,-0.157826 0.38129,-0.308145 0.52312,-0.450697 0.0584,-0.05872 0.086,-0.138434 0.14945,-0.193149 0.0458,-0.03948 0.19558,-0.05484 0.22419,-0.128774 0.0157,-0.04078 -0.0277,-0.09302 0,-0.128773 0.0701,-0.09043 0.28846,-0.147448 0.37365,-0.257547 0.0734,-0.09481 0.15796,-0.281434 0.29892,-0.321924 0.0473,-0.01356 0.11421,0.03031 0.14946,0 0.0351,-0.03031 -0.0223,-0.09043 0,-0.128772 0.0115,-0.01924 0.0572,0.01515 0.0748,0 0.21043,-0.004 0.019,-0.145164 0.0748,-0.193161 0.0176,-0.01515 0.0497,0 0.0748,0 0.0249,-0.02144 0.0552,-0.03908 0.0748,-0.06441 0.0797,-0.103049 0.27185,-0.702649 0.29891,-0.772629 z"
       id="path5" />
    <path
       style="fill:#f19902;fill-opacity:1;stroke:none;stroke-width:2.27355;stroke-linejoin:round;stroke-dasharray:none"
       d="m 118.10352,35.65317 -5.90366,3.66998"
       id="path7" />
    <ellipse
       style="fill:#f7d66e;fill-opacity:1;stroke-width:6.9912"
       id="path6"
       cx="144.72055"
       cy="21.075464"
       rx="2.8414733"
       ry="2.1956837" />
    <ellipse
       style="fill:#f7d664;fill-opacity:1;stroke-width:10.6038"
       id="path12"
       cx="150.86842"
       cy="20.924854"
       rx="1.646763"
       ry="1.5176051" />
    <text
       xml:space="preserve"
       style="font-size:21.1667px;font-family:'Lilita One';-inkscape-font-specification:'Lilita One';fill:#808080;fill-opacity:1;stroke-width:1.00012;stroke-linecap:round;stroke-linejoin:round"
       x="160.78647"
       y="36.879524"
       id="text1-0"><tspan
         sodipodi:role="line"
         id="tspan1-7"
         style="fill:#808080;fill-opacity:1;stroke-width:1.00012"
         x="160.78647"
         y="36.879524">Settings</tspan></text>
    <text
       xml:space="preserve"
       style="font-size:21.1667px;font-family:'Lilita One';-inkscape-font-specification:'Lilita One';fill:#ffffff;stroke-width:1.00012;stroke-linecap:round;stroke-linejoin:round"
       x="159.08487"
       y="35.890926"
       id="text1"><tspan
         sodipodi:role="line"
         id="tspan1"
         style="fill:#ffffff;stroke-width:1.00012"
         x="159.08487"
         y="35.890926">Settings</tspan></text>
  </g>
</svg>
